<svg width="34" height="32" viewBox="0 0 34 32" fill="none" xmlns="http://www.w3.org/2000/svg">
<g clip-path="url(#clip0_309_33)">
<path d="M25.563 5.71317C24.4952 5.71317 23.6289 6.5532 23.6289 7.58866C23.6289 8.62412 24.4952 9.46415 25.563 9.46415C26.6308 9.46415 27.4971 8.62412 27.4971 7.58866C27.4971 6.5532 26.6308 5.71317 25.563 5.71317Z" fill="#151515"/>
<path d="M16.962 8.11978C12.481 8.11978 8.83551 11.6548 8.83551 16C8.83551 20.3452 12.481 23.8802 16.962 23.8802C21.4429 23.8802 25.0885 20.3452 25.0885 16C25.0885 11.6548 21.4429 8.11978 16.962 8.11978ZM16.962 21.0481C14.0917 21.0481 11.7562 18.7833 11.7562 16C11.7562 13.2167 14.0917 10.9519 16.962 10.9519C19.8323 10.9519 22.1678 13.2167 22.1678 16C22.1678 18.7833 19.8323 21.0481 16.962 21.0481Z" fill="#151515"/>
<path d="M23.4128 32H10.2381C4.77225 32 0.325439 27.6879 0.325439 22.3877V9.61229C0.325439 4.31206 4.77225 0 10.2381 0H23.4128C28.8786 0 33.3254 4.31206 33.3254 9.61229V22.3893C33.3254 27.6895 28.8786 32.0016 23.4128 32.0016V32ZM10.2381 3.01024C6.48368 3.01024 3.42975 5.97163 3.42975 9.61229V22.3893C3.42975 26.0299 6.48368 28.9913 10.2381 28.9913H23.4128C27.1672 28.9913 30.2211 26.0299 30.2211 22.3893V9.61229C30.2211 5.97163 27.1672 3.01024 23.4128 3.01024H10.2381Z" fill="#151515"/>
</g>
<defs>
<clipPath id="clip0_309_33">
<rect width="33" height="32" fill="#151515" transform="translate(0.325439)"/>
</clipPath>
</defs>
</svg>
