<svg width="24" height="24" viewBox="0 0 24 24" fill="none" xmlns="http://www.w3.org/2000/svg">
<path d="M13.2336 1.2336C13.2336 1.91451 12.6816 2.4672 12 2.4672C11.3184 2.4672 10.7664 1.9152 10.7664 1.2336C10.7664 0.552 11.3191 0 12 0C12.6809 0 13.2336 0.552 13.2336 1.2336Z" fill="white"/>
<path opacity="0.65" d="M13.2336 22.7664C13.2336 23.4473 12.6816 24 12 24C11.3184 24 10.7664 23.448 10.7664 22.7664C10.7664 22.0848 11.3184 21.5328 12 21.5328C12.6816 21.5328 13.2336 22.0848 13.2336 22.7664Z" fill="white"/>
<path opacity="0.45" d="M22.7664 13.2336C22.0855 13.2336 21.5328 12.6816 21.5328 12C21.5328 11.3184 22.0848 10.7664 22.7664 10.7664C23.448 10.7664 24 11.3184 24 12C24 12.6816 23.448 13.2336 22.7664 13.2336Z" fill="white"/>
<path opacity="0.8" d="M1.2336 13.2336C0.552686 13.2336 0 12.6816 0 12C0 11.3184 0.552 10.7664 1.2336 10.7664C1.9152 10.7664 2.4672 11.3184 2.4672 12C2.4672 12.6816 1.9152 13.2336 1.2336 13.2336Z" fill="white"/>
<path opacity="0.35" d="M20.485 5.25874C20.0037 5.74012 19.2226 5.74012 18.7406 5.25874C18.2592 4.77737 18.2592 3.99634 18.7406 3.51429C19.2219 3.03292 20.003 3.03292 20.485 3.51429C20.9664 3.99566 20.9664 4.77669 20.485 5.25874Z" fill="white"/>
<path opacity="0.7" d="M5.25876 20.485C4.77739 20.9664 3.99636 20.9664 3.5143 20.485C3.03224 20.0037 3.03293 19.2226 3.5143 18.7406C3.99567 18.2592 4.7767 18.2592 5.25876 18.7406C5.74013 19.2219 5.74013 20.003 5.25876 20.485Z" fill="white"/>
<path opacity="0.55" d="M18.7412 20.485C18.2599 20.0037 18.2599 19.2226 18.7412 18.7406C19.2226 18.2592 20.0036 18.2592 20.4857 18.7406C20.9671 19.2219 20.9671 20.003 20.4857 20.485C20.0043 20.9664 19.2233 20.9664 18.7412 20.485Z" fill="white"/>
<path opacity="0.9" d="M4.38652 5.62012C5.06782 5.62012 5.62012 5.06782 5.62012 4.38652C5.62012 3.70523 5.06782 3.15292 4.38652 3.15292C3.70523 3.15292 3.15292 3.70523 3.15292 4.38652C3.15292 5.06782 3.70523 5.62012 4.38652 5.62012Z" fill="white"/>
<path opacity="0.2" d="M17.2334 2.51039C16.9742 3.14056 16.2535 3.44158 15.624 3.18238C14.9938 2.92318 14.6928 2.2025 14.952 1.57301C15.2112 0.942842 15.9319 0.641814 16.5614 0.901014C17.1916 1.16021 17.4926 1.8809 17.2334 2.51039Z" fill="white"/>
<path opacity="0.7" d="M9.04799 22.427C8.78879 23.0572 8.0681 23.3582 7.43861 23.099C6.80844 22.8398 6.50741 22.1191 6.76661 21.4896C7.02581 20.8594 7.7465 20.5584 8.37599 20.8176C9.00616 21.0768 9.30719 21.7975 9.04799 22.427Z" fill="white"/>
<path opacity="0.5" d="M21.4896 17.2334C20.8594 16.9742 20.5584 16.2535 20.8176 15.624C21.0768 14.9938 21.7975 14.6928 22.427 14.952C23.0572 15.2112 23.3582 15.9319 23.099 16.5614C22.8398 17.1916 22.1191 17.4926 21.4896 17.2334Z" fill="white"/>
<path opacity="0.85" d="M1.57301 9.04799C0.942842 8.78879 0.641814 8.0681 0.901014 7.43861C1.16021 6.80844 1.8809 6.50741 2.51039 6.76661C3.14056 7.02581 3.44158 7.7465 3.18238 8.37599C2.92318 9.00616 2.2025 9.30719 1.57301 9.04799Z" fill="white"/>
<path opacity="0.4" d="M22.4105 8.99039C21.7817 9.25302 21.0597 8.95611 20.797 8.32731C20.5344 7.69851 20.8313 6.97645 21.4601 6.71382C22.0889 6.45119 22.811 6.74811 23.0736 7.37691C23.3362 8.00571 23.0393 8.72776 22.4105 8.99039Z" fill="white"/>
<path opacity="0.75" d="M2.53919 17.2855C1.91039 17.5481 1.18833 17.2512 0.925705 16.6224C0.663077 15.9936 0.959991 15.2716 1.58879 15.0089C2.21759 14.7463 2.93965 15.0432 3.20228 15.672C3.4649 16.3008 3.16799 17.0229 2.53919 17.2855Z" fill="white"/>
<path opacity="0.6" d="M15.0096 22.4105C14.747 21.7817 15.0439 21.0597 15.6727 20.797C16.3015 20.5344 17.0235 20.8313 17.2862 21.4601C17.5488 22.0889 17.2519 22.811 16.6231 23.0736C15.9943 23.3362 15.2722 23.0393 15.0096 22.4105Z" fill="white"/>
<path opacity="0.95" d="M6.71382 2.53919C6.45119 1.91039 6.74811 1.18833 7.37691 0.925705C8.00571 0.663077 8.72776 0.959991 8.99039 1.58879C9.25302 2.21759 8.95611 2.93965 8.32731 3.20228C7.69851 3.4649 6.97645 3.16799 6.71382 2.53919Z" fill="white"/>
</svg>
