<svg width="33" height="32" viewBox="0 0 33 32" fill="none" xmlns="http://www.w3.org/2000/svg">
<g clip-path="url(#clip0_309_37)">
<path d="M0.325439 32L2.62549 23.4403C1.32415 21.0966 0.637635 18.47 0.637635 15.8054C0.637635 7.08993 7.74485 0 16.4815 0C25.2182 0 32.3254 7.08993 32.3254 15.8054C32.3254 24.5208 25.2182 31.6107 16.4815 31.6107C13.8581 31.6107 11.2682 30.9497 8.95063 29.696L0.325439 32ZM9.3791 26.4879L9.92225 26.8105C11.9165 27.9958 14.1847 28.6219 16.4815 28.6219C23.5665 28.6219 29.3309 22.8714 29.3309 15.8038C29.3309 8.73608 23.5665 2.98724 16.4815 2.98724C9.39662 2.98724 3.63216 8.73767 3.63216 15.8054C3.63216 18.1395 4.28204 20.4372 5.5117 22.4504L5.8446 22.9954L4.56078 27.775L9.3791 26.4863V26.4879Z" fill="white"/>
<path fill-rule="evenodd" clip-rule="evenodd" d="M22.375 18.0029C21.7235 17.6136 20.8746 17.1798 20.1068 17.4928C19.5175 17.7328 19.1416 18.6544 18.7593 19.1231C18.5634 19.3646 18.3292 19.4028 18.0282 19.2804C15.8157 18.4017 14.1209 16.9272 12.8992 14.8981C12.6922 14.5819 12.7288 14.334 12.9789 14.0416C13.3484 13.6078 13.8103 13.1168 13.9107 12.5321C14.011 11.949 13.7355 11.2657 13.4934 10.7461C13.1844 10.0819 12.8387 9.13492 12.1713 8.75834C11.5581 8.41354 10.7505 8.6058 10.2042 9.05071C9.26121 9.81659 8.80566 11.0162 8.82 12.2064C8.82319 12.5448 8.86619 12.8817 8.94424 13.2074C9.13538 13.9924 9.49855 14.7249 9.9079 15.4208C10.2169 15.9468 10.5514 16.4552 10.913 16.9462C12.0965 18.5495 13.5682 19.943 15.2726 20.9854C16.1247 21.505 17.0422 21.9626 17.9915 22.2756C19.0571 22.6268 20.0065 22.9922 21.1565 22.7745C22.3607 22.5457 23.5489 21.8021 24.0268 20.6453C24.1685 20.3021 24.2386 19.9208 24.1606 19.5585C23.9965 18.8101 22.9803 18.3652 22.3734 18.0029H22.375Z" fill="white"/>
</g>
<defs>
<clipPath id="clip0_309_37">
<rect width="32" height="32" fill="white" transform="translate(0.325439)"/>
</clipPath>
</defs>
</svg>
