<svg width="146" height="56" viewBox="0 0 146 56" fill="none" xmlns="http://www.w3.org/2000/svg">
<g clip-path="url(#clip0_309_41)">
<path d="M42.2413 9.2297H43.3931V51.5761H37.3842V19.9813L8.26354 51.467H0L38.6392 9.2297H40.6983C40.6983 9.2297 42.2413 9.21879 42.2413 9.2297Z" fill="#151515"/>
<path d="M72.0193 23.4943V18.8467H45.6532V24.9289H62.7181L45.6532 46.874V51.467H72.0193V45.2757H55.0087L72.0193 23.4943Z" fill="#151515"/>
<path d="M99.4015 22.0542C99.32 21.9778 99.2331 21.896 99.1516 21.8196C97.2229 20.0468 94.7726 18.8194 91.8768 18.1594C89.2744 17.5975 86.7861 17.5702 84.4826 18.083C82.1953 18.5903 80.1308 19.5067 78.3488 20.7995C76.5885 22.0814 75.0998 23.6797 73.9263 25.5453C72.7528 27.4109 71.9542 29.4565 71.5521 31.6275C71.1501 33.7986 71.1664 36.0569 71.6065 38.3425C72.052 40.6608 73.0245 42.9355 74.5022 45.0956C75.7844 46.9667 77.4849 48.5213 79.5603 49.716C81.5922 50.8888 83.7328 51.6252 85.9495 51.9143C86.7644 52.0125 87.5739 52.0616 88.3563 52.0616C91.4205 52.0616 94.2184 51.3088 96.6796 49.8196C97.6412 49.2359 98.5539 48.565 99.4069 47.8067V51.4561H105.47V18.0939H99.4069V22.0378L99.4015 22.0542ZM77.5012 33.5422C77.7837 32.053 78.2944 30.5747 79.017 29.1455C79.7287 27.8363 80.7012 26.7945 81.9943 25.9653C83.3742 25.0816 84.8683 24.4707 86.4276 24.1488C87.6011 23.9252 88.8126 23.9197 90.0351 24.1325C91.2575 24.3452 92.3821 24.7489 93.3763 25.3325C94.7128 26.1181 95.8212 27.0727 96.6796 28.1582C97.538 29.2492 98.1628 30.4165 98.5431 31.633C98.9234 32.8494 99.0809 34.1149 99.0103 35.3914C98.9397 36.6787 98.6409 37.9388 98.1302 39.1389C97.6195 40.3335 96.8752 41.4518 95.9135 42.4609C94.9519 43.4701 93.7566 44.3211 92.3441 44.9975L92.3169 45.0138C91.4748 45.4339 90.5295 45.6957 89.4918 45.7939C88.3889 45.8975 87.3294 45.8484 86.3298 45.6466C84.2435 45.2375 82.4832 44.3538 80.9403 42.9301C79.3919 41.5063 78.3433 39.8099 77.7348 37.7479C77.3219 36.3078 77.2404 34.895 77.5012 33.5476V33.5422Z" fill="#151515"/>
<path d="M145.125 30.5911C144.424 28.36 143.284 26.2599 141.735 24.3452C140.176 22.4196 138.144 20.7941 135.726 19.5395C135.667 19.5067 135.612 19.474 135.552 19.4413C135.601 19.3758 135.65 19.3103 135.699 19.2449C136.041 18.7703 136.346 18.3176 136.623 17.8812L136.65 17.8375C137.454 16.4902 137.954 15.001 138.133 13.4136C138.301 11.8971 138.215 10.3916 137.872 8.94604C137.519 7.46776 136.878 6.07131 135.96 4.80031C135.031 3.51296 133.857 2.44925 132.461 1.63647C131.809 1.27099 131.135 0.949155 130.456 0.67641C129.685 0.370935 128.859 0.169104 127.995 0.0709159C125.817 -0.141825 123.741 0.12001 121.829 0.845512C119.824 1.60374 118.102 2.94565 116.711 4.82213L116.559 5.05669C116.151 5.76583 115.755 6.49679 115.391 7.23865C114.907 8.21508 114.608 9.26788 114.516 10.3752C114.304 12.7808 114.657 15.0283 115.554 17.0466C116.01 18.0666 116.613 18.9994 117.368 19.834L117.026 20.0086C114.88 21.1868 113.038 22.7906 111.544 24.7762C110.088 26.7126 108.985 28.8837 108.273 31.2402C107.475 33.9949 107.296 36.7769 107.736 39.5098C108.17 42.2046 109.105 44.7138 110.512 46.9612C111.919 49.2141 113.766 51.1397 116.005 52.6889C118.265 54.2544 120.829 55.2745 123.611 55.7164C124.692 55.9018 125.833 55.9945 127.006 55.9945C127.582 55.9945 128.174 55.9727 128.772 55.9291C130.679 55.7873 132.45 55.3291 134.026 54.5817C136.449 53.4798 138.557 52.0179 140.295 50.2342C142.029 48.4559 143.392 46.4539 144.343 44.2829C145.294 42.1173 145.842 39.8317 145.984 37.4806C146.125 35.1241 145.837 32.8058 145.142 30.5856L145.125 30.5911ZM134.765 46.4976C133.466 47.5831 131.939 48.4013 130.234 48.9359C128.566 49.4541 126.746 49.585 124.811 49.3232C123.676 49.1432 122.568 48.8214 121.524 48.3522C120.476 47.8886 119.514 47.2885 118.661 46.5794C117.797 45.8593 117.01 45.0084 116.336 44.0647C115.668 43.1319 115.141 42.1336 114.771 41.1081C114.179 39.4171 113.918 37.6497 113.989 35.866C114.06 34.1368 114.494 32.4894 115.277 30.9729C115.711 30.1001 116.287 29.2328 116.977 28.4037C117.667 27.58 118.455 26.8381 119.319 26.2053C120.188 25.5671 121.133 25.0325 122.122 24.618C123.029 24.2361 123.969 24.0179 124.92 23.9634C125.963 23.8979 126.871 23.8761 127.62 23.887C128.261 23.9034 129.022 24.007 129.88 24.2088C131.076 24.5361 132.233 25.0271 133.314 25.6708C134.39 26.3144 135.368 27.1163 136.226 28.0655C137.606 29.571 138.562 31.1748 139.062 32.8221C139.567 34.4968 139.725 36.1769 139.524 37.8025C139.317 39.4662 138.796 41.0699 137.976 42.5755C137.15 44.0865 136.069 45.4066 134.759 46.4976H134.765ZM125.936 6.32769C126.441 6.32769 126.979 6.40951 127.582 6.57861C128.468 6.82408 129.207 7.21138 129.777 7.72414C130.38 8.26963 130.831 8.88058 131.146 9.58426C131.472 10.3152 131.641 11.0571 131.668 11.8426C131.69 12.6172 131.57 13.3372 131.288 14.0464C131.016 14.7391 130.592 15.3501 130.005 15.9174C129.457 16.4465 128.767 16.8175 127.892 17.0629C127.419 17.1938 126.919 17.2811 126.398 17.3193C125.996 17.352 125.626 17.3193 125.268 17.2157L125.219 17.2048C123.926 16.8775 122.964 16.3592 122.356 15.6665C121.687 14.9082 121.269 14.1064 121.079 13.2172C120.878 12.2953 120.905 11.3898 121.155 10.4461C121.41 9.49153 121.829 8.6842 122.443 7.98052C123.019 7.32048 123.741 6.84045 124.654 6.52406C125.056 6.38223 125.474 6.31678 125.931 6.31678L125.936 6.32769Z" fill="#151515"/>
</g>
<defs>
<clipPath id="clip0_309_41">
<rect width="146" height="56" fill="#151515"/>
</clipPath>
</defs>
</svg>
