<?xml version="1.0" encoding="UTF-8"?>
<svg id="Ebene_1" data-name="Ebene 1" xmlns="http://www.w3.org/2000/svg" version="1.1" viewBox="0 0 233.6 121.7">
  <defs>
    <style>
      .cls-1 {
        fill: #fff;
        stroke-width: 0px;
      }
    </style>
  </defs>
  <g>
    <path class="cls-1" d="M133.3,24.1c0-2,0-4.1.6-5.8.5-1.9.2-4.1-.4-5.8-.2-2.4-.9-4.5-2.5-6.3-1.5-2-3.9-2.3-5.7-3.7-1.7-1.5-4-1.6-6.2-1.6-1.4,0-2.8-.3-4.1-.6-2.1-.5-4.2,0-6,.6-1.5.3-3,.3-4.3,1-1.6.9-3.6,1.5-4.8,3.1-.9,1.1-2.1,2-2.3,3.4-.2,1.7,0,3.5,1.5,4.7.4.5,1.2.5,1.4,1.1-.2,1.2-.8,2.3-1.2,3.4-.7,1.3,1.2,2,.5,3.3l-2.7,4.8c-.3.7-.7,1.4-.7,2.2.3,1.3,1.9.8,2.7,1.6.6.7-.3,1.3-.4,2-.2.6.8.8.4,1.4-.5.9.4,1.5.7,2.2,0,1.1-.6,2.3.2,3.1,2.1,1.5,5.3.3,7.5,1.4,1.1.8.9,2.4.9,3.6-.6,5.2-3.1,9.7-6.4,13.8-.3.5-.6,1.2-.4,1.8.5.2,1.2.1,1.6,0,5.9-2,10.6-7.2,16.4-9.6,2.2-1.1,4.8-1.5,7.2-2,.6-.5.3-1.3.1-1.9-1.2-3.2-2.6-6.4-2.4-10,0-1.3,1.5-1.6,2.4-2.1,1.5-.4,2.5-2,3.2-3.3,1.3-1.7,2.9-3.4,3-5.6Z"/>
    <path class="cls-1" d="M206.9,66.4c-1.3,0-4,1-6.5,2.5v-2.9l-7.4,1.9v1.1l3.6,1.2v26.9l-3.6,1.5v1.2h11.9v-1.2l-4.5-1.5v-9.2c.9.3,1.8.4,2.7.4,5.3,0,11.8-4,11.8-11.4s-3.5-10.4-8-10.4ZM202.8,86.1c-.8,0-1.5,0-2.4-.2v-15.9c1-.5,2.2-.7,3.6-.7,4.1,0,6.8,3.6,6.8,8.9s-3,7.9-8.1,7.9Z"/>
    <path class="cls-1" d="M229.4,55.1c-5.7,0-9.4,3.5-9.4,8.9v2.7h-3.5v2.1h3.5v16.5l-3.5,1.6v1.2h11.6v-1.2l-4.4-1.6v-16.5h6.2v-2.1h-6.2v-3.4c0-2.5.5-4.1,1.7-5.1.9-.8,2.4-1.4,3.8-1.4s.3,0,.6,0l1.2,2.9h2.7v-4c-1.1-.5-2.5-.7-4.2-.7Z"/>
    <path class="cls-1" d="M12.7,71.4l-4.8-3.2c-3.2-2.1-3.9-3.1-3.9-5.2,0-3.2,2.2-4.6,6.8-4.6s1.1,0,2.3.1h.4s2.2,5.8,2.2,5.8h1.7v-6.8h-.7c0-.1-1.9-.6-1.9-.6-.6-.1-1.4-.3-2.4-.4-1.3-.1-2.6-.3-3.4-.3-5.2,0-8.7,3.4-8.7,8.4s.3,2.8,1.1,4.1c.8,1.4,1.6,2.2,4,3.8l4.5,3c3.2,2.1,3.9,3.2,3.9,5.6,0,3.3-2.2,5.1-6.5,5.1s-2.2,0-3.3-.2l-2.2-5.9H0v7h.5c0,.1,2.6.8,2.6.8,2,.5,4.1.8,5.5.8,5.9,0,9.7-3.4,9.7-8.7s-.4-3.5-1.4-4.8c-.8-1.3-1.2-1.6-4.1-3.6Z"/>
    <path class="cls-1" d="M36.4,85.5c-2.2.4-2.7.5-4,.5-2.7,0-4.3-.7-5.7-2.5-1.3-1.6-2-3.9-2-6.5,0-5.3,3.1-9.2,7.1-9.2s.4,0,.9,0l1.8,4h2.5v-4.7c-2-.7-3.5-1-5.1-1-6.6,0-11,4.7-11,11.8s3.6,10.6,8.7,10.6,3.2-.3,5.1-1l2.1-.7h.4c0-.1-.2-1.6-.2-1.6h-.4Z"/>
    <path class="cls-1" d="M58.5,73.7c0-4.6-2.2-7.6-5.6-7.6s-3.2.7-6.1,2.3l-.5.2v-14.8l-7.2,1.9v1.1l3.6,1.3v27.1l-3.4,1.7v1.2h10.1v-1.2l-3-1.7v-15.5c.9-.3,2.5-.5,3.7-.5,3.5,0,4.9,1.7,4.9,5.6v10.4l-3.2,1.7v1.2h10.2v-1.2l-3.4-1.7v-11.5Z"/>
    <path class="cls-1" d="M93.3,66.7h-8.3v1.1l3.1,1.5-4.4,13.5v-.4c-.5-1.3-.5-1.6-.8-2.4l-4.4-13.3h-1.2l-5.7,16.1v-.7c-.1,0-.5-1.2-.5-1.2l-.4-1.2-3.5-10.6,3.2-1.2v-1.1h-9.7v1.1l2.6,1.2,6.8,19.1h1.8l5.2-14.7,4.8,14.7h1.9l7.2-18.9,2.5-1.5v-1.1Z"/>
    <path class="cls-1" d="M108.2,83.6v-11.9c0-3.6-1.9-5.3-6-5.3s-4.1.5-7.1,1.5v4.1h2.5l1.7-3.7c.5,0,.7,0,1.1,0,3.1,0,4.1.9,4.1,3.7v4.9c-2.8.3-5.2.6-6.9,1-2.8.7-4.4,2.4-4.4,5.1s2.3,5.4,5.6,5.4,1.5,0,2-.3c.3,0,.9-.4,1.8-.9l1.4-.7.5-.3c.3,1.5.9,2.2,2.2,2.2h.2c.6,0,1.4-.2,1.7-.3l3-1.1v-.9l-2.3-.7c-1-.4-1.1-.5-1.1-1.7ZM104.5,85.3c-.2,0-.2,0-.3,0-.8.2-1.2.3-1.3.3-.5.1-1,.2-1.6.2-2.4,0-3.9-1.4-3.9-3.6s.9-2.9,2.8-3.4c1.5-.4,2.8-.7,4.3-.9v7.3Z"/>
    <path class="cls-1" d="M120.8,68.5l-.4.2v-2.9l-7.1,1.8v1l3.4,1.1v15.6l-3.4,1.6v1.1h11.4v-1.1l-4.2-1.6v-15.6c1-.4,2.1-.7,3.1-.7s.6,0,1,0l1.2,2.7h2.8v-5c-.7-.4-1.3-.7-2.1-.7-1.1,0-3,.8-5.7,2.3Z"/>
    <polygon class="cls-1" points="131 72.8 132.4 72.8 134.5 68.8 141.7 68.8 130.2 86.7 130.2 88.2 146.6 88.2 146.6 81.5 145.3 81.5 143.1 86.2 135 86.2 146.6 68.2 146.6 66.7 131 66.7 131 72.8"/>
    <polygon class="cls-1" points="160.4 75.1 166.5 69 170.5 67.6 170.5 66.5 160.9 66.5 160.9 67.6 163.6 68.8 156.6 76.4 164.9 88.1 171.1 88.1 171.1 87 168.1 85.7 160.4 75.1"/>
    <polygon class="cls-1" points="156 53.6 148.6 55.4 148.6 56.4 152.3 57.6 152.3 85.4 148.8 87 148.8 88.1 159.5 88.1 159.5 87 156 85.4 156 53.6"/>
    <path class="cls-1" d="M181.1,66c-6.3,0-10.5,4.7-10.5,11.8s4.1,11,9.9,11,10.7-5,10.7-11.8-4.1-10.9-10.1-10.9ZM181.1,86.7c-3.8,0-6.1-3.6-6.1-9.6s2.1-9,5.7-9,6.1,3.7,6.1,10-2.1,8.7-5.7,8.7Z"/>
  </g>
  <path class="cls-1" d="M.5,121.4v-12.7h5.2c2.9,0,4.8,1.7,4.8,4.3s-2.6,4.4-5.1,4.4h-2.4v3.9H.5ZM5.4,115.3c1.5,0,2.5-.9,2.5-2.2s-.9-2.2-2.5-2.2h-2.4v4.4h2.5Z"/>
  <path class="cls-1" d="M27.9,121.4l-2.8-4.2h-2.6v4.2h-2.5v-12.7h5.8c1.6,0,2.8.4,3.7,1.3.7.7,1.1,1.7,1.1,2.9,0,2.4-1.5,3.5-2.7,3.9h-.2c0,0,3.1,4.7,3.1,4.7h-2.9ZM25.7,115.1c1.5,0,2.4-.8,2.4-2s-.9-2.1-2.5-2.1h-3.1v4.2h3.1Z"/>
  <path class="cls-1" d="M46.1,121.7c-3.8,0-6.7-2.8-6.7-6.5s3-6.6,6.8-6.6,6.7,2.8,6.7,6.5-3,6.6-6.8,6.6ZM46.1,110.8c-2.4,0-4.1,1.8-4.1,4.3s1.8,4.3,4.2,4.3,4.1-1.8,4.1-4.3-1.8-4.3-4.2-4.3Z"/>
  <polygon class="cls-1" points="62.6 121.4 62.6 108.7 72.2 108.7 72.2 110.9 65.1 110.9 65.1 114.1 71.3 114.1 71.3 116.4 65.1 116.4 65.1 121.4 62.6 121.4"/>
  <polygon class="cls-1" points="83.1 121.4 83.1 108.7 92.6 108.7 92.6 110.9 85.6 110.9 85.6 113.9 91.7 113.9 91.7 116.1 85.6 116.1 85.6 119.3 92.7 119.3 92.7 121.4 83.1 121.4"/>
  <path class="cls-1" d="M107.9,121.6c-1.9,0-3.7-.6-5.1-1.8h-.2c0-.1,1.5-1.9,1.5-1.9h.1c1.2,1.1,2.4,1.5,3.7,1.5s2.1-.7,2.1-1.4-.6-1.3-2.8-1.9c-2.8-.7-4.2-1.5-4.2-3.8s1.8-3.8,4.4-3.8,3.2.5,4.4,1.4h.2c0,.1-1.3,2-1.3,2h-.2c-1.2-.8-2.2-1.2-3.2-1.2s-1.9.7-1.9,1.3c0,1.1.8,1.4,3,1.9,2.9.8,4,1.8,4,3.7s-1.8,3.9-4.6,3.9Z"/>
  <path class="cls-1" d="M127.4,121.6c-1.9,0-3.7-.6-5.1-1.8h-.2c0-.1,1.5-1.9,1.5-1.9h.1c1.2,1.1,2.4,1.5,3.7,1.5s2.1-.7,2.1-1.4-.6-1.3-2.8-1.9c-2.8-.7-4.2-1.5-4.2-3.8s1.8-3.8,4.4-3.8,3.2.5,4.4,1.4h.2c0,.1-1.3,2-1.3,2h-.2c-1.2-.8-2.2-1.2-3.2-1.2s-1.9.7-1.9,1.3c0,1.1.8,1.4,3,1.9,2.9.8,4,1.8,4,3.7s-1.8,3.9-4.6,3.9Z"/>
  <rect class="cls-1" x="142.5" y="108.7" width="2.5" height="12.7"/>
  <path class="cls-1" d="M161.9,121.7c-3.8,0-6.7-2.8-6.7-6.5s3-6.6,6.8-6.6,6.7,2.8,6.7,6.5-3,6.6-6.8,6.6ZM161.9,110.8c-2.4,0-4.1,1.8-4.1,4.3s1.8,4.3,4.2,4.3,4.1-1.8,4.1-4.3-1.8-4.3-4.2-4.3Z"/>
  <polygon class="cls-1" points="187.1 121.4 180.5 112.7 180.5 121.4 178 121.4 178 108.7 180.4 108.7 186.8 117.2 186.8 108.7 189.3 108.7 189.3 121.4 187.1 121.4"/>
  <path class="cls-1" d="M209.2,121.4l-1.2-2.9h-5.8l-1.2,2.9h-2.5l5.4-12.8h2.4l5.4,12.8h-2.6ZM207.2,116.3l-2-5-2,5h4.1Z"/>
  <polygon class="cls-1" points="221.1 121.4 221.1 108.7 223.6 108.7 223.6 119.2 230.1 119.2 230.1 121.4 221.1 121.4"/>
</svg>