<?xml version="1.0" encoding="UTF-8"?>
<svg id="svg10428" xmlns="http://www.w3.org/2000/svg" xmlns:svg="http://www.w3.org/2000/svg" version="1.1" viewBox="0 0 433.9 244.8">
  <defs>
    <style>
      .cls-1 {
        fill: #fff;
        fill-rule: evenodd;
        stroke-width: 0px;
      }
    </style>
  </defs>
  <g id="layer1">
    <g id="g10459">
      <path id="path5197" class="cls-1" d="M216.9,3.5c117.8,0,213.4,53.3,213.4,118.9s-95.6,118.9-213.4,118.9S3.5,188.1,3.5,122.4,99.2,3.5,216.9,3.5ZM216.9,14.3C105.1,14.3,14.3,62.8,14.3,122.4s90.8,108.1,202.6,108.1,202.6-48.4,202.6-108.1S328.7,14.3,216.9,14.3ZM179.4,133.8h-42c.5,10.3,6.3,15.1,15,15.1s10.9-3.6,12-7.3h13.8c-3.5,12.5-13.8,18.3-26.4,18.3-17.9,0-29-12.3-29-29.9s11.8-30,29-30,28.7,16.2,27.6,33.7ZM151.4,110.8c-8.7,0-13.2,5.8-13.9,13.3h27.3c-1-7.9-4.4-13.3-13.4-13.3ZM361.3,133.8h-42c.4,10.3,6.3,15.1,14.9,15.1s10.9-3.6,12.1-7.3h13.8c-3.5,12.5-13.8,18.3-26.4,18.3-17.9,0-29-12.3-29-29.9s11.8-30,29-30,28.7,16.2,27.6,33.7ZM333.3,110.8c-8.7,0-13.2,5.8-13.9,13.3h27.3c-1-7.9-4.4-13.3-13.4-13.3ZM49.4,158.4h15.6v-33.8h33.7v33.8h15.6v-78.5h-15.6v32.2h-33.7v-32.2h-15.6v78.5ZM188,158.4h14.7v-30.7c0-11.5,4.1-16.2,12.5-16.2s10.5,4.6,10.5,13.9v33h14.6v-34.9c0-14.1-4.2-23.4-20.8-23.4s-13.4,3.1-17.3,9.4h-.3v-7.9h-13.9v56.8ZM252.9,158.4h14.6v-30.7l21.6,30.7h18.2l-23.8-31.8,21.1-24.9h-17.5l-19.7,24.5v-46.3h-14.6v78.5ZM369.9,158.4h14.6v-78.5h-14.6v78.5"/>
    </g>
  </g>
</svg>