<?xml version="1.0" encoding="UTF-8"?>
<svg id="Layer_1" data-name="Layer 1" xmlns="http://www.w3.org/2000/svg" xmlns:xlink="http://www.w3.org/1999/xlink" version="1.1" viewBox="0 0 345.9 347.8">
  <defs>
    <style>
      .cls-1 {
        clip-path: url(#clippath);
      }

      .cls-2, .cls-3 {
        fill: #fff;
      }

      .cls-4 {
        clip-path: url(#clippath-1);
      }

      .cls-5 {
        clip-path: url(#clippath-4);
      }

      .cls-6 {
        clip-path: url(#clippath-3);
      }

      .cls-7 {
        clip-path: url(#clippath-2);
      }

      .cls-8 {
        clip-path: url(#clippath-7);
      }

      .cls-9 {
        clip-path: url(#clippath-8);
      }

      .cls-10 {
        clip-path: url(#clippath-6);
      }

      .cls-11 {
        clip-path: url(#clippath-5);
      }

      .cls-12 {
        clip-path: url(#clippath-9);
      }

      .cls-13 {
        fill: #000;
      }

      .cls-13, .cls-3 {
        stroke-width: 0px;
      }

      .cls-14 {
        clip-path: url(#clippath-20);
      }

      .cls-15 {
        clip-path: url(#clippath-21);
      }

      .cls-16 {
        clip-path: url(#clippath-24);
      }

      .cls-17 {
        clip-path: url(#clippath-23);
      }

      .cls-18 {
        clip-path: url(#clippath-22);
      }

      .cls-19 {
        clip-path: url(#clippath-25);
      }

      .cls-20 {
        clip-path: url(#clippath-27);
      }

      .cls-21 {
        clip-path: url(#clippath-28);
      }

      .cls-22 {
        clip-path: url(#clippath-26);
      }

      .cls-23 {
        clip-path: url(#clippath-29);
      }

      .cls-24 {
        clip-path: url(#clippath-32);
      }

      .cls-25 {
        clip-path: url(#clippath-30);
      }

      .cls-26 {
        clip-path: url(#clippath-31);
      }

      .cls-27 {
        clip-path: url(#clippath-14);
      }

      .cls-28 {
        clip-path: url(#clippath-13);
      }

      .cls-29 {
        clip-path: url(#clippath-12);
      }

      .cls-30 {
        clip-path: url(#clippath-10);
      }

      .cls-31 {
        clip-path: url(#clippath-15);
      }

      .cls-32 {
        clip-path: url(#clippath-17);
      }

      .cls-33 {
        clip-path: url(#clippath-16);
      }

      .cls-34 {
        clip-path: url(#clippath-19);
      }

      .cls-35 {
        clip-path: url(#clippath-11);
      }

      .cls-36 {
        clip-path: url(#clippath-18);
      }
    </style>
    <clipPath id="clippath">
      <path class="cls-3" d="M205.6,190.6c4.1-5.2,8.1-14.3,0-26.4h0c-7.6-11.5-20.5-11.8-28.9-3.5h0c-1.2,1.2-2.3,2.6-3.3,4.1h0c-1-1.5-2.1-2.9-3.3-4h0c-8.4-8.3-21.1-7.9-29,3.4h0c-8,11.3-4.1,21.2,0,26.4h0l32.3,35.6,32.2-35.6Z"/>
    </clipPath>
    <clipPath id="clippath-1">
      <path class="cls-3" d="M204.9,190.6c1.8-2.3,3.6-5.4,4.2-9.1h0c1-5.2-.5-11.2-5.2-17.5h0c-7.5-10.1-19.2-10.4-27.1-2.7h0c-1.1,1.1-2.2,2.4-3.1,3.8h0c-.9-1.3-2-2.5-3.1-3.5h0c-1.5-1.5-3.4-2.2-5.1-3.1h0c-1.9-1-4.3-2-6.3-2.1h0c-5.7-.8-11.8,1.7-16.5,7.5h0c-4.8,6-6.1,12.1-5.2,17.5h0c.7,3.7,2.4,6.9,4.2,9.2h0s13.8,15.2,14.4,16h0c.5.6,16.9,18.7,17.2,19h0c.5-.6,31.5-35,31.5-35"/>
    </clipPath>
    <clipPath id="clippath-2">
      <path class="cls-3" d="M204.1,190.7c1.9-2.4,3.6-5.6,4.2-9.4h0c.9-5.7-1.3-11.6-6.2-17.5h0c-7.4-8.8-18-9.2-25.3-2h0c-1.1,1-2,2.2-2.9,3.6h0c-.9-1.1-1.8-2.1-2.8-2.9h0c-1.3-1.3-3.3-1.5-4.8-2.3h0c-1.7-.9-4.1-2.2-5.9-2.3h0c-5.4-1.2-11.3.9-16.1,6h0c-5,5.4-7,11.6-6.1,17.4h0c.6,3.8,2.3,7.1,4.2,9.5h0s12.9,14.2,14.1,15.7h0c1,1.1,16.2,17.9,16.8,18.7h0c1.1-1.2,30.9-34.4,30.9-34.4"/>
    </clipPath>
    <clipPath id="clippath-3">
      <path class="cls-3" d="M203.4,190.8c2-2.5,3.7-5.8,4.2-9.7h0c.8-6.1-2.1-12.1-7.2-17.4h0c-7.1-7.4-16.7-7.8-23.5-1.3h0c-1,1-1.9,2-2.7,3.3h0c-.8-.9-1.7-1.7-2.6-2.4h0c-1.1-1.1-3.2-.8-4.6-1.5h0c-1.5-.7-3.9-2.5-5.5-2.6h0c-5-1.7-10.8,0-15.6,4.4h0c-5.3,4.8-7.9,11.1-7.1,17.3h0c.5,3.9,2.2,7.3,4.2,9.8h0s11.9,13.2,13.8,15.4h0c1.5,1.7,15.4,17.2,16.5,18.4h0c1.6-1.8,30.2-33.7,30.2-33.7"/>
    </clipPath>
    <clipPath id="clippath-4">
      <path class="cls-3" d="M202.7,190.8c2.1-2.6,3.8-6.1,4.2-10.1h0c.7-6.6-2.8-12.5-8.1-17.3h0c-6.8-6.1-15.4-6.5-21.7-.5h0c-.9.9-1.8,1.9-2.5,3h0c-.7-.7-1.5-1.3-2.4-1.8h0c-.6-.6-1.5-.5-2.4-.5h0c-.7,0-1.4,0-1.9-.2h0c-1.3-.6-3.8-2.8-5.1-2.9h0c-4.7-2.1-10.3-.8-15.2,2.9h0c-5.6,4.2-8.8,10.6-8.1,17.2h0c.4,4,2.1,7.6,4.2,10.1h0s11,12.2,13.4,15.1h0c2,2.3,14.7,16.4,16.1,18h0c2.1-2.4,29.5-33.1,29.5-33.1"/>
    </clipPath>
    <clipPath id="clippath-5">
      <path class="cls-3" d="M201.9,190.9c2.2-2.7,3.9-6.3,4.2-10.4h0c.6-7-3.5-12.9-9.1-17.2h0c-6.4-4.9-14.2-5.2-19.9.2h0c-.8.8-1.6,1.7-2.3,2.7h0c-.7-.5-1.4-.9-2.2-1.2h0c-.4-.4-1.3-.2-2.2,0h0c-.7.2-1.4.3-1.9.1h0c-1.1-.5-3.6-3-4.7-3.1h0c-4.4-2.5-9.9-1.6-14.7,1.3h0c-5.9,3.7-9.7,10.1-9.1,17.2h0c.3,4.1,2,7.8,4.2,10.5h0s10.1,11.2,13.1,14.8h0c2.5,2.9,14,15.7,15.7,17.7h0c2.6-3,28.8-32.5,28.8-32.5"/>
    </clipPath>
    <clipPath id="clippath-6">
      <path class="cls-3" d="M201.2,190.9c2.3-2.8,3.9-6.5,4.2-10.7h0c.5-7.5-4.1-13.4-10.1-17.1h0c-5.9-3.7-12.9-3.9-18.1,1h0c-.8.7-1.5,1.5-2.1,2.4h0c-.6-.3-1.3-.5-1.9-.7h0c-.3-.3-1.2,0-2,.4h0c-.7.3-1.4.7-1.8.5h0c-.9-.4-3.4-3.3-4.3-3.4h0c-4-3-9.5-2.5-14.3-.2h0c-6.3,3-10.6,9.6-10.1,17.1h0c.3,4.2,1.9,8,4.2,10.8h0s9.1,10.2,12.8,14.5h0c3,3.4,13.3,15,15.3,17.3h0c3.2-3.6,28.1-31.8,28.1-31.8"/>
    </clipPath>
    <clipPath id="clippath-7">
      <path class="cls-3" d="M200.4,191c2.4-2.9,4-6.8,4.2-11h0c.4-7.9-4.7-13.9-11.1-17h0c-5.3-2.6-11.6-2.6-16.2,1.7h0c-.7.6-1.3,1.4-1.9,2.2h0c-.6-.1-1.1-.2-1.7-.1h0c-.3-.3-1,.3-1.8.8h0c-.7.5-1.4,1-1.7.8h0c-.7-.3-3.3-3.6-3.9-3.6h0c-3.7-3.4-9.1-3.4-13.8-1.8h0c-6.6,2.4-11.4,9.1-11,17h0c.2,4.3,1.8,8.2,4.2,11.1h0s8.2,9.2,12.5,14.2h0c3.5,4,12.6,14.2,15,17h0c3.7-4.3,27.4-31.2,27.4-31.2"/>
    </clipPath>
    <clipPath id="clippath-8">
      <path class="cls-3" d="M199.7,191.1c2.5-3,4-7,4.2-11.4h0c.2-8.3-5.2-14.6-12-16.9h0c-4.7-1.6-10.4-1.3-14.4,2.5h0c-.6.6-1.2,1.2-1.7,1.9h0c-.5,0-1,.2-1.5.4h0c-.2-.2-.9.5-1.7,1.2h0c-.7.7-1.4,1.3-1.6,1.2h0c-.4-.2-3.1-3.9-3.5-3.9h0c-3.3-3.8-8.7-4.4-13.4-3.3h0c-7,1.6-12.3,8.6-12,16.9h0c.1,4.4,1.7,8.4,4.2,11.4h0s7.3,8.2,12.2,13.9h0c4,4.6,11.9,13.5,14.6,16.6h0c4.2-4.9,26.7-30.6,26.7-30.6"/>
    </clipPath>
    <clipPath id="clippath-9">
      <path class="cls-3" d="M198.9,191.1c2.6-3.1,4.1-7.2,4.2-11.7h0c.1-8.8-5.7-15.5-13-16.9h0c-4-.8-9.1,0-12.6,3.2h0c-.5.5-1,1-1.5,1.6h0c-.4.3-.9.6-1.3,1h0c0,0-.8.8-1.5,1.6h0c-.7.8-1.4,1.6-1.5,1.6h0c-.2-.1-2.9-4.1-3.1-4.2h0c-3-4.3-8.3-5.4-12.9-4.9h0c-7.4.8-13.1,8.1-13,16.9h0c0,4.5,1.6,8.6,4.2,11.7h0s6.3,7.2,11.8,13.6h0c4.5,5.2,11.1,12.8,14.2,16.3h0c4.7-5.5,26.1-29.9,26.1-29.9"/>
    </clipPath>
    <clipPath id="clippath-10">
      <path class="cls-3" d="M198.2,191.2c2.7-3.2,4.2-7.4,4.2-12h0c0-9.2-6.3-16.8-14-16.8h0c-4.6,0-10.6,2.2-13.2,6.8h0l-2.7,4-2.7-4.4c-2.6-4.7-7.9-6.4-12.5-6.4h0c-7.7,0-14,7.5-14,16.8h0c0,4.6,1.5,8.9,4.2,12h0s5.4,6.2,11.5,13.3h0c5,5.7,10.4,12,13.9,16h0c5.3-6.1,25.4-29.3,25.4-29.3"/>
    </clipPath>
    <clipPath id="clippath-11">
      <path class="cls-3" d="M251.9,119.8c4.1-5.2,8.1-14.3,0-26.4h0c-7.7-11.4-20.5-11.7-28.9-3.5h0c-1.2,1.2-2.3,2.6-3.3,4.1h0c-1-1.5-2.1-2.9-3.3-4h0c-8.4-8.3-21.1-7.9-29,3.4h0c-8,11.3-4.1,21.2,0,26.4h0l32.3,35.6,32.2-35.6Z"/>
    </clipPath>
    <clipPath id="clippath-12">
      <path class="cls-3" d="M251.1,119.8c1.8-2.3,3.6-5.4,4.2-9.1h0c1-5.2-.5-11.2-5.2-17.6h0c-7.5-10.1-19.3-10.4-27.1-2.7h0c-1.1,1.1-2.2,2.4-3.1,3.8h0c-.9-1.3-1.9-2.5-3.1-3.5h0c-1.5-1.5-3.4-2.2-5.1-3.1h0c-1.9-1-4.3-2-6.4-2.1h0c-5.7-.8-11.8,1.7-16.5,7.5h0c-4.8,6-6.1,12.1-5.2,17.5h0c.7,3.7,2.4,6.9,4.2,9.2h0s13.8,15.2,14.4,15.9h0c.5.6,16.9,18.6,17.2,19h0c.5-.6,31.5-35,31.5-35"/>
    </clipPath>
    <clipPath id="clippath-13">
      <path class="cls-3" d="M250.4,119.9c1.9-2.4,3.7-5.6,4.2-9.4h0c.9-5.7-1.3-11.6-6.2-17.5h0c-7.4-8.7-18-9.1-25.3-2h0c-1.1,1-2,2.2-2.9,3.6h0c-.9-1.1-1.8-2.1-2.8-2.9h0c-1.3-1.3-3.3-1.5-4.8-2.3h0c-1.7-.9-4.1-2.2-6-2.3h0c-5.4-1.2-11.3.9-16.1,6h0c-5,5.4-7,11.6-6.1,17.4h0c.6,3.8,2.3,7.1,4.2,9.5h0s12.9,14.2,14.1,15.6h0c1,1.2,16.2,17.9,16.8,18.7h0c1.1-1.2,30.9-34.4,30.9-34.4"/>
    </clipPath>
    <clipPath id="clippath-14">
      <path class="cls-3" d="M249.6,119.9c2-2.5,3.7-5.9,4.2-9.8h0c.8-6.1-2.1-12.1-7.2-17.4h0c-7.1-7.4-16.7-7.8-23.5-1.2h0c-1,1-1.9,2.1-2.7,3.3h0c-.8-.9-1.7-1.7-2.6-2.4h0c-1.1-1.1-3.2-.8-4.6-1.5h0c-1.5-.8-3.9-2.5-5.5-2.6h0c-5-1.7-10.8,0-15.6,4.4h0c-5.3,4.8-7.9,11.1-7.1,17.3h0c.5,3.9,2.2,7.3,4.2,9.8h0s11.9,13.2,13.8,15.4h0c1.5,1.7,15.4,17.2,16.5,18.4h0c1.6-1.8,30.2-33.7,30.2-33.7"/>
    </clipPath>
    <clipPath id="clippath-15">
      <path class="cls-3" d="M248.9,120c2.1-2.6,3.8-6.1,4.2-10.1h0c.7-6.6-2.8-12.5-8.1-17.3h0c-6.8-6.1-15.4-6.5-21.7-.5h0c-.9.9-1.8,1.9-2.5,3h0c-.7-.7-1.6-1.3-2.4-1.8h0c-.6-.6-1.5-.5-2.4-.5h0c-.7,0-1.4,0-1.9-.2h0c-1.3-.6-3.8-2.8-5.2-2.9h0c-4.7-2.1-10.3-.8-15.2,2.9h0c-5.6,4.3-8.8,10.6-8.1,17.2h0c.4,4,2.1,7.6,4.2,10.1h0s11,12.2,13.4,15.1h0c2,2.3,14.7,16.4,16.1,18h0c2.1-2.4,29.5-33.1,29.5-33.1"/>
    </clipPath>
    <clipPath id="clippath-16">
      <path class="cls-3" d="M248.2,120.1c2.2-2.7,3.9-6.3,4.2-10.4h0c.6-7-3.5-12.9-9.1-17.2h0c-6.4-4.9-14.2-5.2-19.9.2h0c-.8.8-1.6,1.7-2.3,2.7h0c-.7-.5-1.4-.9-2.2-1.2h0c-.4-.4-1.3-.2-2.2,0h0c-.7.2-1.4.3-1.9.1h0c-1.1-.5-3.6-3.1-4.7-3.1h0c-4.4-2.5-9.9-1.6-14.7,1.3h0c-5.9,3.7-9.7,10.1-9.1,17.2h0c.3,4.1,2,7.8,4.2,10.5h0s10.1,11.2,13.1,14.8h0c2.5,2.9,14,15.7,15.7,17.7h0c2.6-3,28.8-32.5,28.8-32.5"/>
    </clipPath>
    <clipPath id="clippath-17">
      <path class="cls-3" d="M247.4,120.1c2.3-2.8,3.9-6.5,4.2-10.7h0c.5-7.5-4.1-13.4-10.1-17.1h0c-5.8-3.7-12.9-3.9-18,1h0c-.8.7-1.5,1.5-2.1,2.5h0c-.6-.3-1.3-.5-2-.7h0c-.3-.3-1.2,0-2,.4h0c-.7.3-1.4.6-1.8.5h0c-.9-.4-3.4-3.3-4.3-3.4h0c-4-3-9.5-2.5-14.3-.2h0c-6.3,3-10.5,9.6-10.1,17.1h0c.3,4.2,1.9,8,4.2,10.8h0s9.1,10.2,12.8,14.5h0c3,3.4,13.3,15,15.3,17.3h0c3.2-3.7,28.1-31.8,28.1-31.8"/>
    </clipPath>
    <clipPath id="clippath-18">
      <path class="cls-3" d="M246.7,120.2c2.4-2.9,4-6.8,4.2-11h0c.4-7.9-4.7-13.9-11.1-17h0c-5.3-2.6-11.6-2.6-16.2,1.7h0c-.7.7-1.3,1.4-1.9,2.2h0c-.6-.1-1.2-.2-1.7-.1h0c-.3-.3-1,.3-1.8.8h0c-.7.5-1.4,1-1.7.8h0c-.6-.3-3.3-3.6-3.9-3.6h0c-3.7-3.4-9.1-3.5-13.8-1.8h0c-6.6,2.4-11.4,9.1-11,17h0c.2,4.3,1.8,8.2,4.2,11.1h0s8.2,9.2,12.5,14.2h0c3.5,4,12.6,14.2,15,17h0c3.7-4.3,27.4-31.2,27.4-31.2"/>
    </clipPath>
    <clipPath id="clippath-19">
      <path class="cls-3" d="M245.9,120.2c2.5-3,4.1-7,4.2-11.4h0c.2-8.4-5.2-14.6-12-16.9h0c-4.7-1.6-10.4-1.3-14.4,2.4h0c-.6.6-1.2,1.2-1.7,1.9h0c-.5,0-1,.2-1.5.4h0c-.2-.2-.9.5-1.7,1.2h0c-.7.7-1.4,1.3-1.6,1.2h0c-.4-.2-3.1-3.9-3.5-3.9h0c-3.3-3.8-8.7-4.4-13.4-3.3h0c-7,1.6-12.3,8.5-12,16.9h0c.1,4.4,1.7,8.4,4.2,11.4h0s7.2,8.2,12.2,13.9h0c4,4.6,11.9,13.5,14.6,16.6h0c4.2-4.9,26.7-30.6,26.7-30.6"/>
    </clipPath>
    <clipPath id="clippath-20">
      <path class="cls-3" d="M245.2,120.3c2.6-3.1,4.1-7.2,4.2-11.7h0c.1-8.8-5.7-15.5-13-16.9h0c-4.1-.8-9.1,0-12.6,3.2h0c-.5.5-1,1-1.5,1.6h0c-.5.3-.9.6-1.3,1h0c0,0-.8.8-1.5,1.6h0c-.7.8-1.4,1.7-1.5,1.6h0c-.2-.1-2.9-4.1-3.1-4.2h0c-3-4.3-8.3-5.4-12.9-4.9h0c-7.4.9-13.1,8-13,16.9h0c0,4.5,1.6,8.6,4.2,11.7h0s6.3,7.2,11.8,13.6h0c4.5,5.2,11.2,12.8,14.2,16.3h0c4.7-5.5,26-29.9,26-29.9"/>
    </clipPath>
    <clipPath id="clippath-21">
      <path class="cls-3" d="M244.4,120.3c2.7-3.2,4.2-7.5,4.2-12h0c0-9.2-6.3-16.8-14-16.8h0c-4.7,0-10.6,2.2-13.2,6.8h0l-2.7,4-2.7-4.4c-2.6-4.7-7.9-6.4-12.5-6.4h0c-7.7,0-14,7.5-14,16.8h0c0,4.6,1.5,8.9,4.2,12h0s5.4,6.2,11.5,13.3h0c5,5.7,10.4,12,13.9,16h0c5.3-6.1,25.4-29.3,25.4-29.3"/>
    </clipPath>
    <clipPath id="clippath-22">
      <path class="cls-3" d="M157.7,119.8c4.1-5.2,8.1-14.3,0-26.4h0c-7.6-11.4-20.5-11.7-28.9-3.5h0c-1.2,1.2-2.3,2.6-3.3,4.1h0c-1-1.5-2.1-2.9-3.3-4h0c-8.4-8.3-21.1-7.9-29,3.4h0c-8,11.3-4.1,21.2,0,26.4h0l32.3,35.6,32.2-35.6Z"/>
    </clipPath>
    <clipPath id="clippath-23">
      <path class="cls-3" d="M156.9,119.8c1.8-2.3,3.6-5.4,4.3-9.1h0c1-5.2-.5-11.2-5.2-17.6h0c-7.5-10.1-19.2-10.4-27.1-2.7h0c-1.1,1.1-2.2,2.4-3.1,3.8h0c-.9-1.3-2-2.5-3.1-3.5h0c-1.5-1.5-3.4-2.2-5.1-3.1h0c-1.9-1-4.3-2-6.4-2.1h0c-5.7-.8-11.8,1.7-16.5,7.5h0c-4.8,6-6.1,12.1-5.2,17.5h0c.7,3.7,2.4,6.9,4.2,9.2h0s13.8,15.2,14.4,15.9h0c.5.6,16.9,18.6,17.2,19h0c.5-.6,31.5-35,31.5-35"/>
    </clipPath>
    <clipPath id="clippath-24">
      <path class="cls-3" d="M156.2,119.9c1.9-2.4,3.7-5.6,4.2-9.4h0c.9-5.7-1.3-11.6-6.2-17.5h0c-7.4-8.7-18-9.1-25.3-2h0c-1.1,1-2.1,2.2-2.9,3.6h0c-.9-1.1-1.8-2.1-2.8-2.9h0c-1.3-1.3-3.3-1.5-4.8-2.3h0c-1.7-.8-4.1-2.2-5.9-2.3h0c-5.4-1.2-11.3.9-16.1,6h0c-5,5.4-7,11.6-6.1,17.4h0c.6,3.8,2.3,7.1,4.2,9.5h0s12.9,14.2,14.1,15.6h0c1,1.2,16.2,17.9,16.8,18.7h0c1.1-1.2,30.9-34.4,30.9-34.4"/>
    </clipPath>
    <clipPath id="clippath-25">
      <path class="cls-3" d="M155.5,119.9c2-2.5,3.7-5.9,4.2-9.8h0c.8-6.1-2.1-12.1-7.2-17.4h0c-7.1-7.4-16.7-7.8-23.5-1.3h0c-1,1-1.9,2.1-2.7,3.3h0c-.8-.9-1.7-1.7-2.6-2.4h0c-1.1-1.1-3.2-.8-4.6-1.5h0c-1.5-.7-3.9-2.5-5.6-2.6h0c-5-1.7-10.8,0-15.6,4.4h0c-5.3,4.8-7.9,11.1-7.1,17.3h0c.5,3.9,2.2,7.3,4.2,9.8h0s11.9,13.2,13.8,15.4h0c1.5,1.7,15.4,17.2,16.5,18.4h0c1.6-1.8,30.2-33.7,30.2-33.7"/>
    </clipPath>
    <clipPath id="clippath-26">
      <path class="cls-3" d="M154.7,120c2.1-2.6,3.8-6.1,4.2-10.1h0c.7-6.6-2.8-12.5-8.2-17.3h0c-6.8-6.1-15.4-6.5-21.7-.5h0c-.9.9-1.8,1.9-2.5,3h0c-.7-.7-1.6-1.3-2.4-1.8h0c-.6-.6-1.5-.5-2.4-.5h0c-.7,0-1.4,0-1.9-.2h0c-1.3-.6-3.8-2.8-5.1-2.9h0c-4.7-2.1-10.3-.8-15.2,2.9h0c-5.6,4.2-8.8,10.6-8.1,17.2h0c.4,4,2.1,7.6,4.2,10.1h0s11,12.2,13.4,15.1h0c2,2.3,14.7,16.4,16.1,18h0c2.1-2.4,29.5-33.1,29.5-33.1"/>
    </clipPath>
    <clipPath id="clippath-27">
      <path class="cls-3" d="M154,120.1c2.2-2.7,3.9-6.3,4.2-10.4h0c.6-7-3.5-12.9-9.1-17.2h0c-6.4-4.9-14.2-5.2-19.9.2h0c-.8.8-1.6,1.7-2.3,2.7h0c-.7-.5-1.4-.9-2.2-1.2h0c-.4-.4-1.3-.2-2.2,0h0c-.7.2-1.4.3-1.9.1h0c-1.1-.5-3.6-3-4.8-3.1h0c-4.4-2.5-9.9-1.6-14.7,1.3h0c-5.9,3.7-9.7,10.1-9.1,17.2h0c.3,4.1,2,7.8,4.2,10.5h0s10.1,11.2,13.1,14.8h0c2.5,2.9,14,15.7,15.7,17.7h0c2.6-3,28.8-32.5,28.8-32.5"/>
    </clipPath>
    <clipPath id="clippath-28">
      <path class="cls-3" d="M153.2,120.1c2.3-2.8,3.9-6.5,4.2-10.7h0c.5-7.5-4.1-13.4-10.1-17.1h0c-5.8-3.7-12.9-3.9-18,1h0c-.8.7-1.5,1.5-2.1,2.5h0c-.6-.3-1.3-.6-1.9-.7h0c-.3-.3-1.2,0-2,.4h0c-.7.3-1.4.6-1.8.5h0c-.9-.4-3.4-3.3-4.3-3.4h0c-4-3-9.5-2.5-14.3-.2h0c-6.3,3-10.6,9.6-10.1,17.1h0c.3,4.2,1.9,8,4.2,10.8h0s9.1,10.2,12.8,14.5h0c3,3.4,13.3,15,15.3,17.3h0c3.2-3.7,28.1-31.8,28.1-31.8"/>
    </clipPath>
    <clipPath id="clippath-29">
      <path class="cls-3" d="M152.5,120.2c2.4-2.9,4-6.8,4.2-11h0c.4-7.9-4.7-13.9-11.1-17h0c-5.3-2.6-11.6-2.6-16.2,1.7h0c-.7.6-1.3,1.4-1.9,2.2h0c-.6-.1-1.2-.2-1.7-.1h0c-.3-.3-1,.3-1.8.8h0c-.7.5-1.4,1-1.7.8h0c-.6-.3-3.3-3.6-3.9-3.6h0c-3.7-3.4-9.1-3.5-13.8-1.8h0c-6.6,2.4-11.4,9.1-11,17h0c.2,4.3,1.8,8.2,4.2,11.1h0s8.2,9.2,12.5,14.2h0c3.5,4,12.6,14.2,15,17h0c3.7-4.3,27.4-31.2,27.4-31.2"/>
    </clipPath>
    <clipPath id="clippath-30">
      <path class="cls-3" d="M151.7,120.2c2.5-3,4.1-7,4.2-11.4h0c.2-8.4-5.2-14.6-12-16.9h0c-4.6-1.6-10.4-1.3-14.4,2.4h0c-.6.6-1.2,1.2-1.7,1.9h0c-.5,0-1,.2-1.5.4h0c-.2-.2-.9.5-1.7,1.2h0c-.7.7-1.4,1.3-1.6,1.2h0c-.4-.2-3.1-3.9-3.5-3.9h0c-3.3-3.8-8.7-4.4-13.4-3.3h0c-7,1.6-12.3,8.5-12,16.9h0c.1,4.4,1.7,8.4,4.2,11.4h0s7.2,8.2,12.2,13.9h0c4,4.6,11.9,13.5,14.6,16.6h0c4.2-4.9,26.7-30.6,26.7-30.6"/>
    </clipPath>
    <clipPath id="clippath-31">
      <path class="cls-3" d="M151,120.3c2.6-3.1,4.1-7.2,4.2-11.7h0c.1-8.8-5.7-15.5-13-16.9h0c-4-.8-9.1,0-12.6,3.2h0c-.5.5-1.1,1-1.5,1.6h0c-.5.3-.9.6-1.3,1h0c0,0-.8.8-1.5,1.6h0c-.7.8-1.4,1.7-1.5,1.6h0c-.2-.1-2.9-4.1-3.1-4.2h0c-3-4.3-8.3-5.4-12.9-4.9h0c-7.4.9-13.1,8-13,16.9h0c0,4.5,1.6,8.6,4.2,11.7h0s6.3,7.2,11.8,13.6h0c4.5,5.2,11.2,12.8,14.2,16.3h0c4.7-5.5,26.1-29.9,26.1-29.9"/>
    </clipPath>
    <clipPath id="clippath-32">
      <path class="cls-3" d="M150.3,120.3c2.7-3.2,4.2-7.5,4.2-12h0c0-9.2-6.3-16.8-14-16.8h0c-4.6,0-10.6,2.2-13.2,6.8h0l-2.7,4-2.7-4.4c-2.6-4.7-7.9-6.4-12.5-6.4h0c-7.7,0-14,7.5-14,16.8h0c0,4.6,1.5,8.9,4.2,12h0s5.4,6.2,11.5,13.3h0c5,5.7,10.4,12,13.9,16h0c5.3-6.1,25.4-29.3,25.4-29.3"/>
    </clipPath>
  </defs>
  <g id="layer1">
    <g id="g5526">
      <path id="path5528" class="cls-13" d="M2.8,172.5C2.8,77.8,79.3,1.1,173.6,1.1s170.9,76.7,170.9,171.5-76.5,171.4-170.9,171.4S2.8,267.2,2.8,172.5"/>
    </g>
    <g id="g5530">
      <path id="path5532" class="cls-3" d="M13.1,172.5c0,88.8,72,161,160.5,161s160.5-72.2,160.5-161S262.1,11.5,173.6,11.5,13.1,83.7,13.1,172.5M20.4,172.5C20.4,87.7,89.1,18.7,173.6,18.7s153.3,69,153.3,153.8-68.7,153.8-153.3,153.8S20.4,257.4,20.4,172.5"/>
    </g>
    <g id="g5534">
      <path id="path5536" class="cls-3" d="M86,164.1c-10.9-12.3-16.9-28.6-16.9-45.9,0-36.2,26.7-65.6,59.4-65.6s33.7,8.3,45,22.7c11.3-14.4,27.7-22.7,45.1-22.7,32.8,0,59.4,29.4,59.4,65.6s-6,33.5-16.9,45.9l-87.5,96.8-87.7-96.8Z"/>
    </g>
    <g id="g5538">
      <path id="path5540" class="cls-13" d="M218.6,58.4c-18.9,0-35.5,10.9-45.1,27.1-9.6-16.2-26.1-27.1-45-27.1-29.6,0-53.6,26.8-53.6,59.8s5.9,31.2,15.4,42l83.3,92,83.2-92c9.5-10.8,15.4-25.7,15.4-42,0-33-24-59.8-53.6-59.8"/>
    </g>
    <g id="g5586">
      <path id="path5588" class="cls-3" d="M41.9,200.3c.1,2.2.4,5.5,1.9,9.5,3,8.4,9.1,11.2,14.5,9.2,5-1.8,6.5-6.7,4-13.7-.6-1.7-1.2-2.6-1.7-3.9l.3-.8c1.9-.3,4.3-.2,5.6.3,2.3,3.5,6.9,9,12.6,7,3.3-1.2,5-4.4,3.5-8.4-1.1-2.9-3.2-5.1-5.1-6.2-1.4-.8-1.9-1.8-.7-3,.7-.8,1.9-1.8,3.1-2,3.9,1.4,8.5,5.5,10.4,10.7,4,11.2-2.7,16.2-6,17.4-2.4.9-4.6.9-6.4.4-1.8-.6-4-1.6-7.3-4,.9,8.3-2.7,13.5-8.7,15.7-10.2,3.7-19.7-3.9-23.8-15.4-1.7-4.8-1.7-7.5-1.2-8.8.7-1.7,2.6-3.5,4.6-4.1h.4Z"/>
    </g>
    <g id="g5590">
      <path id="path5592" class="cls-3" d="M89.1,275.5c-1.5,1.1-4.2,2-6,1.8-2.4-.7-5-2.5-7.3-4.9-7.1-7.4-9.6-18.3,0-27.5,5.6-5.4,11.9-6.4,16.8-5.7,4.6.7,8.9,3,12.3,6.4,4.9,5.1,5.1,9.8,4.9,10.9-1.1,1-3,1.7-4.3,1.6-1.4,0-1.9-1.1-2.3-2.4-.7-2.3-1.9-4.3-3.5-6-4.4-4.6-11-3.9-16.3,1.1-7.1,6.7-4.8,14.6-.8,18.8,2.2,2.3,4.7,3.9,6.5,4.8v.9Z"/>
    </g>
    <g id="g5594">
      <path id="path5596" class="cls-3" d="M127.4,261.3c11.5,5.9,12.7,17.3,8.2,26-3.5,6.7-8.7,10-13.3,11-4.1.9-8.6.4-13-1.9-10-5.2-13.5-15.7-8.1-26.2,2.9-5.7,7.9-9.6,13.5-10.7,4-.9,8.5-.4,12.6,1.7h0ZM124.4,266.7c-4.6-2.4-10.5.3-14.2,7.5-4.3,8.3-2.4,14.7,2.4,17.1,4.7,2.4,10.3-.3,14.2-7.9,3.7-7.1,2.8-13.9-2.3-16.6h0Z"/>
    </g>
    <g id="g5598">
      <path id="path5600" class="cls-3" d="M146.3,279c.3-1.8-.3-3.4-1.7-4.2l.3-1.4c.6-.9,2.2-2.3,3.4-3.1.8-.2,1.7-.3,2.6,0,3.8.7,4.9,4.7,4.2,9.6,3.4-5.1,7.6-7.5,11.7-6.7,1.9.4,3.5,1.6,4,2.6-.1,1.4-1.2,4.6-2.9,6.3-.8.8-1.8,1.2-2.9.6-1.3-.7-2.2-.9-3-1-1.6-.3-4.4.7-6.5,4.2-.8,1.3-1.2,2.3-1.6,4.1-1,5.4-2.3,13-3.1,17.3-.2,1.3-.5,1.8-2.1,1.7-2.7-.1-5.1-.5-7.7-.9.9-4,1.9-9,3-15.3l2.5-13.7Z"/>
    </g>
    <g id="g5602">
      <path id="path5604" class="cls-3" d="M206.6,306.4c-.3,1.5-2.5,3.9-6.6,4.3-3.4.3-5.9-1.4-7-4.3-1.8,2.4-5.6,5.5-10,6-5.6.5-10.4-2.9-11-9.2-.8-8.8,10.3-13.1,15.8-14.7,1.5-.4,2.6-.8,3.3-1l-.2-2.2c-.3-3.3-2.5-5.9-6.6-5.5-2.7.2-5.7,2.4-7.4,3.7-2.1,1.5-3.8,1.3-5.1-1.9l-.8-1.8c2.6-2.8,8.8-6.9,14.7-7.4,7.7-.7,13.1,3.4,14,12.1.3,3.6.7,11.6,1.3,17,0,1.3,1,2.2,2.8,2,.8,0,1.7-.5,2.3-.8l.3,3.7ZM180.8,300.9c.2,2.5,1.9,4.2,4.5,4,2.8-.3,5.1-2.3,6.3-3.7.4-.5.5-1.3.4-2.9l-.5-5.6c-7.1,1.8-11,4.8-10.7,8.1h0Z"/>
    </g>
    <g id="g5606">
      <path id="path5608" class="cls-3" d="M242.7,288.1c.4,1.8.4,4.6-.5,6.3-1.4,2-4.1,3.9-7.1,5.1-9.4,4-20.5,2.5-25.7-9.7-3.1-7.2-1.8-13.4.6-17.8,2.3-4.1,6-7.3,10.4-9.2,6.5-2.7,10.9-1.3,11.9-.7.5,1.4.5,3.4,0,4.6-.5,1.2-1.7,1.4-3.1,1.3-2.3-.2-4.7.2-6.8,1.1-5.9,2.5-7.6,8.9-4.7,15.7,3.8,9,12,9.7,17.3,7.4,2.9-1.2,5.4-3,6.8-4.4l.9.2Z"/>
    </g>
    <g id="g5610">
      <path id="path5612" class="cls-3" d="M242.4,247.5c9.5-8.8,20.6-6.1,27.3,1.1,5.2,5.6,6.4,11.6,5.9,16.2-.5,4.2-2.6,8.2-6.2,11.6-8.2,7.7-19.3,7.4-27.4-1.3-4.4-4.7-6.4-10.6-5.6-16.3.5-4.1,2.6-8.1,5.9-11.2h0ZM246.4,252.1c-3.8,3.6-3.3,10,2.2,15.9,6.4,6.8,13.1,7.2,16.9,3.5,3.9-3.6,3.1-9.8-2.7-16-5.4-5.8-12.2-7.3-16.4-3.4h0Z"/>
    </g>
    <g id="g5614">
      <path id="path5616" class="cls-3" d="M297,223.2c2.8,1.5,3.9,5.9,3.8,7.1,0,.9-.7,3.7-2.2,6.5-1.7,3.3-4.6,7.8-10.2,9.8-5,1.9-10.7.6-15.5-1.9-9.3-4.8-15-15.3-9.9-25.1,4.8-9.3,13-9.4,19.6-6.3,1,.5,2,1.2,2.5,1.7,1,.8.7,4.5,0,7.7-.7,2.1-4.5,9.8-7,14.2,7,3.5,12.8,0,15.7-5.6,1.9-3.7,2.4-6.7,2.5-7.9l.8-.2ZM267.8,223.3c-1.5,3-.2,7.7,5.2,10.8,2.1-3.6,5-9.5,5.8-11.2.3-.7-.3-1.5-1.1-1.9-4-2.2-7.9-1.7-9.9,2.1h0Z"/>
    </g>
    <g id="g5618">
      <path id="path5620" class="cls-3" d="M272.7,191.4c1.1-4.8,3.8-7.1,4.5-7.6,1.5.4,3.1,1.3,3.8,2.2.8.9.8,1.8,0,3-1,1.2-1.8,2.8-2.1,4.3-.5,2.4.9,4.3,2.9,4.7,1.3.3,2.5-.3,3.9-1.6,1.2-1.1,4.4-4.9,6.7-7,2.7-2.5,5.7-3.3,9.2-2.5,8.1,1.9,10.5,9.6,8.8,17-1,4.2-3.6,8.4-6.2,9.7-1.8-.4-3.3-1.6-4-2.6-.7-1-.3-2,.5-2.8,1.4-1.6,2.8-3.7,3.4-6.4.7-2.8-.6-5.2-2.9-5.8-1.7-.4-3,.3-4.9,2.4-1.7,1.8-4.8,4.9-5.9,6-2.4,2.3-5.7,3.3-9.3,2.5-7.2-1.7-10-8.6-8.4-15.4h0Z"/>
    </g>
    <g id="g5622">
      <path id="path5624" class="cls-3" d="M242.2,234.6l-1.6,1.3c.2.8.3,1.6.2,2.3,0,.3-.2.6-.5.9-.7.6-2,1-2.9,1.3-1.4.5-3.7,1.1-4.9,2-2.3,1.8-1.2,6.3,0,8.9l1.8-1.4c-.4-1.1-.7-2.3.2-3,1.6-1.2,4.7-1.7,6.8-2.8.4-.2.8-.4,1-.6,2.1-1.6,1.3-6.5,0-8.8"/>
    </g>
    <g id="g5626">
      <path id="path5628" class="cls-3" d="M240,303.2c-1-1.8-3.2-2-6.1-1.8l.8-2.6c-1.5.3-2.9.4-4.1,1l-1.2,4.4.4,1c2.4-1,5-1.1,5.7.2.4.7,0,1.9-3,3.8-.5.3-.4.6-.3.8.3.5,1,1.2,2.1,1.1,3.8-1.6,7.3-4.9,5.7-7.9"/>
    </g>
    <g id="g5630">
      <g>
        <path class="cls-2" d="M205.6,190.6c4.1-5.2,8.1-14.3,0-26.4h0c-7.6-11.5-20.5-11.8-28.9-3.5h0c-1.2,1.2-2.3,2.6-3.3,4.1h0c-1-1.5-2.1-2.9-3.3-4h0c-8.4-8.3-21.1-7.9-29,3.4h0c-8,11.3-4.1,21.2,0,26.4h0l32.3,35.6,32.2-35.6Z"/>
        <g class="cls-1">
          <g id="g5632">
            <g id="g5638">
              <g id="g5640">
                <path id="path5648" class="cls-3" d="M205.6,190.6c4.1-5.2,8.1-14.3,0-26.4h0c-7.6-11.5-20.5-11.8-28.9-3.5h0c-1.2,1.2-2.3,2.6-3.3,4.1h0c-1-1.5-2.1-2.9-3.3-4h0c-8.4-8.3-21.1-7.9-29,3.4h0c-8,11.3-4.1,21.2,0,26.4h0l32.3,35.6,32.2-35.6Z"/>
              </g>
            </g>
          </g>
        </g>
      </g>
    </g>
    <g id="g5650">
      <g>
        <path class="cls-2" d="M204.9,190.6c1.8-2.3,3.6-5.4,4.2-9.1h0c1-5.2-.5-11.2-5.2-17.5h0c-7.5-10.1-19.2-10.4-27.1-2.7h0c-1.1,1.1-2.2,2.4-3.1,3.8h0c-.9-1.3-2-2.5-3.1-3.5h0c-1.5-1.5-3.4-2.2-5.1-3.1h0c-1.9-1-4.3-2-6.3-2.1h0c-5.7-.8-11.8,1.7-16.5,7.5h0c-4.8,6-6.1,12.1-5.2,17.5h0c.7,3.7,2.4,6.9,4.2,9.2h0s13.8,15.2,14.4,16h0c.5.6,16.9,18.7,17.2,19h0c.5-.6,31.5-35,31.5-35"/>
        <g class="cls-4">
          <g id="g5652">
            <g id="g5658">
              <g id="g5660">
                <path id="path5672" class="cls-3" d="M204.9,190.6c1.8-2.3,3.6-5.4,4.2-9.1h0c1-5.2-.5-11.2-5.2-17.5h0c-7.5-10.1-19.2-10.4-27.1-2.7h0c-1.1,1.1-2.2,2.4-3.1,3.8h0c-.9-1.3-2-2.5-3.1-3.5h0c-1.5-1.5-3.4-2.2-5.1-3.1h0c-1.9-1-4.3-2-6.3-2.1h0c-5.7-.8-11.8,1.7-16.5,7.5h0c-4.8,6-6.1,12.1-5.2,17.5h0c.7,3.7,2.4,6.9,4.2,9.2h0s13.8,15.2,14.4,16h0c.5.6,16.9,18.7,17.2,19h0c.5-.6,31.5-35,31.5-35"/>
              </g>
            </g>
          </g>
        </g>
      </g>
    </g>
    <g id="g5674">
      <g>
        <path class="cls-2" d="M204.1,190.7c1.9-2.4,3.6-5.6,4.2-9.4h0c.9-5.7-1.3-11.6-6.2-17.5h0c-7.4-8.8-18-9.2-25.3-2h0c-1.1,1-2,2.2-2.9,3.6h0c-.9-1.1-1.8-2.1-2.8-2.9h0c-1.3-1.3-3.3-1.5-4.8-2.3h0c-1.7-.9-4.1-2.2-5.9-2.3h0c-5.4-1.2-11.3.9-16.1,6h0c-5,5.4-7,11.6-6.1,17.4h0c.6,3.8,2.3,7.1,4.2,9.5h0s12.9,14.2,14.1,15.7h0c1,1.1,16.2,17.9,16.8,18.7h0c1.1-1.2,30.9-34.4,30.9-34.4"/>
        <g class="cls-7">
          <g id="g5676">
            <g id="g5682">
              <g id="g5684">
                <path id="path5696" class="cls-3" d="M204.1,190.7c1.9-2.4,3.6-5.6,4.2-9.4h0c.9-5.7-1.3-11.6-6.2-17.5h0c-7.4-8.8-18-9.2-25.3-2h0c-1.1,1-2,2.2-2.9,3.6h0c-.9-1.1-1.8-2.1-2.8-2.9h0c-1.3-1.3-3.3-1.5-4.8-2.3h0c-1.7-.9-4.1-2.2-5.9-2.3h0c-5.4-1.2-11.3.9-16.1,6h0c-5,5.4-7,11.6-6.1,17.4h0c.6,3.8,2.3,7.1,4.2,9.5h0s12.9,14.2,14.1,15.7h0c1,1.1,16.2,17.9,16.8,18.7h0c1.1-1.2,30.9-34.4,30.9-34.4"/>
              </g>
            </g>
          </g>
        </g>
      </g>
    </g>
    <g id="g5698">
      <g>
        <path class="cls-2" d="M203.4,190.8c2-2.5,3.7-5.8,4.2-9.7h0c.8-6.1-2.1-12.1-7.2-17.4h0c-7.1-7.4-16.7-7.8-23.5-1.3h0c-1,1-1.9,2-2.7,3.3h0c-.8-.9-1.7-1.7-2.6-2.4h0c-1.1-1.1-3.2-.8-4.6-1.5h0c-1.5-.7-3.9-2.5-5.5-2.6h0c-5-1.7-10.8,0-15.6,4.4h0c-5.3,4.8-7.9,11.1-7.1,17.3h0c.5,3.9,2.2,7.3,4.2,9.8h0s11.9,13.2,13.8,15.4h0c1.5,1.7,15.4,17.2,16.5,18.4h0c1.6-1.8,30.2-33.7,30.2-33.7"/>
        <g class="cls-6">
          <g id="g5700">
            <g id="g5706">
              <g id="g5708">
                <path id="path5720" class="cls-3" d="M203.4,190.8c2-2.5,3.7-5.8,4.2-9.7h0c.8-6.1-2.1-12.1-7.2-17.4h0c-7.1-7.4-16.7-7.8-23.5-1.3h0c-1,1-1.9,2-2.7,3.3h0c-.8-.9-1.7-1.7-2.6-2.4h0c-1.1-1.1-3.2-.8-4.6-1.5h0c-1.5-.7-3.9-2.5-5.5-2.6h0c-5-1.7-10.8,0-15.6,4.4h0c-5.3,4.8-7.9,11.1-7.1,17.3h0c.5,3.9,2.2,7.3,4.2,9.8h0s11.9,13.2,13.8,15.4h0c1.5,1.7,15.4,17.2,16.5,18.4h0c1.6-1.8,30.2-33.7,30.2-33.7"/>
              </g>
            </g>
          </g>
        </g>
      </g>
    </g>
    <g id="g5722">
      <g>
        <path class="cls-2" d="M202.7,190.8c2.1-2.6,3.8-6.1,4.2-10.1h0c.7-6.6-2.8-12.5-8.1-17.3h0c-6.8-6.1-15.4-6.5-21.7-.5h0c-.9.9-1.8,1.9-2.5,3h0c-.7-.7-1.5-1.3-2.4-1.8h0c-.6-.6-1.5-.5-2.4-.5h0c-.7,0-1.4,0-1.9-.2h0c-1.3-.6-3.8-2.8-5.1-2.9h0c-4.7-2.1-10.3-.8-15.2,2.9h0c-5.6,4.2-8.8,10.6-8.1,17.2h0c.4,4,2.1,7.6,4.2,10.1h0s11,12.2,13.4,15.1h0c2,2.3,14.7,16.4,16.1,18h0c2.1-2.4,29.5-33.1,29.5-33.1"/>
        <g class="cls-5">
          <g id="g5724">
            <g id="g5730">
              <g id="g5732">
                <path id="path5744" class="cls-3" d="M202.7,190.8c2.1-2.6,3.8-6.1,4.2-10.1h0c.7-6.6-2.8-12.5-8.1-17.3h0c-6.8-6.1-15.4-6.5-21.7-.5h0c-.9.9-1.8,1.9-2.5,3h0c-.7-.7-1.5-1.3-2.4-1.8h0c-.6-.6-1.5-.5-2.4-.5h0c-.7,0-1.4,0-1.9-.2h0c-1.3-.6-3.8-2.8-5.1-2.9h0c-4.7-2.1-10.3-.8-15.2,2.9h0c-5.6,4.2-8.8,10.6-8.1,17.2h0c.4,4,2.1,7.6,4.2,10.1h0s11,12.2,13.4,15.1h0c2,2.3,14.7,16.4,16.1,18h0c2.1-2.4,29.5-33.1,29.5-33.1"/>
              </g>
            </g>
          </g>
        </g>
      </g>
    </g>
    <g id="g5746">
      <g>
        <path class="cls-2" d="M201.9,190.9c2.2-2.7,3.9-6.3,4.2-10.4h0c.6-7-3.5-12.9-9.1-17.2h0c-6.4-4.9-14.2-5.2-19.9.2h0c-.8.8-1.6,1.7-2.3,2.7h0c-.7-.5-1.4-.9-2.2-1.2h0c-.4-.4-1.3-.2-2.2,0h0c-.7.2-1.4.3-1.9.1h0c-1.1-.5-3.6-3-4.7-3.1h0c-4.4-2.5-9.9-1.6-14.7,1.3h0c-5.9,3.7-9.7,10.1-9.1,17.2h0c.3,4.1,2,7.8,4.2,10.5h0s10.1,11.2,13.1,14.8h0c2.5,2.9,14,15.7,15.7,17.7h0c2.6-3,28.8-32.5,28.8-32.5"/>
        <g class="cls-11">
          <g id="g5748">
            <g id="g5754">
              <g id="g5756">
                <path id="path5768" class="cls-3" d="M201.9,190.9c2.2-2.7,3.9-6.3,4.2-10.4h0c.6-7-3.5-12.9-9.1-17.2h0c-6.4-4.9-14.2-5.2-19.9.2h0c-.8.8-1.6,1.7-2.3,2.7h0c-.7-.5-1.4-.9-2.2-1.2h0c-.4-.4-1.3-.2-2.2,0h0c-.7.2-1.4.3-1.9.1h0c-1.1-.5-3.6-3-4.7-3.1h0c-4.4-2.5-9.9-1.6-14.7,1.3h0c-5.9,3.7-9.7,10.1-9.1,17.2h0c.3,4.1,2,7.8,4.2,10.5h0s10.1,11.2,13.1,14.8h0c2.5,2.9,14,15.7,15.7,17.7h0c2.6-3,28.8-32.5,28.8-32.5"/>
              </g>
            </g>
          </g>
        </g>
      </g>
    </g>
    <g id="g5770">
      <g>
        <path class="cls-2" d="M201.2,190.9c2.3-2.8,3.9-6.5,4.2-10.7h0c.5-7.5-4.1-13.4-10.1-17.1h0c-5.9-3.7-12.9-3.9-18.1,1h0c-.8.7-1.5,1.5-2.1,2.4h0c-.6-.3-1.3-.5-1.9-.7h0c-.3-.3-1.2,0-2,.4h0c-.7.3-1.4.7-1.8.5h0c-.9-.4-3.4-3.3-4.3-3.4h0c-4-3-9.5-2.5-14.3-.2h0c-6.3,3-10.6,9.6-10.1,17.1h0c.3,4.2,1.9,8,4.2,10.8h0s9.1,10.2,12.8,14.5h0c3,3.4,13.3,15,15.3,17.3h0c3.2-3.6,28.1-31.8,28.1-31.8"/>
        <g class="cls-10">
          <g id="g5772">
            <g id="g5778">
              <g id="g5780">
                <path id="path5792" class="cls-3" d="M201.2,190.9c2.3-2.8,3.9-6.5,4.2-10.7h0c.5-7.5-4.1-13.4-10.1-17.1h0c-5.9-3.7-12.9-3.9-18.1,1h0c-.8.7-1.5,1.5-2.1,2.4h0c-.6-.3-1.3-.5-1.9-.7h0c-.3-.3-1.2,0-2,.4h0c-.7.3-1.4.7-1.8.5h0c-.9-.4-3.4-3.3-4.3-3.4h0c-4-3-9.5-2.5-14.3-.2h0c-6.3,3-10.6,9.6-10.1,17.1h0c.3,4.2,1.9,8,4.2,10.8h0s9.1,10.2,12.8,14.5h0c3,3.4,13.3,15,15.3,17.3h0c3.2-3.6,28.1-31.8,28.1-31.8"/>
              </g>
            </g>
          </g>
        </g>
      </g>
    </g>
    <g id="g5794">
      <g>
        <path class="cls-2" d="M200.4,191c2.4-2.9,4-6.8,4.2-11h0c.4-7.9-4.7-13.9-11.1-17h0c-5.3-2.6-11.6-2.6-16.2,1.7h0c-.7.6-1.3,1.4-1.9,2.2h0c-.6-.1-1.1-.2-1.7-.1h0c-.3-.3-1,.3-1.8.8h0c-.7.5-1.4,1-1.7.8h0c-.7-.3-3.3-3.6-3.9-3.6h0c-3.7-3.4-9.1-3.4-13.8-1.8h0c-6.6,2.4-11.4,9.1-11,17h0c.2,4.3,1.8,8.2,4.2,11.1h0s8.2,9.2,12.5,14.2h0c3.5,4,12.6,14.2,15,17h0c3.7-4.3,27.4-31.2,27.4-31.2"/>
        <g class="cls-8">
          <g id="g5796">
            <g id="g5802">
              <g id="g5804">
                <path id="path5816" class="cls-3" d="M200.4,191c2.4-2.9,4-6.8,4.2-11h0c.4-7.9-4.7-13.9-11.1-17h0c-5.3-2.6-11.6-2.6-16.2,1.7h0c-.7.6-1.3,1.4-1.9,2.2h0c-.6-.1-1.1-.2-1.7-.1h0c-.3-.3-1,.3-1.8.8h0c-.7.5-1.4,1-1.7.8h0c-.7-.3-3.3-3.6-3.9-3.6h0c-3.7-3.4-9.1-3.4-13.8-1.8h0c-6.6,2.4-11.4,9.1-11,17h0c.2,4.3,1.8,8.2,4.2,11.1h0s8.2,9.2,12.5,14.2h0c3.5,4,12.6,14.2,15,17h0c3.7-4.3,27.4-31.2,27.4-31.2"/>
              </g>
            </g>
          </g>
        </g>
      </g>
    </g>
    <g id="g5818">
      <g>
        <path class="cls-2" d="M199.7,191.1c2.5-3,4-7,4.2-11.4h0c.2-8.3-5.2-14.6-12-16.9h0c-4.7-1.6-10.4-1.3-14.4,2.5h0c-.6.6-1.2,1.2-1.7,1.9h0c-.5,0-1,.2-1.5.4h0c-.2-.2-.9.5-1.7,1.2h0c-.7.7-1.4,1.3-1.6,1.2h0c-.4-.2-3.1-3.9-3.5-3.9h0c-3.3-3.8-8.7-4.4-13.4-3.3h0c-7,1.6-12.3,8.6-12,16.9h0c.1,4.4,1.7,8.4,4.2,11.4h0s7.3,8.2,12.2,13.9h0c4,4.6,11.9,13.5,14.6,16.6h0c4.2-4.9,26.7-30.6,26.7-30.6"/>
        <g class="cls-9">
          <g id="g5820">
            <g id="g5826">
              <g id="g5828">
                <path id="path5840" class="cls-3" d="M199.7,191.1c2.5-3,4-7,4.2-11.4h0c.2-8.3-5.2-14.6-12-16.9h0c-4.7-1.6-10.4-1.3-14.4,2.5h0c-.6.6-1.2,1.2-1.7,1.9h0c-.5,0-1,.2-1.5.4h0c-.2-.2-.9.5-1.7,1.2h0c-.7.7-1.4,1.3-1.6,1.2h0c-.4-.2-3.1-3.9-3.5-3.9h0c-3.3-3.8-8.7-4.4-13.4-3.3h0c-7,1.6-12.3,8.6-12,16.9h0c.1,4.4,1.7,8.4,4.2,11.4h0s7.3,8.2,12.2,13.9h0c4,4.6,11.9,13.5,14.6,16.6h0c4.2-4.9,26.7-30.6,26.7-30.6"/>
              </g>
            </g>
          </g>
        </g>
      </g>
    </g>
    <g id="g5842">
      <g>
        <path class="cls-2" d="M198.9,191.1c2.6-3.1,4.1-7.2,4.2-11.7h0c.1-8.8-5.7-15.5-13-16.9h0c-4-.8-9.1,0-12.6,3.2h0c-.5.5-1,1-1.5,1.6h0c-.4.3-.9.6-1.3,1h0c0,0-.8.8-1.5,1.6h0c-.7.8-1.4,1.6-1.5,1.6h0c-.2-.1-2.9-4.1-3.1-4.2h0c-3-4.3-8.3-5.4-12.9-4.9h0c-7.4.8-13.1,8.1-13,16.9h0c0,4.5,1.6,8.6,4.2,11.7h0s6.3,7.2,11.8,13.6h0c4.5,5.2,11.1,12.8,14.2,16.3h0c4.7-5.5,26.1-29.9,26.1-29.9"/>
        <g class="cls-12">
          <g id="g5844">
            <g id="g5850">
              <g id="g5852">
                <path id="path5864" class="cls-3" d="M198.9,191.1c2.6-3.1,4.1-7.2,4.2-11.7h0c.1-8.8-5.7-15.5-13-16.9h0c-4-.8-9.1,0-12.6,3.2h0c-.5.5-1,1-1.5,1.6h0c-.4.3-.9.6-1.3,1h0c0,0-.8.8-1.5,1.6h0c-.7.8-1.4,1.6-1.5,1.6h0c-.2-.1-2.9-4.1-3.1-4.2h0c-3-4.3-8.3-5.4-12.9-4.9h0c-7.4.8-13.1,8.1-13,16.9h0c0,4.5,1.6,8.6,4.2,11.7h0s6.3,7.2,11.8,13.6h0c4.5,5.2,11.1,12.8,14.2,16.3h0c4.7-5.5,26.1-29.9,26.1-29.9"/>
              </g>
            </g>
          </g>
        </g>
      </g>
    </g>
    <g id="g5866">
      <g>
        <path class="cls-2" d="M198.2,191.2c2.7-3.2,4.2-7.4,4.2-12h0c0-9.2-6.3-16.8-14-16.8h0c-4.6,0-10.6,2.2-13.2,6.8h0l-2.7,4-2.7-4.4c-2.6-4.7-7.9-6.4-12.5-6.4h0c-7.7,0-14,7.5-14,16.8h0c0,4.6,1.5,8.9,4.2,12h0s5.4,6.2,11.5,13.3h0c5,5.7,10.4,12,13.9,16h0c5.3-6.1,25.4-29.3,25.4-29.3"/>
        <g class="cls-30">
          <g id="g5868">
            <g id="g5874">
              <g id="g5876">
                <path id="path5888" class="cls-3" d="M198.2,191.2c2.7-3.2,4.2-7.4,4.2-12h0c0-9.2-6.3-16.8-14-16.8h0c-4.6,0-10.6,2.2-13.2,6.8h0l-2.7,4-2.7-4.4c-2.6-4.7-7.9-6.4-12.5-6.4h0c-7.7,0-14,7.5-14,16.8h0c0,4.6,1.5,8.9,4.2,12h0s5.4,6.2,11.5,13.3h0c5,5.7,10.4,12,13.9,16h0c5.3-6.1,25.4-29.3,25.4-29.3"/>
              </g>
            </g>
          </g>
        </g>
      </g>
    </g>
    <g id="g5890">
      <g>
        <path class="cls-2" d="M251.9,119.8c4.1-5.2,8.1-14.3,0-26.4h0c-7.7-11.4-20.5-11.7-28.9-3.5h0c-1.2,1.2-2.3,2.6-3.3,4.1h0c-1-1.5-2.1-2.9-3.3-4h0c-8.4-8.3-21.1-7.9-29,3.4h0c-8,11.3-4.1,21.2,0,26.4h0l32.3,35.6,32.2-35.6Z"/>
        <g class="cls-35">
          <g id="g5892">
            <g id="g5898">
              <g id="g5900">
                <path id="path5908" class="cls-3" d="M251.9,119.8c4.1-5.2,8.1-14.3,0-26.4h0c-7.7-11.4-20.5-11.7-28.9-3.5h0c-1.2,1.2-2.3,2.6-3.3,4.1h0c-1-1.5-2.1-2.9-3.3-4h0c-8.4-8.3-21.1-7.9-29,3.4h0c-8,11.3-4.1,21.2,0,26.4h0l32.3,35.6,32.2-35.6Z"/>
              </g>
            </g>
          </g>
        </g>
      </g>
    </g>
    <g id="g5910">
      <g>
        <path class="cls-2" d="M251.1,119.8c1.8-2.3,3.6-5.4,4.2-9.1h0c1-5.2-.5-11.2-5.2-17.6h0c-7.5-10.1-19.3-10.4-27.1-2.7h0c-1.1,1.1-2.2,2.4-3.1,3.8h0c-.9-1.3-1.9-2.5-3.1-3.5h0c-1.5-1.5-3.4-2.2-5.1-3.1h0c-1.9-1-4.3-2-6.4-2.1h0c-5.7-.8-11.8,1.7-16.5,7.5h0c-4.8,6-6.1,12.1-5.2,17.5h0c.7,3.7,2.4,6.9,4.2,9.2h0s13.8,15.2,14.4,15.9h0c.5.6,16.9,18.6,17.2,19h0c.5-.6,31.5-35,31.5-35"/>
        <g class="cls-29">
          <g id="g5912">
            <g id="g5918">
              <g id="g5920">
                <path id="path5932" class="cls-3" d="M251.1,119.8c1.8-2.3,3.6-5.4,4.2-9.1h0c1-5.2-.5-11.2-5.2-17.6h0c-7.5-10.1-19.3-10.4-27.1-2.7h0c-1.1,1.1-2.2,2.4-3.1,3.8h0c-.9-1.3-1.9-2.5-3.1-3.5h0c-1.5-1.5-3.4-2.2-5.1-3.1h0c-1.9-1-4.3-2-6.4-2.1h0c-5.7-.8-11.8,1.7-16.5,7.5h0c-4.8,6-6.1,12.1-5.2,17.5h0c.7,3.7,2.4,6.9,4.2,9.2h0s13.8,15.2,14.4,15.9h0c.5.6,16.9,18.6,17.2,19h0c.5-.6,31.5-35,31.5-35"/>
              </g>
            </g>
          </g>
        </g>
      </g>
    </g>
    <g id="g5934">
      <g>
        <path class="cls-2" d="M250.4,119.9c1.9-2.4,3.7-5.6,4.2-9.4h0c.9-5.7-1.3-11.6-6.2-17.5h0c-7.4-8.7-18-9.1-25.3-2h0c-1.1,1-2,2.2-2.9,3.6h0c-.9-1.1-1.8-2.1-2.8-2.9h0c-1.3-1.3-3.3-1.5-4.8-2.3h0c-1.7-.9-4.1-2.2-6-2.3h0c-5.4-1.2-11.3.9-16.1,6h0c-5,5.4-7,11.6-6.1,17.4h0c.6,3.8,2.3,7.1,4.2,9.5h0s12.9,14.2,14.1,15.6h0c1,1.2,16.2,17.9,16.8,18.7h0c1.1-1.2,30.9-34.4,30.9-34.4"/>
        <g class="cls-28">
          <g id="g5936">
            <g id="g5942">
              <g id="g5944">
                <path id="path5956" class="cls-3" d="M250.4,119.9c1.9-2.4,3.7-5.6,4.2-9.4h0c.9-5.7-1.3-11.6-6.2-17.5h0c-7.4-8.7-18-9.1-25.3-2h0c-1.1,1-2,2.2-2.9,3.6h0c-.9-1.1-1.8-2.1-2.8-2.9h0c-1.3-1.3-3.3-1.5-4.8-2.3h0c-1.7-.9-4.1-2.2-6-2.3h0c-5.4-1.2-11.3.9-16.1,6h0c-5,5.4-7,11.6-6.1,17.4h0c.6,3.8,2.3,7.1,4.2,9.5h0s12.9,14.2,14.1,15.6h0c1,1.2,16.2,17.9,16.8,18.7h0c1.1-1.2,30.9-34.4,30.9-34.4"/>
              </g>
            </g>
          </g>
        </g>
      </g>
    </g>
    <g id="g5958">
      <g>
        <path class="cls-2" d="M249.6,119.9c2-2.5,3.7-5.9,4.2-9.8h0c.8-6.1-2.1-12.1-7.2-17.4h0c-7.1-7.4-16.7-7.8-23.5-1.2h0c-1,1-1.9,2.1-2.7,3.3h0c-.8-.9-1.7-1.7-2.6-2.4h0c-1.1-1.1-3.2-.8-4.6-1.5h0c-1.5-.8-3.9-2.5-5.5-2.6h0c-5-1.7-10.8,0-15.6,4.4h0c-5.3,4.8-7.9,11.1-7.1,17.3h0c.5,3.9,2.2,7.3,4.2,9.8h0s11.9,13.2,13.8,15.4h0c1.5,1.7,15.4,17.2,16.5,18.4h0c1.6-1.8,30.2-33.7,30.2-33.7"/>
        <g class="cls-27">
          <g id="g5960">
            <g id="g5966">
              <g id="g5968">
                <path id="path5980" class="cls-3" d="M249.6,119.9c2-2.5,3.7-5.9,4.2-9.8h0c.8-6.1-2.1-12.1-7.2-17.4h0c-7.1-7.4-16.7-7.8-23.5-1.2h0c-1,1-1.9,2.1-2.7,3.3h0c-.8-.9-1.7-1.7-2.6-2.4h0c-1.1-1.1-3.2-.8-4.6-1.5h0c-1.5-.8-3.9-2.5-5.5-2.6h0c-5-1.7-10.8,0-15.6,4.4h0c-5.3,4.8-7.9,11.1-7.1,17.3h0c.5,3.9,2.2,7.3,4.2,9.8h0s11.9,13.2,13.8,15.4h0c1.5,1.7,15.4,17.2,16.5,18.4h0c1.6-1.8,30.2-33.7,30.2-33.7"/>
              </g>
            </g>
          </g>
        </g>
      </g>
    </g>
    <g id="g5982">
      <g>
        <path class="cls-2" d="M248.9,120c2.1-2.6,3.8-6.1,4.2-10.1h0c.7-6.6-2.8-12.5-8.1-17.3h0c-6.8-6.1-15.4-6.5-21.7-.5h0c-.9.9-1.8,1.9-2.5,3h0c-.7-.7-1.6-1.3-2.4-1.8h0c-.6-.6-1.5-.5-2.4-.5h0c-.7,0-1.4,0-1.9-.2h0c-1.3-.6-3.8-2.8-5.2-2.9h0c-4.7-2.1-10.3-.8-15.2,2.9h0c-5.6,4.3-8.8,10.6-8.1,17.2h0c.4,4,2.1,7.6,4.2,10.1h0s11,12.2,13.4,15.1h0c2,2.3,14.7,16.4,16.1,18h0c2.1-2.4,29.5-33.1,29.5-33.1"/>
        <g class="cls-31">
          <g id="g5984">
            <g id="g5990">
              <g id="g5992">
                <path id="path6004" class="cls-3" d="M248.9,120c2.1-2.6,3.8-6.1,4.2-10.1h0c.7-6.6-2.8-12.5-8.1-17.3h0c-6.8-6.1-15.4-6.5-21.7-.5h0c-.9.9-1.8,1.9-2.5,3h0c-.7-.7-1.6-1.3-2.4-1.8h0c-.6-.6-1.5-.5-2.4-.5h0c-.7,0-1.4,0-1.9-.2h0c-1.3-.6-3.8-2.8-5.2-2.9h0c-4.7-2.1-10.3-.8-15.2,2.9h0c-5.6,4.3-8.8,10.6-8.1,17.2h0c.4,4,2.1,7.6,4.2,10.1h0s11,12.2,13.4,15.1h0c2,2.3,14.7,16.4,16.1,18h0c2.1-2.4,29.5-33.1,29.5-33.1"/>
              </g>
            </g>
          </g>
        </g>
      </g>
    </g>
    <g id="g6006">
      <g>
        <path class="cls-2" d="M248.2,120.1c2.2-2.7,3.9-6.3,4.2-10.4h0c.6-7-3.5-12.9-9.1-17.2h0c-6.4-4.9-14.2-5.2-19.9.2h0c-.8.8-1.6,1.7-2.3,2.7h0c-.7-.5-1.4-.9-2.2-1.2h0c-.4-.4-1.3-.2-2.2,0h0c-.7.2-1.4.3-1.9.1h0c-1.1-.5-3.6-3.1-4.7-3.1h0c-4.4-2.5-9.9-1.6-14.7,1.3h0c-5.9,3.7-9.7,10.1-9.1,17.2h0c.3,4.1,2,7.8,4.2,10.5h0s10.1,11.2,13.1,14.8h0c2.5,2.9,14,15.7,15.7,17.7h0c2.6-3,28.8-32.5,28.8-32.5"/>
        <g class="cls-33">
          <g id="g6008">
            <g id="g6014">
              <g id="g6016">
                <path id="path6028" class="cls-3" d="M248.2,120.1c2.2-2.7,3.9-6.3,4.2-10.4h0c.6-7-3.5-12.9-9.1-17.2h0c-6.4-4.9-14.2-5.2-19.9.2h0c-.8.8-1.6,1.7-2.3,2.7h0c-.7-.5-1.4-.9-2.2-1.2h0c-.4-.4-1.3-.2-2.2,0h0c-.7.2-1.4.3-1.9.1h0c-1.1-.5-3.6-3.1-4.7-3.1h0c-4.4-2.5-9.9-1.6-14.7,1.3h0c-5.9,3.7-9.7,10.1-9.1,17.2h0c.3,4.1,2,7.8,4.2,10.5h0s10.1,11.2,13.1,14.8h0c2.5,2.9,14,15.7,15.7,17.7h0c2.6-3,28.8-32.5,28.8-32.5"/>
              </g>
            </g>
          </g>
        </g>
      </g>
    </g>
    <g id="g6030">
      <g>
        <path class="cls-2" d="M247.4,120.1c2.3-2.8,3.9-6.5,4.2-10.7h0c.5-7.5-4.1-13.4-10.1-17.1h0c-5.8-3.7-12.9-3.9-18,1h0c-.8.7-1.5,1.5-2.1,2.5h0c-.6-.3-1.3-.5-2-.7h0c-.3-.3-1.2,0-2,.4h0c-.7.3-1.4.6-1.8.5h0c-.9-.4-3.4-3.3-4.3-3.4h0c-4-3-9.5-2.5-14.3-.2h0c-6.3,3-10.5,9.6-10.1,17.1h0c.3,4.2,1.9,8,4.2,10.8h0s9.1,10.2,12.8,14.5h0c3,3.4,13.3,15,15.3,17.3h0c3.2-3.7,28.1-31.8,28.1-31.8"/>
        <g class="cls-32">
          <g id="g6032">
            <g id="g6038">
              <g id="g6040">
                <path id="path6052" class="cls-3" d="M247.4,120.1c2.3-2.8,3.9-6.5,4.2-10.7h0c.5-7.5-4.1-13.4-10.1-17.1h0c-5.8-3.7-12.9-3.9-18,1h0c-.8.7-1.5,1.5-2.1,2.5h0c-.6-.3-1.3-.5-2-.7h0c-.3-.3-1.2,0-2,.4h0c-.7.3-1.4.6-1.8.5h0c-.9-.4-3.4-3.3-4.3-3.4h0c-4-3-9.5-2.5-14.3-.2h0c-6.3,3-10.5,9.6-10.1,17.1h0c.3,4.2,1.9,8,4.2,10.8h0s9.1,10.2,12.8,14.5h0c3,3.4,13.3,15,15.3,17.3h0c3.2-3.7,28.1-31.8,28.1-31.8"/>
              </g>
            </g>
          </g>
        </g>
      </g>
    </g>
    <g id="g6054">
      <g>
        <path class="cls-2" d="M246.7,120.2c2.4-2.9,4-6.8,4.2-11h0c.4-7.9-4.7-13.9-11.1-17h0c-5.3-2.6-11.6-2.6-16.2,1.7h0c-.7.7-1.3,1.4-1.9,2.2h0c-.6-.1-1.2-.2-1.7-.1h0c-.3-.3-1,.3-1.8.8h0c-.7.5-1.4,1-1.7.8h0c-.6-.3-3.3-3.6-3.9-3.6h0c-3.7-3.4-9.1-3.5-13.8-1.8h0c-6.6,2.4-11.4,9.1-11,17h0c.2,4.3,1.8,8.2,4.2,11.1h0s8.2,9.2,12.5,14.2h0c3.5,4,12.6,14.2,15,17h0c3.7-4.3,27.4-31.2,27.4-31.2"/>
        <g class="cls-36">
          <g id="g6056">
            <g id="g6062">
              <g id="g6064">
                <path id="path6076" class="cls-3" d="M246.7,120.2c2.4-2.9,4-6.8,4.2-11h0c.4-7.9-4.7-13.9-11.1-17h0c-5.3-2.6-11.6-2.6-16.2,1.7h0c-.7.7-1.3,1.4-1.9,2.2h0c-.6-.1-1.2-.2-1.7-.1h0c-.3-.3-1,.3-1.8.8h0c-.7.5-1.4,1-1.7.8h0c-.6-.3-3.3-3.6-3.9-3.6h0c-3.7-3.4-9.1-3.5-13.8-1.8h0c-6.6,2.4-11.4,9.1-11,17h0c.2,4.3,1.8,8.2,4.2,11.1h0s8.2,9.2,12.5,14.2h0c3.5,4,12.6,14.2,15,17h0c3.7-4.3,27.4-31.2,27.4-31.2"/>
              </g>
            </g>
          </g>
        </g>
      </g>
    </g>
    <g id="g6078">
      <g>
        <path class="cls-2" d="M245.9,120.2c2.5-3,4.1-7,4.2-11.4h0c.2-8.4-5.2-14.6-12-16.9h0c-4.7-1.6-10.4-1.3-14.4,2.4h0c-.6.6-1.2,1.2-1.7,1.9h0c-.5,0-1,.2-1.5.4h0c-.2-.2-.9.5-1.7,1.2h0c-.7.7-1.4,1.3-1.6,1.2h0c-.4-.2-3.1-3.9-3.5-3.9h0c-3.3-3.8-8.7-4.4-13.4-3.3h0c-7,1.6-12.3,8.5-12,16.9h0c.1,4.4,1.7,8.4,4.2,11.4h0s7.2,8.2,12.2,13.9h0c4,4.6,11.9,13.5,14.6,16.6h0c4.2-4.9,26.7-30.6,26.7-30.6"/>
        <g class="cls-34">
          <g id="g6080">
            <g id="g6086">
              <g id="g6088">
                <path id="path6100" class="cls-3" d="M245.9,120.2c2.5-3,4.1-7,4.2-11.4h0c.2-8.4-5.2-14.6-12-16.9h0c-4.7-1.6-10.4-1.3-14.4,2.4h0c-.6.6-1.2,1.2-1.7,1.9h0c-.5,0-1,.2-1.5.4h0c-.2-.2-.9.5-1.7,1.2h0c-.7.7-1.4,1.3-1.6,1.2h0c-.4-.2-3.1-3.9-3.5-3.9h0c-3.3-3.8-8.7-4.4-13.4-3.3h0c-7,1.6-12.3,8.5-12,16.9h0c.1,4.4,1.7,8.4,4.2,11.4h0s7.2,8.2,12.2,13.9h0c4,4.6,11.9,13.5,14.6,16.6h0c4.2-4.9,26.7-30.6,26.7-30.6"/>
              </g>
            </g>
          </g>
        </g>
      </g>
    </g>
    <g id="g6102">
      <g>
        <path class="cls-2" d="M245.2,120.3c2.6-3.1,4.1-7.2,4.2-11.7h0c.1-8.8-5.7-15.5-13-16.9h0c-4.1-.8-9.1,0-12.6,3.2h0c-.5.5-1,1-1.5,1.6h0c-.5.3-.9.6-1.3,1h0c0,0-.8.8-1.5,1.6h0c-.7.8-1.4,1.7-1.5,1.6h0c-.2-.1-2.9-4.1-3.1-4.2h0c-3-4.3-8.3-5.4-12.9-4.9h0c-7.4.9-13.1,8-13,16.9h0c0,4.5,1.6,8.6,4.2,11.7h0s6.3,7.2,11.8,13.6h0c4.5,5.2,11.2,12.8,14.2,16.3h0c4.7-5.5,26-29.9,26-29.9"/>
        <g class="cls-14">
          <g id="g6104">
            <g id="g6110">
              <g id="g6112">
                <path id="path6124" class="cls-3" d="M245.2,120.3c2.6-3.1,4.1-7.2,4.2-11.7h0c.1-8.8-5.7-15.5-13-16.9h0c-4.1-.8-9.1,0-12.6,3.2h0c-.5.5-1,1-1.5,1.6h0c-.5.3-.9.6-1.3,1h0c0,0-.8.8-1.5,1.6h0c-.7.8-1.4,1.7-1.5,1.6h0c-.2-.1-2.9-4.1-3.1-4.2h0c-3-4.3-8.3-5.4-12.9-4.9h0c-7.4.9-13.1,8-13,16.9h0c0,4.5,1.6,8.6,4.2,11.7h0s6.3,7.2,11.8,13.6h0c4.5,5.2,11.2,12.8,14.2,16.3h0c4.7-5.5,26-29.9,26-29.9"/>
              </g>
            </g>
          </g>
        </g>
      </g>
    </g>
    <g id="g6126">
      <g>
        <path class="cls-2" d="M244.4,120.3c2.7-3.2,4.2-7.5,4.2-12h0c0-9.2-6.3-16.8-14-16.8h0c-4.7,0-10.6,2.2-13.2,6.8h0l-2.7,4-2.7-4.4c-2.6-4.7-7.9-6.4-12.5-6.4h0c-7.7,0-14,7.5-14,16.8h0c0,4.6,1.5,8.9,4.2,12h0s5.4,6.2,11.5,13.3h0c5,5.7,10.4,12,13.9,16h0c5.3-6.1,25.4-29.3,25.4-29.3"/>
        <g class="cls-15">
          <g id="g6128">
            <g id="g6134">
              <g id="g6136">
                <path id="path6148" class="cls-3" d="M244.4,120.3c2.7-3.2,4.2-7.5,4.2-12h0c0-9.2-6.3-16.8-14-16.8h0c-4.7,0-10.6,2.2-13.2,6.8h0l-2.7,4-2.7-4.4c-2.6-4.7-7.9-6.4-12.5-6.4h0c-7.7,0-14,7.5-14,16.8h0c0,4.6,1.5,8.9,4.2,12h0s5.4,6.2,11.5,13.3h0c5,5.7,10.4,12,13.9,16h0c5.3-6.1,25.4-29.3,25.4-29.3"/>
              </g>
            </g>
          </g>
        </g>
      </g>
    </g>
    <g id="g6150">
      <g>
        <path class="cls-2" d="M157.7,119.8c4.1-5.2,8.1-14.3,0-26.4h0c-7.6-11.4-20.5-11.7-28.9-3.5h0c-1.2,1.2-2.3,2.6-3.3,4.1h0c-1-1.5-2.1-2.9-3.3-4h0c-8.4-8.3-21.1-7.9-29,3.4h0c-8,11.3-4.1,21.2,0,26.4h0l32.3,35.6,32.2-35.6Z"/>
        <g class="cls-18">
          <g id="g6152">
            <g id="g6158">
              <g id="g6160">
                <path id="path6168" class="cls-3" d="M157.7,119.8c4.1-5.2,8.1-14.3,0-26.4h0c-7.6-11.4-20.5-11.7-28.9-3.5h0c-1.2,1.2-2.3,2.6-3.3,4.1h0c-1-1.5-2.1-2.9-3.3-4h0c-8.4-8.3-21.1-7.9-29,3.4h0c-8,11.3-4.1,21.2,0,26.4h0l32.3,35.6,32.2-35.6Z"/>
              </g>
            </g>
          </g>
        </g>
      </g>
    </g>
    <g id="g6170">
      <g>
        <path class="cls-2" d="M156.9,119.8c1.8-2.3,3.6-5.4,4.3-9.1h0c1-5.2-.5-11.2-5.2-17.6h0c-7.5-10.1-19.2-10.4-27.1-2.7h0c-1.1,1.1-2.2,2.4-3.1,3.8h0c-.9-1.3-2-2.5-3.1-3.5h0c-1.5-1.5-3.4-2.2-5.1-3.1h0c-1.9-1-4.3-2-6.4-2.1h0c-5.7-.8-11.8,1.7-16.5,7.5h0c-4.8,6-6.1,12.1-5.2,17.5h0c.7,3.7,2.4,6.9,4.2,9.2h0s13.8,15.2,14.4,15.9h0c.5.6,16.9,18.6,17.2,19h0c.5-.6,31.5-35,31.5-35"/>
        <g class="cls-17">
          <g id="g6172">
            <g id="g6178">
              <g id="g6180">
                <path id="path6192" class="cls-3" d="M156.9,119.8c1.8-2.3,3.6-5.4,4.3-9.1h0c1-5.2-.5-11.2-5.2-17.6h0c-7.5-10.1-19.2-10.4-27.1-2.7h0c-1.1,1.1-2.2,2.4-3.1,3.8h0c-.9-1.3-2-2.5-3.1-3.5h0c-1.5-1.5-3.4-2.2-5.1-3.1h0c-1.9-1-4.3-2-6.4-2.1h0c-5.7-.8-11.8,1.7-16.5,7.5h0c-4.8,6-6.1,12.1-5.2,17.5h0c.7,3.7,2.4,6.9,4.2,9.2h0s13.8,15.2,14.4,15.9h0c.5.6,16.9,18.6,17.2,19h0c.5-.6,31.5-35,31.5-35"/>
              </g>
            </g>
          </g>
        </g>
      </g>
    </g>
    <g id="g6194">
      <g>
        <path class="cls-2" d="M156.2,119.9c1.9-2.4,3.7-5.6,4.2-9.4h0c.9-5.7-1.3-11.6-6.2-17.5h0c-7.4-8.7-18-9.1-25.3-2h0c-1.1,1-2.1,2.2-2.9,3.6h0c-.9-1.1-1.8-2.1-2.8-2.9h0c-1.3-1.3-3.3-1.5-4.8-2.3h0c-1.7-.8-4.1-2.2-5.9-2.3h0c-5.4-1.2-11.3.9-16.1,6h0c-5,5.4-7,11.6-6.1,17.4h0c.6,3.8,2.3,7.1,4.2,9.5h0s12.9,14.2,14.1,15.6h0c1,1.2,16.2,17.9,16.8,18.7h0c1.1-1.2,30.9-34.4,30.9-34.4"/>
        <g class="cls-16">
          <g id="g6196">
            <g id="g6202">
              <g id="g6204">
                <path id="path6216" class="cls-3" d="M156.2,119.9c1.9-2.4,3.7-5.6,4.2-9.4h0c.9-5.7-1.3-11.6-6.2-17.5h0c-7.4-8.7-18-9.1-25.3-2h0c-1.1,1-2.1,2.2-2.9,3.6h0c-.9-1.1-1.8-2.1-2.8-2.9h0c-1.3-1.3-3.3-1.5-4.8-2.3h0c-1.7-.8-4.1-2.2-5.9-2.3h0c-5.4-1.2-11.3.9-16.1,6h0c-5,5.4-7,11.6-6.1,17.4h0c.6,3.8,2.3,7.1,4.2,9.5h0s12.9,14.2,14.1,15.6h0c1,1.2,16.2,17.9,16.8,18.7h0c1.1-1.2,30.9-34.4,30.9-34.4"/>
              </g>
            </g>
          </g>
        </g>
      </g>
    </g>
    <g id="g6218">
      <g>
        <path class="cls-2" d="M155.5,119.9c2-2.5,3.7-5.9,4.2-9.8h0c.8-6.1-2.1-12.1-7.2-17.4h0c-7.1-7.4-16.7-7.8-23.5-1.3h0c-1,1-1.9,2.1-2.7,3.3h0c-.8-.9-1.7-1.7-2.6-2.4h0c-1.1-1.1-3.2-.8-4.6-1.5h0c-1.5-.7-3.9-2.5-5.6-2.6h0c-5-1.7-10.8,0-15.6,4.4h0c-5.3,4.8-7.9,11.1-7.1,17.3h0c.5,3.9,2.2,7.3,4.2,9.8h0s11.9,13.2,13.8,15.4h0c1.5,1.7,15.4,17.2,16.5,18.4h0c1.6-1.8,30.2-33.7,30.2-33.7"/>
        <g class="cls-19">
          <g id="g6220">
            <g id="g6226">
              <g id="g6228">
                <path id="path6240" class="cls-3" d="M155.5,119.9c2-2.5,3.7-5.9,4.2-9.8h0c.8-6.1-2.1-12.1-7.2-17.4h0c-7.1-7.4-16.7-7.8-23.5-1.3h0c-1,1-1.9,2.1-2.7,3.3h0c-.8-.9-1.7-1.7-2.6-2.4h0c-1.1-1.1-3.2-.8-4.6-1.5h0c-1.5-.7-3.9-2.5-5.6-2.6h0c-5-1.7-10.8,0-15.6,4.4h0c-5.3,4.8-7.9,11.1-7.1,17.3h0c.5,3.9,2.2,7.3,4.2,9.8h0s11.9,13.2,13.8,15.4h0c1.5,1.7,15.4,17.2,16.5,18.4h0c1.6-1.8,30.2-33.7,30.2-33.7"/>
              </g>
            </g>
          </g>
        </g>
      </g>
    </g>
    <g id="g6242">
      <g>
        <path class="cls-2" d="M154.7,120c2.1-2.6,3.8-6.1,4.2-10.1h0c.7-6.6-2.8-12.5-8.2-17.3h0c-6.8-6.1-15.4-6.5-21.7-.5h0c-.9.9-1.8,1.9-2.5,3h0c-.7-.7-1.6-1.3-2.4-1.8h0c-.6-.6-1.5-.5-2.4-.5h0c-.7,0-1.4,0-1.9-.2h0c-1.3-.6-3.8-2.8-5.1-2.9h0c-4.7-2.1-10.3-.8-15.2,2.9h0c-5.6,4.2-8.8,10.6-8.1,17.2h0c.4,4,2.1,7.6,4.2,10.1h0s11,12.2,13.4,15.1h0c2,2.3,14.7,16.4,16.1,18h0c2.1-2.4,29.5-33.1,29.5-33.1"/>
        <g class="cls-22">
          <g id="g6244">
            <g id="g6250">
              <g id="g6252">
                <path id="path6264" class="cls-3" d="M154.7,120c2.1-2.6,3.8-6.1,4.2-10.1h0c.7-6.6-2.8-12.5-8.2-17.3h0c-6.8-6.1-15.4-6.5-21.7-.5h0c-.9.9-1.8,1.9-2.5,3h0c-.7-.7-1.6-1.3-2.4-1.8h0c-.6-.6-1.5-.5-2.4-.5h0c-.7,0-1.4,0-1.9-.2h0c-1.3-.6-3.8-2.8-5.1-2.9h0c-4.7-2.1-10.3-.8-15.2,2.9h0c-5.6,4.2-8.8,10.6-8.1,17.2h0c.4,4,2.1,7.6,4.2,10.1h0s11,12.2,13.4,15.1h0c2,2.3,14.7,16.4,16.1,18h0c2.1-2.4,29.5-33.1,29.5-33.1"/>
              </g>
            </g>
          </g>
        </g>
      </g>
    </g>
    <g id="g6266">
      <g>
        <path class="cls-2" d="M154,120.1c2.2-2.7,3.9-6.3,4.2-10.4h0c.6-7-3.5-12.9-9.1-17.2h0c-6.4-4.9-14.2-5.2-19.9.2h0c-.8.8-1.6,1.7-2.3,2.7h0c-.7-.5-1.4-.9-2.2-1.2h0c-.4-.4-1.3-.2-2.2,0h0c-.7.2-1.4.3-1.9.1h0c-1.1-.5-3.6-3-4.8-3.1h0c-4.4-2.5-9.9-1.6-14.7,1.3h0c-5.9,3.7-9.7,10.1-9.1,17.2h0c.3,4.1,2,7.8,4.2,10.5h0s10.1,11.2,13.1,14.8h0c2.5,2.9,14,15.7,15.7,17.7h0c2.6-3,28.8-32.5,28.8-32.5"/>
        <g class="cls-20">
          <g id="g6268">
            <g id="g6274">
              <g id="g6276">
                <path id="path6288" class="cls-3" d="M154,120.1c2.2-2.7,3.9-6.3,4.2-10.4h0c.6-7-3.5-12.9-9.1-17.2h0c-6.4-4.9-14.2-5.2-19.9.2h0c-.8.8-1.6,1.7-2.3,2.7h0c-.7-.5-1.4-.9-2.2-1.2h0c-.4-.4-1.3-.2-2.2,0h0c-.7.2-1.4.3-1.9.1h0c-1.1-.5-3.6-3-4.8-3.1h0c-4.4-2.5-9.9-1.6-14.7,1.3h0c-5.9,3.7-9.7,10.1-9.1,17.2h0c.3,4.1,2,7.8,4.2,10.5h0s10.1,11.2,13.1,14.8h0c2.5,2.9,14,15.7,15.7,17.7h0c2.6-3,28.8-32.5,28.8-32.5"/>
              </g>
            </g>
          </g>
        </g>
      </g>
    </g>
    <g id="g6290">
      <g>
        <path class="cls-2" d="M153.2,120.1c2.3-2.8,3.9-6.5,4.2-10.7h0c.5-7.5-4.1-13.4-10.1-17.1h0c-5.8-3.7-12.9-3.9-18,1h0c-.8.7-1.5,1.5-2.1,2.5h0c-.6-.3-1.3-.6-1.9-.7h0c-.3-.3-1.2,0-2,.4h0c-.7.3-1.4.6-1.8.5h0c-.9-.4-3.4-3.3-4.3-3.4h0c-4-3-9.5-2.5-14.3-.2h0c-6.3,3-10.6,9.6-10.1,17.1h0c.3,4.2,1.9,8,4.2,10.8h0s9.1,10.2,12.8,14.5h0c3,3.4,13.3,15,15.3,17.3h0c3.2-3.7,28.1-31.8,28.1-31.8"/>
        <g class="cls-21">
          <g id="g6292">
            <g id="g6298">
              <g id="g6300">
                <path id="path6312" class="cls-3" d="M153.2,120.1c2.3-2.8,3.9-6.5,4.2-10.7h0c.5-7.5-4.1-13.4-10.1-17.1h0c-5.8-3.7-12.9-3.9-18,1h0c-.8.7-1.5,1.5-2.1,2.5h0c-.6-.3-1.3-.6-1.9-.7h0c-.3-.3-1.2,0-2,.4h0c-.7.3-1.4.6-1.8.5h0c-.9-.4-3.4-3.3-4.3-3.4h0c-4-3-9.5-2.5-14.3-.2h0c-6.3,3-10.6,9.6-10.1,17.1h0c.3,4.2,1.9,8,4.2,10.8h0s9.1,10.2,12.8,14.5h0c3,3.4,13.3,15,15.3,17.3h0c3.2-3.7,28.1-31.8,28.1-31.8"/>
              </g>
            </g>
          </g>
        </g>
      </g>
    </g>
    <g id="g6314">
      <g>
        <path class="cls-2" d="M152.5,120.2c2.4-2.9,4-6.8,4.2-11h0c.4-7.9-4.7-13.9-11.1-17h0c-5.3-2.6-11.6-2.6-16.2,1.7h0c-.7.6-1.3,1.4-1.9,2.2h0c-.6-.1-1.2-.2-1.7-.1h0c-.3-.3-1,.3-1.8.8h0c-.7.5-1.4,1-1.7.8h0c-.6-.3-3.3-3.6-3.9-3.6h0c-3.7-3.4-9.1-3.5-13.8-1.8h0c-6.6,2.4-11.4,9.1-11,17h0c.2,4.3,1.8,8.2,4.2,11.1h0s8.2,9.2,12.5,14.2h0c3.5,4,12.6,14.2,15,17h0c3.7-4.3,27.4-31.2,27.4-31.2"/>
        <g class="cls-23">
          <g id="g6316">
            <g id="g6322">
              <g id="g6324">
                <path id="path6336" class="cls-3" d="M152.5,120.2c2.4-2.9,4-6.8,4.2-11h0c.4-7.9-4.7-13.9-11.1-17h0c-5.3-2.6-11.6-2.6-16.2,1.7h0c-.7.6-1.3,1.4-1.9,2.2h0c-.6-.1-1.2-.2-1.7-.1h0c-.3-.3-1,.3-1.8.8h0c-.7.5-1.4,1-1.7.8h0c-.6-.3-3.3-3.6-3.9-3.6h0c-3.7-3.4-9.1-3.5-13.8-1.8h0c-6.6,2.4-11.4,9.1-11,17h0c.2,4.3,1.8,8.2,4.2,11.1h0s8.2,9.2,12.5,14.2h0c3.5,4,12.6,14.2,15,17h0c3.7-4.3,27.4-31.2,27.4-31.2"/>
              </g>
            </g>
          </g>
        </g>
      </g>
    </g>
    <g id="g6338">
      <g>
        <path class="cls-2" d="M151.7,120.2c2.5-3,4.1-7,4.2-11.4h0c.2-8.4-5.2-14.6-12-16.9h0c-4.6-1.6-10.4-1.3-14.4,2.4h0c-.6.6-1.2,1.2-1.7,1.9h0c-.5,0-1,.2-1.5.4h0c-.2-.2-.9.5-1.7,1.2h0c-.7.7-1.4,1.3-1.6,1.2h0c-.4-.2-3.1-3.9-3.5-3.9h0c-3.3-3.8-8.7-4.4-13.4-3.3h0c-7,1.6-12.3,8.5-12,16.9h0c.1,4.4,1.7,8.4,4.2,11.4h0s7.2,8.2,12.2,13.9h0c4,4.6,11.9,13.5,14.6,16.6h0c4.2-4.9,26.7-30.6,26.7-30.6"/>
        <g class="cls-25">
          <g id="g6340">
            <g id="g6346">
              <g id="g6348">
                <path id="path6360" class="cls-3" d="M151.7,120.2c2.5-3,4.1-7,4.2-11.4h0c.2-8.4-5.2-14.6-12-16.9h0c-4.6-1.6-10.4-1.3-14.4,2.4h0c-.6.6-1.2,1.2-1.7,1.9h0c-.5,0-1,.2-1.5.4h0c-.2-.2-.9.5-1.7,1.2h0c-.7.7-1.4,1.3-1.6,1.2h0c-.4-.2-3.1-3.9-3.5-3.9h0c-3.3-3.8-8.7-4.4-13.4-3.3h0c-7,1.6-12.3,8.5-12,16.9h0c.1,4.4,1.7,8.4,4.2,11.4h0s7.2,8.2,12.2,13.9h0c4,4.6,11.9,13.5,14.6,16.6h0c4.2-4.9,26.7-30.6,26.7-30.6"/>
              </g>
            </g>
          </g>
        </g>
      </g>
    </g>
    <g id="g6362">
      <g>
        <path class="cls-2" d="M151,120.3c2.6-3.1,4.1-7.2,4.2-11.7h0c.1-8.8-5.7-15.5-13-16.9h0c-4-.8-9.1,0-12.6,3.2h0c-.5.5-1.1,1-1.5,1.6h0c-.5.3-.9.6-1.3,1h0c0,0-.8.8-1.5,1.6h0c-.7.8-1.4,1.7-1.5,1.6h0c-.2-.1-2.9-4.1-3.1-4.2h0c-3-4.3-8.3-5.4-12.9-4.9h0c-7.4.9-13.1,8-13,16.9h0c0,4.5,1.6,8.6,4.2,11.7h0s6.3,7.2,11.8,13.6h0c4.5,5.2,11.2,12.8,14.2,16.3h0c4.7-5.5,26.1-29.9,26.1-29.9"/>
        <g class="cls-26">
          <g id="g6364">
            <g id="g6370">
              <g id="g6372">
                <path id="path6384" class="cls-3" d="M151,120.3c2.6-3.1,4.1-7.2,4.2-11.7h0c.1-8.8-5.7-15.5-13-16.9h0c-4-.8-9.1,0-12.6,3.2h0c-.5.5-1.1,1-1.5,1.6h0c-.5.3-.9.6-1.3,1h0c0,0-.8.8-1.5,1.6h0c-.7.8-1.4,1.7-1.5,1.6h0c-.2-.1-2.9-4.1-3.1-4.2h0c-3-4.3-8.3-5.4-12.9-4.9h0c-7.4.9-13.1,8-13,16.9h0c0,4.5,1.6,8.6,4.2,11.7h0s6.3,7.2,11.8,13.6h0c4.5,5.2,11.2,12.8,14.2,16.3h0c4.7-5.5,26.1-29.9,26.1-29.9"/>
              </g>
            </g>
          </g>
        </g>
      </g>
    </g>
    <g id="g6386">
      <g>
        <path class="cls-2" d="M150.3,120.3c2.7-3.2,4.2-7.5,4.2-12h0c0-9.2-6.3-16.8-14-16.8h0c-4.6,0-10.6,2.2-13.2,6.8h0l-2.7,4-2.7-4.4c-2.6-4.7-7.9-6.4-12.5-6.4h0c-7.7,0-14,7.5-14,16.8h0c0,4.6,1.5,8.9,4.2,12h0s5.4,6.2,11.5,13.3h0c5,5.7,10.4,12,13.9,16h0c5.3-6.1,25.4-29.3,25.4-29.3"/>
        <g class="cls-24">
          <g id="g6388">
            <g id="g6394">
              <g id="g6396">
                <path id="path6408" class="cls-3" d="M150.3,120.3c2.7-3.2,4.2-7.5,4.2-12h0c0-9.2-6.3-16.8-14-16.8h0c-4.6,0-10.6,2.2-13.2,6.8h0l-2.7,4-2.7-4.4c-2.6-4.7-7.9-6.4-12.5-6.4h0c-7.7,0-14,7.5-14,16.8h0c0,4.6,1.5,8.9,4.2,12h0s5.4,6.2,11.5,13.3h0c5,5.7,10.4,12,13.9,16h0c5.3-6.1,25.4-29.3,25.4-29.3"/>
              </g>
            </g>
          </g>
        </g>
      </g>
    </g>
  </g>
</svg>