<?xml version="1.0" encoding="UTF-8"?>
<svg id="Layer_2" data-name="Layer 2" xmlns="http://www.w3.org/2000/svg" version="1.1" viewBox="0 0 1592 468.9">
  <defs>
    <style>
      .cls-1 {
        isolation: isolate;
      }

      .cls-2 {
        fill: #fff;
        stroke-width: 0px;
      }
    </style>
  </defs>
  <g id="Layer_1-2" data-name="Layer 1-2">
    <g>
      <g class="cls-1">
        <g class="cls-1">
          <path class="cls-2" d="M311.9,277.8h-98l-19.3,45.4h-37.5l88.2-196h35.8l88.5,196h-38.1l-19.6-45.4ZM299.9,249.2l-37-85.7-36.7,85.7h73.6Z"/>
        </g>
        <g class="cls-1">
          <path class="cls-2" d="M587.1,323.2l-40-57.4c-1.7.2-4.2.3-7.6.3h-44.2v57.1h-36.4V127.2h80.6c17,0,31.8,2.8,44.4,8.4,12.6,5.6,22.3,13.6,29,24.1,6.7,10.5,10.1,22.9,10.1,37.2s-3.6,27.4-10.8,38.1c-7.2,10.6-17.5,18.6-30.9,23.8l45.1,64.4h-39.2ZM574,168c-8.2-6.7-20.3-10.1-36.1-10.1h-42.6v78.1h42.6c15.9,0,27.9-3.4,36.1-10.2,8.2-6.8,12.3-16.5,12.3-29s-4.1-22.1-12.3-28.8Z"/>
        </g>
        <g class="cls-1">
          <path class="cls-2" d="M764.9,158h-65v-30.8h166.3v30.8h-65v165.2h-36.4v-165.2Z"/>
        </g>
        <g class="cls-1">
          <path class="cls-2" d="M1105.1,292.7v30.5h-147V127.2h143.1v30.5h-106.7v51h94.6v30h-94.6v54h110.6Z"/>
        </g>
        <g class="cls-1">
          <path class="cls-2" d="M1246.4,313c-16-8.7-28.5-20.7-37.5-36-9.1-15.3-13.6-32.6-13.6-51.8s4.6-36.5,13.7-51.8c9.1-15.3,21.7-27.3,37.7-36,16-8.7,33.8-13,53.6-13s30.7,2.8,44,8.4c13.3,5.6,24.5,13.7,33.6,24.4l-23.5,22.1c-14.2-15.3-31.6-23-52.4-23s-25.5,2.9-36.1,8.8c-10.6,5.9-18.9,14-24.9,24.5-6,10.5-9,22.3-9,35.6s3,25.1,9,35.6c6,10.5,14.3,18.6,24.9,24.5,10.6,5.9,22.7,8.8,36.1,8.8,20.7,0,38.2-7.7,52.4-23.2l23.5,22.4c-9.1,10.6-20.4,18.8-33.7,24.4-13.3,5.6-28,8.4-44.1,8.4s-37.7-4.3-53.6-13Z"/>
        </g>
      </g>
      <g class="cls-1">
        <g class="cls-1">
          <path class="cls-2" d="M386.8,414.7c2.3-1.1,5.1-1.7,8.3-1.7v6.5c-.4,0-.9,0-1.5,0-3.6,0-6.5,1.1-8.6,3.3-2.1,2.2-3.1,5.3-3.1,9.3v18.5h-6.7v-37.1h6.4v6.2c1.2-2.1,2.9-3.8,5.2-4.9Z"/>
        </g>
        <g class="cls-1">
          <path class="cls-2" d="M464.4,434.2h-30.1c.4,3.3,1.9,5.9,4.3,7.9,2.5,2,5.5,3,9.1,3s8-1.5,10.7-4.5l3.7,4.3c-1.7,2-3.8,3.5-6.3,4.5-2.5,1-5.3,1.5-8.4,1.5s-7.4-.8-10.4-2.4c-3-1.6-5.4-3.9-7-6.8-1.7-2.9-2.5-6.2-2.5-9.8s.8-6.8,2.4-9.7c1.6-2.9,3.8-5.1,6.6-6.8,2.8-1.6,6-2.4,9.6-2.4s6.7.8,9.5,2.4c2.8,1.6,4.9,3.9,6.5,6.8,1.6,2.9,2.3,6.2,2.3,9.9s0,1.2-.1,2ZM438.1,421.7c-2.2,2-3.4,4.5-3.8,7.7h23.8c-.4-3.1-1.6-5.7-3.8-7.7s-4.9-3-8.1-3-5.9,1-8.1,2.9Z"/>
        </g>
        <g class="cls-1">
          <path class="cls-2" d="M534,413.4l-16.2,37.1h-6.9l-16.2-37.1h7l12.7,29.8,13-29.8h6.6Z"/>
        </g>
        <g class="cls-1">
          <path class="cls-2" d="M600.6,434.2h-30.1c.4,3.3,1.9,5.9,4.3,7.9,2.5,2,5.5,3,9.1,3s8-1.5,10.7-4.5l3.7,4.3c-1.7,2-3.8,3.5-6.3,4.5-2.5,1-5.3,1.5-8.4,1.5s-7.4-.8-10.4-2.4c-3-1.6-5.4-3.9-7-6.8-1.7-2.9-2.5-6.2-2.5-9.8s.8-6.8,2.4-9.7c1.6-2.9,3.8-5.1,6.6-6.8,2.8-1.6,6-2.4,9.6-2.4s6.7.8,9.5,2.4c2.8,1.6,4.9,3.9,6.5,6.8,1.6,2.9,2.3,6.2,2.3,9.9s0,1.2-.1,2ZM574.3,421.7c-2.2,2-3.4,4.5-3.8,7.7h23.8c-.4-3.1-1.6-5.7-3.8-7.7s-4.9-3-8.1-3-5.9,1-8.1,2.9Z"/>
          <path class="cls-2" d="M640,449.7c-2.8-.8-5-1.9-6.6-3.1l2.8-5.3c1.6,1.2,3.6,2.1,5.9,2.8,2.3.7,4.7,1.1,7.1,1.1,5.9,0,8.8-1.7,8.8-5s-.4-2-1.2-2.7c-.8-.7-1.8-1.1-3-1.4-1.2-.3-2.9-.6-5.1-1-3-.5-5.4-1-7.3-1.6-1.9-.6-3.5-1.6-4.9-3.1-1.4-1.4-2-3.5-2-6.1s1.4-6.1,4.2-8.1c2.8-2,6.6-3,11.3-3s4.9.3,7.4.9,4.5,1.4,6.1,2.5l-2.9,5.3c-3-2-6.6-2.9-10.7-2.9s-5,.5-6.5,1.4c-1.5.9-2.2,2.2-2.2,3.7s.4,2.2,1.3,2.9c.8.7,1.9,1.2,3.1,1.5,1.2.3,3,.7,5.2,1.1,3,.5,5.4,1.1,7.2,1.6,1.8.6,3.4,1.6,4.7,3,1.3,1.4,2,3.4,2,5.9s-1.4,6-4.3,8-6.8,3-11.7,3-6-.4-8.8-1.2Z"/>
          <path class="cls-2" d="M722,448.3c-1,.8-2.2,1.5-3.6,1.9-1.4.4-2.9.7-4.5.7-3.7,0-6.6-1-8.7-3-2.1-2-3.1-4.9-3.1-8.6v-20.4h-6.3v-5.5h6.3v-8.1h6.7v8.1h10.6v5.5h-10.6v20.1c0,2,.5,3.5,1.5,4.6,1,1.1,2.4,1.6,4.3,1.6s3.8-.6,5.2-1.8l2.1,4.8Z"/>
          <path class="cls-2" d="M758.2,405c-.9-.8-1.3-1.9-1.3-3.1s.4-2.3,1.3-3.1c.9-.9,1.9-1.3,3.3-1.3s2.4.4,3.3,1.2c.9.8,1.3,1.8,1.3,3s-.4,2.3-1.3,3.2c-.9.9-1.9,1.3-3.3,1.3s-2.4-.4-3.3-1.3ZM758.1,413.4h6.7v37.1h-6.7v-37.1Z"/>
        </g>
        <g class="cls-1">
          <path class="cls-2" d="M863.2,417.1c2.7,2.7,4.1,6.7,4.1,12v21.3h-6.7v-20.6c0-3.6-.8-6.3-2.5-8.1-1.7-1.8-4-2.7-7.1-2.7s-6.1,1.1-8.1,3.2c-2,2.1-3,5.2-3,9.1v19.1h-6.7v-20.6c0-3.6-.8-6.3-2.5-8.1-1.7-1.8-4-2.7-7.1-2.7s-6.1,1.1-8.1,3.2c-2,2.1-3,5.2-3,9.1v19.1h-6.7v-37.1h6.4v5.5c1.4-1.9,3.1-3.4,5.3-4.4,2.2-1,4.7-1.5,7.5-1.5s5.5.6,7.7,1.8c2.2,1.2,4,2.9,5.2,5.1,1.4-2.1,3.3-3.8,5.8-5,2.5-1.2,5.3-1.8,8.4-1.8,4.7,0,8.4,1.4,11.1,4.1Z"/>
        </g>
        <g class="cls-1">
          <path class="cls-2" d="M941.2,434.2h-30.1c.4,3.3,1.9,5.9,4.3,7.9,2.4,2,5.5,3,9.1,3s8-1.5,10.7-4.5l3.7,4.3c-1.7,2-3.8,3.5-6.3,4.5-2.5,1-5.3,1.5-8.4,1.5s-7.4-.8-10.4-2.4-5.4-3.9-7-6.8c-1.7-2.9-2.5-6.2-2.5-9.8s.8-6.8,2.4-9.7c1.6-2.9,3.8-5.1,6.6-6.8,2.8-1.6,6-2.4,9.6-2.4s6.7.8,9.5,2.4c2.8,1.6,4.9,3.9,6.5,6.8,1.6,2.9,2.3,6.2,2.3,9.9s0,1.2-.1,2ZM915,421.7c-2.2,2-3.4,4.5-3.8,7.7h23.8c-.4-3.1-1.6-5.7-3.8-7.7s-4.9-3-8.1-3-5.9,1-8.1,2.9Z"/>
          <path class="cls-2" d="M1009.7,417.1c2.8,2.7,4.2,6.7,4.2,12v21.3h-6.7v-20.6c0-3.6-.9-6.3-2.6-8.1-1.7-1.8-4.2-2.7-7.4-2.7s-6.5,1.1-8.6,3.2c-2.1,2.1-3.2,5.2-3.2,9.1v19.1h-6.7v-37.1h6.4v5.6c1.4-1.9,3.2-3.4,5.5-4.4,2.3-1,4.9-1.5,7.9-1.5,4.7,0,8.5,1.4,11.2,4.1Z"/>
        </g>
        <g class="cls-1">
          <path class="cls-2" d="M1075.2,448.3c-1,.8-2.2,1.5-3.6,1.9-1.4.4-2.9.7-4.5.7-3.7,0-6.6-1-8.7-3-2.1-2-3.1-4.9-3.1-8.6v-20.4h-6.3v-5.5h6.3v-8.1h6.7v8.1h10.6v5.5h-10.6v20.1c0,2,.5,3.5,1.5,4.6,1,1.1,2.4,1.6,4.3,1.6s3.8-.6,5.2-1.8l2.1,4.8Z"/>
        </g>
        <g class="cls-1">
          <path class="cls-2" d="M1116,448.5c-2.9-1.6-5.2-3.9-6.9-6.8s-2.5-6.1-2.5-9.8.8-6.9,2.5-9.8c1.7-2.9,4-5.1,6.9-6.7,2.9-1.6,6.3-2.4,9.9-2.4s7,.8,9.9,2.4c2.9,1.6,5.2,3.9,6.9,6.7,1.7,2.9,2.5,6.1,2.5,9.8s-.8,6.9-2.5,9.8c-1.7,2.9-3.9,5.1-6.9,6.8-2.9,1.6-6.2,2.5-9.9,2.5s-7-.8-9.9-2.5ZM1132.4,443.4c1.9-1.1,3.4-2.6,4.4-4.6,1.1-2,1.6-4.3,1.6-6.8s-.5-4.8-1.6-6.8c-1.1-2-2.6-3.5-4.4-4.6-1.9-1.1-4-1.6-6.4-1.6s-4.5.5-6.4,1.6c-1.9,1.1-3.4,2.6-4.5,4.6-1.1,2-1.6,4.3-1.6,6.8s.5,4.8,1.6,6.8c1.1,2,2.6,3.5,4.5,4.6,1.9,1.1,4,1.6,6.4,1.6s4.5-.5,6.4-1.6Z"/>
          <path class="cls-2" d="M1184.4,449.7c-2.8-.8-5-1.9-6.6-3.1l2.8-5.3c1.6,1.2,3.6,2.1,5.9,2.8,2.3.7,4.7,1.1,7.1,1.1,5.9,0,8.8-1.7,8.8-5s-.4-2-1.2-2.7c-.8-.7-1.8-1.1-3-1.4-1.2-.3-2.9-.6-5.1-1-3-.5-5.4-1-7.3-1.6-1.9-.6-3.5-1.6-4.9-3.1-1.4-1.4-2-3.5-2-6.1s1.4-6.1,4.2-8.1c2.8-2,6.6-3,11.3-3s4.9.3,7.4.9,4.5,1.4,6.1,2.5l-2.9,5.3c-3-2-6.6-2.9-10.7-2.9s-5,.5-6.5,1.4c-1.5.9-2.2,2.2-2.2,3.7s.4,2.2,1.3,2.9c.8.7,1.9,1.2,3.1,1.5,1.2.3,3,.7,5.2,1.1,3,.5,5.4,1.1,7.2,1.6,1.8.6,3.4,1.6,4.7,3,1.3,1.4,2,3.4,2,5.9s-1.4,6-4.3,8-6.8,3-11.7,3-6-.4-8.8-1.2Z"/>
        </g>
      </g>
      <g>
        <polygon class="cls-2" points="5 402.5 0 402.5 1 0 327.5 0 327.5 5 6 5 5 402.5"/>
        <polygon class="cls-2" points="1591 458 1264.5 458 1264.5 453 1586 453 1587 55.5 1592 55.5 1591 458"/>
        <polygon class="cls-2" points="1565 434 1263.5 434 1263.5 429 1560 429 1560 33 31 33 31 429 329.5 429 329.5 434 26 434 26 28 1565 28 1565 434"/>
      </g>
    </g>
  </g>
</svg>