<?xml version="1.0" encoding="UTF-8"?>
<svg id="Layer_1" data-name="Layer 1" xmlns="http://www.w3.org/2000/svg" version="1.1" viewBox="0 0 595 347.8">
  <defs>
    <style>
      .cls-1 {
        fill: #fff;
        stroke-width: 0px;
      }
    </style>
  </defs>
  <g>
    <path class="cls-1" d="M23.2,2.1h29.3l21.2,108.8h-21.8l-4.4-24.4h-22.1l-4.4,24.4H1.1L23.2,2.1M43.9,69.2l-7.2-42.8h-.5l-7.5,42.8h15.1Z"/>
    <path class="cls-1" d="M79.7,83.8V2.3h21.6v80.8c0,7.2,4.1,10.8,9.8,10.8s9.5-4.3,9.3-10.8V2.3h20.6v80.9c0,19.1-13.6,29.4-31.2,29.4s-30-9.1-30-28.8"/>
    <polyline class="cls-1" points="169.2 20.4 148.6 20.4 148.6 2.3 211.2 2.3 211.2 20.4 190.8 20.4 190.8 111 169.2 111 169.2 20.4"/>
    <polyline class="cls-1" points="219.6 2.3 241.1 2.3 241.1 46.3 260 46.3 260 2.3 281.5 2.3 281.5 111 260 111 260 65.8 241.1 65.8 241.1 111 219.6 111 219.6 2.3"/>
    <polyline class="cls-1" points="293.5 2.3 345.8 2.3 345.8 20.4 314.9 20.4 314.9 46 339.4 46 339.4 64.3 314.9 64.3 314.9 92.5 346 92.5 346 111 293.5 111 293.5 2.3"/>
    <polyline class="cls-1" points="356.8 2.3 378.8 2.3 401.6 60.3 402.1 60.3 402.1 2.3 421.1 2.3 421.1 111 401.8 111 376.3 45.9 375.9 45.9 375.9 111 356.8 111 356.8 2.3"/>
    <polyline class="cls-1" points="450.5 20.4 430 20.4 430 2.3 492.6 2.3 492.6 20.4 472.2 20.4 472.2 111 450.5 111 450.5 20.4"/>
    <rect class="cls-1" x="501.4" y="2.3" width="21.5" height="108.7"/>
    <path class="cls-1" d="M534.5,84.3V28.6c0-18,13.9-28,31.4-28s29.1,9.5,29.1,26.2v12h-19.5v-10.2c0-5.8-3.8-9.5-9.6-9.5s-9.6,4-9.6,9.9v54.3c0,6.6,3.5,10.4,9.8,10.4s9.5-3.8,9.5-9.5v-9.9h19.5v11.1c0,17.1-12.7,27.1-29.3,27.1s-31.3-9.3-31.3-28.4"/>
    <path class="cls-1" d="M1.1,120.1h34.8c15.5,0,25.2,8.5,25.2,27.7s-6.1,22.9-14.3,25.3v.6c9.3,2.6,14.9,11,14.9,24.4,0,20.9-10.2,30.6-24.8,30.6H1.1v-108.7M30.2,165.3c6.1,0,9.5-4.6,9.5-14.6s-3.2-13.3-8.4-13.3h-8.8v27.9h7.8ZM31.2,211.3c5.8,0,8.7-5.3,8.7-14.5s-3.5-14-9.5-14h-8.1v28.5h8.8Z"/>
    <polyline class="cls-1" points="73.3 120.1 125.6 120.1 125.6 138.3 94.6 138.3 94.6 163.9 119.2 163.9 119.2 182.2 94.6 182.2 94.6 210.4 125.7 210.4 125.7 228.8 73.3 228.8 73.3 120.1"/>
    <path class="cls-1" d="M156.5,120h29.3l21.2,108.8h-21.8l-4.4-24.4h-22.1l-4.4,24.4h-19.8l22.1-108.8M177.2,187.1l-7.2-42.8h-.5l-7.5,42.8h15.1Z"/>
    <path class="cls-1" d="M214.9,201.7v-81.5h21.6v80.8c0,7.2,4.1,10.8,9.8,10.8s9.5-4.3,9.3-10.8v-80.8h20.6v80.9c0,19.1-13.6,29.4-31.2,29.4s-30-9.1-30-28.8"/>
    <polyline class="cls-1" points="304.6 138.3 284.1 138.3 284.1 120.1 346.7 120.1 346.7 138.3 326.3 138.3 326.3 228.8 304.6 228.8 304.6 138.3"/>
  </g>
  <g>
    <polyline class="cls-1" points="377.4 186 354.6 120.1 377.5 120.1 389.5 160.8 401.1 120.1 421.7 120.1 399 186.1 399 228.8 377.4 228.8 377.4 186"/>
    <path class="cls-1" d="M0,320v-55.6c0-18,13.9-28,31.4-28s29.1,9.5,29.1,26.2v12h-19.5v-10.2c0-5.8-3.8-9.5-9.6-9.5s-9.6,4-9.6,9.9v54.3c0,6.6,3.5,10.4,9.8,10.4s9.5-3.8,9.5-9.4v-9.9h19.5v11.1c0,17.1-12.7,27.1-29.3,27.1S0,339.1,0,320"/>
    <path class="cls-1" d="M70.6,318.6v-52.7c0-19.4,13.6-29.6,31.6-29.6s31.4,9.1,31.4,29.3v52.7c0,20.3-14,30-31.6,30s-31.4-9.5-31.4-29.7M111.9,319.1v-54.1c0-6.3-4-9.9-9.9-9.9s-9.6,4-9.6,10.1v53.8c0,6.1,3.4,10.5,9.8,10.5s9.8-4.4,9.8-10.4"/>
    <polyline class="cls-1" points="145.1 238 167 238 189.9 296.1 190.4 296.1 190.4 238 209.4 238 209.4 346.7 190.1 346.7 164.6 281.6 164.1 281.6 164.1 346.7 145.1 346.7 145.1 238"/>
    <path class="cls-1" d="M221.4,320v-55.6c0-18,13.9-28,31.4-28s29.1,9.5,29.1,26.2v12h-19.5v-10.2c0-5.8-3.8-9.5-9.6-9.5s-9.6,4-9.6,9.9v54.3c0,6.6,3.5,10.4,9.8,10.4s9.5-3.8,9.5-9.4v-9.9h19.5v11.1c0,17.1-12.7,27.1-29.3,27.1s-31.2-9.3-31.2-28.4"/>
  </g>
  <g>
    <polyline class="cls-1" points="293.1 238 345.4 238 345.4 256.1 314.4 256.1 314.4 281.8 339 281.8 339 300 314.4 300 314.4 328.2 345.5 328.2 345.5 346.7 293.1 346.7 293.1 238"/>
    <path class="cls-1" d="M356.3,238h32.9c17.8,0,26.7,11.7,26.7,33.2s-8.4,35.8-27.4,35.8h-10.7v39.6h-21.5v-108.7M385.3,289.5c6.4,0,9.6-5.8,9.6-17.8s-2.7-15.9-9.5-15.9h-7.6v33.7h7.5Z"/>
    <polyline class="cls-1" points="438.9 256.1 418.4 256.1 418.4 238 481 238 481 256.1 460.6 256.1 460.6 346.7 438.9 346.7 438.9 256.1"/>
  </g>
</svg>