<?xml version="1.0" encoding="UTF-8"?>
<svg id="Layer_1" data-name="Layer 1" xmlns="http://www.w3.org/2000/svg" version="1.1" viewBox="0 0 410.7 105.2">
  <defs>
    <style>
      .cls-1 {
        fill: #fff;
        fill-rule: evenodd;
        stroke-width: 0px;
      }
    </style>
  </defs>
  <path class="cls-1" d="M406.4,16.6c-4.4-3-10.3-1.9-13.4,2.4l-16.6,23.8-16.6-23.8c-2.9-4.5-8.9-5.7-13.4-2.8-4.5,2.9-5.7,8.9-2.8,13.4.1.2.2.3.3.5l6.7,9.7c-2.2-2-4.8-3.7-7.8-4.8-4.6-1.8-9.3-3.2-14.2-4.3l-23.9-4.9c-1.2-.3-2.4-.3-3.5-.2-.5-2.5-1.4-5-2.7-7.4-4.6-8.3-13.5-13.2-23-12.7-4.9.2-9.8.8-14.7,1.8l-23.9,5.2c-5.2.9-8.7,5.9-7.8,11.1,0,.3.1.6.2.9-1.3-.9-2.8-1.6-4.4-2l-19.5-4.6c-5.1-1.2-10.3,2-11.5,7.1-1.2,5.1,2,10.3,7.1,11.5l4.1,1c-2.8,1.4-5.2,3.5-7.1,6.1l-10.9,14.8-2.2-43.1c-.3-5.7-5.1-10.1-10.9-9.8s-10.1,5.1-9.8,10.9l.8,15.6-22.2,1.1-.8-15.6c-.3-5.6-4.9-9.9-10.5-9.8l-10.7.5c-5.3.1-9.5,4.5-9.4,9.7.1,5.3,4.5,9.5,9.7,9.4.2,0,.4,0,.6,0h2.2c-1.3,2.2-2,4.9-1.8,7.6l1.8,36.4c.3,5.7,5.1,10.1,10.9,9.8,5.7-.3,10.1-5.1,9.8-10.9l-.9-17,22.2-1.1.9,17c.2,4.7,3.5,8.5,7.8,9.5,0,3,1.4,6,4,7.9,4.4,3.2,10.5,2.2,13.7-2.1l5-6.9,26.7,6.2,1.4,8.4c1.1,5.3,6.2,8.7,11.5,7.6,5.1-1,8.5-5.8,7.7-10.9h0s-9.3-54.5-9.3-54.5c-.2-1.3-.6-2.5-1.1-3.7,1.7.8,3.7,1.1,5.7.7.2,0,.5,0,.7-.2l2.2-.5c-.9,2.5-1.1,5.2-.6,7.9l7.8,35.8c1.2,5.5,6.7,8.9,12.2,7.7,5.4-1.2,8.9-6.6,7.7-12l-2.5-11.5c7.4-.4,14.7-2.6,21.2-6.2,3.8-2.2,6.9-5.2,9.1-8.7.7.3,1.4.6,2.1.8.3,0,.5.1.8.2l2.2.4c-1.9,1.9-3.1,4.3-3.7,7l-7.4,35.9c-1.1,5.5,2.4,10.9,7.9,12,5.5,1.1,10.9-2.4,12-7.9l2.4-11.5h0c7,2.6,14.5,3.6,21.9,2.9,13.8-1.3,23.8-13.5,22.5-27.3-.2-2.5-.8-4.8-1.7-7l9,12.9v16.1c0,5.8,4.7,10.4,10.4,10.4s10.4-4.7,10.4-10.4v-16.1l22.1-31.7c3-4.4,1.9-10.5-2.5-13.5ZM209.9,60.3l8.5-11.7,2.5,14.3-11-2.6ZM276.5,37.7c-4.1,1.5-8.3,2.5-12.6,3h0s-3.2-14.5-3.2-14.5c4.1-1.3,8.4-2.2,12.7-2.5,4,0,7.3,3.3,7.3,7.4,0,2.8-1.7,5.4-4.2,6.6ZM337.2,60.7c-1.2,2.6-3.7,4.2-6.5,4.3-4.3-.3-8.6-1.1-12.7-2.4h0s0,0,0,0c0,0,0,0,0,0l3-14.5c4.3.4,8.6,1.4,12.6,2.9,3.7,1.7,5.3,6,3.6,9.7Z"/>
  <path class="cls-1" d="M105,29.5l-20.2-6.5c-5.1-1.5-10.4,1.4-11.8,6.5-1.4,4.9,1.2,10,6,11.7l2.3.8c-2.1,1.7-3.6,4-4.4,6.5l-5.1,15.9c-.3-1.2-.7-2.3-1.4-3.4l-8-12.3c10.3-8.5,11.7-23.8,3.2-34.1-4-4.8-9.6-7.9-15.7-8.6-5.4-.6-10.8-.8-16.3-.5l-24.4,1.6C3.9,7.2-.3,11.5-.2,16.8c0,5.3,4.5,9.5,9.7,9.4.3,0,.7,0,1,0l2.2-.2c-1.3,2.3-1.9,5-1.7,7.7l2.5,36.6c.5,5.6,5.4,9.7,11,9.3,5.5-.5,9.6-5.2,9.3-10.7l-.9-12.7c3.3,0,6.5-.2,9.8-.5l10,16.5c1.5,2.3,3.7,3.9,6.2,4.5-1.3,1.1-2.3,2.6-2.9,4.3-1.6,5,1.1,10.4,6.2,12l20.2,6.5c5,1.6,10.4-1.1,12-6.2,1.6-5-1.1-10.4-6.2-12h0-.2c0,0,10.8-33.6,10.8-33.6h.2c5,1.7,10.4-1.1,12-6.1s-1.1-10.4-6.2-12ZM49.7,30.8c-.2,2.9-2.3,5.4-5.2,6-4.2.9-8.6,1.3-12.9,1.2l-.9-13.7c4.3-.7,8.6-.9,12.9-.6,3.6.3,6.4,3.4,6.1,7.1ZM68.1,74.7s0,0-.1,0c.2-.1.4-.3.5-.5l-.2.6h-.2Z"/>
</svg>