<?xml version="1.0" encoding="UTF-8"?>
<svg id="Produto" xmlns="http://www.w3.org/2000/svg" version="1.1" viewBox="0 0 5415.9 1298.2">
  <defs>
    <style>
      .cls-1 {
        fill: #fff;
        stroke-width: 0px;
      }
    </style>
  </defs>
  <path class="cls-1" d="M367.8,612.2c-3.9,3.2-7.5,5.4-10.3,8.3-39.8,41.3-79.5,82.9-119.4,124.1-5.6,5.7-7.5,11.7-7.5,19.4.2,41.7.3,83.4,0,125,0,10.8-1,21.8-3.1,32.3-9.7,47.6-53.4,84.3-101.9,85.3-32,.6-64.1,0-96.1.2-9.7,0-18.2-2.6-23.6-10.8-2.9-4.3-4.3-9.9-5.3-15-.9-4.7-.3-9.6-.3-14.5,0-282.1,0-564.2,0-846.3,0-12.1.2-24,3.1-36C15.5,35.5,58.1,1,108.6.3c30.2-.4,60.5-.3,90.7,0,20.8.2,30.7,10.4,31.4,31.4.2,4.8,0,9.7,0,14.5,0,132.9,0,265.8,0,398.7,0,7-1,14.1,1.8,21.9,7.1-2.5,10.5-7.4,14.5-11.6,29.6-31.1,59.1-62.2,88.6-93.3,105.2-110.9,210.5-221.8,315.7-332.8,4.6-4.8,9.2-9.6,13.8-14.4,9.3-9.6,20.5-14.5,34-14.5,56.8,0,113.7,0,170.5,0,1.8,0,3.6,0,5.4.1,10.5.8,18.6,5.7,23,15.2,4.6,10.1,3.5,20.1-3.5,29-3,3.8-6.5,7.2-9.8,10.7-116.5,125.2-232.9,250.5-349.4,375.7-4.9,5.3-9.7,10.7-14.2,15.5,0,8.5,5.7,12.7,9.7,17.8,46.4,58.8,93,117.5,139.5,176.2,82.5,104.2,165,208.4,247.5,312.6,3,3.8,6.2,7.4,8.9,11.5,13.5,20.4-2.9,42.9-21.2,42.1-3.6-.2-7.3,0-10.9,0-58,0-116.1-.6-174.1.3-21.3.3-36.5-7.1-49.8-23.5-95.8-118.3-192.2-236.2-288.4-354.2-4.5-5.6-9.3-11-14.5-17.2Z"/>
  <path class="cls-1" d="M2997.4,731.6c-.2,7.5-.5,14-.5,20.6,0,47.1-.1,94.2,0,141.3,0,15.3-1.8,30-7.6,44.3-18.6,46.5-63,69.3-99.8,69-30.8-.2-61.7,0-92.5,0-2.4,0-4.9,0-7.2-.2-12.7-1.3-22.4-10.3-24.1-23.2-.7-5.4-.4-10.9-.4-16.3,0-282.7,0-565.3,0-848,0-11.5.4-22.8,3.1-34.2,11.5-48.6,54.5-84,104.7-84.7,36.9-.5,73.7-.1,110.6-.1,77.4,0,154.8-.7,232.1.2,67.5.8,133.5,10.8,196.8,35.5,41.4,16.2,79.7,37.7,113.3,67,56.2,49,91.4,110.2,105.4,183.3,11.9,62.6,10.6,125-7,186.5-21.4,74.9-64.9,134.2-129,178.3-44.3,30.5-93.6,49.9-145.8,62.1-47.9,11.2-96.5,15.6-145.6,15.5-61.1,0-122.1,0-183.2,0-7.1,0-14.4-1-23.5,2.9ZM2998.7,539.7c6.7.3,12.6.7,18.5.7,58,0,116.1-.1,174.1,0,19.4,0,38.7-1.2,57.8-4.3,27-4.3,53.1-11.7,77-25.5,36.2-20.9,60.6-51.2,71.3-91.9,9.3-35.2,9.2-70.5.5-105.7-11-44.2-37.4-76.4-77.5-97.5-14.5-7.6-29.8-13.1-45.6-17.2-28.3-7.3-57.2-9.5-86.2-9.9-33.2-.4-66.5,0-99.7,0-24.2,0-48.4,0-72.5,0-5.9,0-12.2-1.3-18.1,3.8-.4,3.4-1.1,7.5-1.2,11.7-2,86.7-1,315.3,1.8,335.7Z"/>
  <path class="cls-1" d="M2222.3,756c3.2-6.9,6.1-12.8,8.6-18.8,64.4-154.4,128.7-308.8,193.1-463.1,2.3-5.6,4.4-11.3,7.3-16.6,7.3-13.8,18.7-21.8,34.5-23,4.2-.3,8.5-.4,12.7-.4,41.7,0,83.4,0,125.2,0,4.2,0,8.5.2,12.7.3,15.5.4,29.1,15.5,23.2,35.2-1.7,5.8-4.4,11.2-6.8,16.8-83.8,196.7-167.6,393.3-251.3,589.9-27.4,64.4-54.7,128.9-82.1,193.4-13.7,32.3-29.8,63.4-49,92.8-46.1,70.6-110.5,114.2-193.3,129-79.2,14.2-156.6,6.3-230.5-27.1-12.6-5.7-24.7-12.7-36.3-20.3-13.4-8.8-16.5-21.6-10.4-36.4,1.4-3.3,3.3-6.5,4.9-9.7,15.5-30.1,30.9-60.2,46.4-90.2,2.2-4.3,4.3-8.7,7.1-12.6,8.1-11.3,21-14.6,33.7-8.7,4.4,2,8.4,4.8,12.7,7.1,35.5,19,73.1,28.1,113.5,23.4,27.6-3.2,51-14.3,69.5-35.1,17.5-19.6,30-42.3,40-67.8-2.7-6.6-5.6-13.8-8.6-20.9-101.4-235.8-202.8-471.5-304.2-707.2-2.4-5.5-5-11.1-6.8-16.8-5.2-16.6,4.7-32.2,21.8-34.4,4.8-.6,9.7-.5,14.5-.5,46.6,0,93.1.4,139.7-.2,25.6-.3,41.6,6.5,53.8,36,64.3,156.4,129.2,312.5,194,468.6,2.4,5.9,3.5,12.7,10.6,17.4Z"/>
  <path class="cls-1" d="M4994.1,756.2c7.3-5.3,8.2-11.5,10.5-16.9,20.5-49,40.9-98.1,61.4-147.1,44.6-107,89.6-213.9,133.6-321.1,12.7-30.8,28.1-37.6,54.9-37.2,41.1.6,82.2.1,123.4.2,5.4,0,10.9,0,16.3.8,15.3,2.5,24.9,17.4,20.8,32.3-1.7,6.4-4.7,12.4-7.3,18.5-64.1,150.5-128.3,301.1-192.4,451.6-47.3,111.1-94.6,222.2-141.8,333.4-13.3,31.2-28.7,61.2-47.1,89.7-49.7,76.6-119.7,121.1-210.1,133.4-71.6,9.8-141.1,2.1-207.8-26.2-13.3-5.6-25.8-13.2-38.5-20.1-3.7-2-7.3-4.5-10.2-7.5-7.7-7.9-11-17.3-6.7-28.1,1.5-3.9,3.3-7.8,5.2-11.5,16.3-31.7,32.6-63.4,48.9-95,1.9-3.8,3.8-7.7,6.3-11,7.7-10.2,20.6-13.5,32.4-8.3,3.9,1.7,7.4,4.1,11.1,6.2,27.9,15.6,57.6,24.8,89.7,25.9,16.4.6,32.6-1,48.4-5.8,19.6-5.9,35.8-17.2,49.2-32.6,14.7-17.1,25.5-36.6,34.8-57,3.1-6.6,2.2-12.6-.6-19.1-12.4-28.2-24.4-56.5-36.6-84.8-90.9-211.3-181.9-422.7-272.8-634-2.1-5-4.4-10-6.2-15.1-6-17,5.9-34.7,23-35.3,4.2-.2,8.5-.3,12.7-.3,47.2,0,94.3,0,141.5,0,4.2,0,8.5,0,12.7.4,15.8,1.4,27,9.6,34.4,23.4,2.3,4.3,3.9,8.8,5.7,13.3,64,154.5,128,309.1,192,463.6,2.7,6.6,5.7,13.2,9.4,21.4Z"/>
  <path class="cls-1" d="M1160.1,685.3c.9,4.9,1.2,8.5,2.2,11.9,11.4,40.4,34.1,72.9,67.7,98,29.7,22.2,63.3,35.1,99.5,41,43.4,7.2,86.7,5.5,129.5-4.7,32.8-7.8,62.5-22.2,89.5-42.2,4.4-3.2,8.6-6.7,13.3-9.4,10-5.9,19.8-4.6,28.8,2.2,3.3,2.5,6.2,5.7,9.1,8.8,24.2,26.2,48.4,52.4,72.6,78.6,2,2.2,4.2,4.4,6,6.8,8.8,11.7,8.5,25.6-1.1,36.5-3.6,4.1-7.7,7.6-11.8,11.2-43.8,39-94.9,64-151.3,78.5-37,9.5-74.6,14.7-112.9,15.4-33.9.6-67.7.5-101.4-3.9-82.5-10.7-158.4-38.1-224.1-90.1-75.9-60-120.5-138.7-135.9-234-10.7-66-7.6-131.5,13.2-195.1,40.1-122.3,122.6-204.2,243.2-248,35.3-12.8,72.1-19.5,109.6-22.9,32.1-2.9,64.1-2.5,95.9,1.2,194.1,22.4,310.2,151.8,339.6,305.5,7.8,40.6,10,81.4,6.6,122.6-1.6,20-11.2,29.1-31.3,30-5.4.2-10.9,0-16.3,0-171.7,0-343.3,0-515,0-7.8,0-15.6-1-25.1,2ZM1157.6,551.5c7.2,3.6,14.5,2.4,21.6,2.4,112.4,0,224.8,0,337.1,0,4.8,0,9.7,0,14.5-.3,2.2-.2,4.4-1.3,7-2.1.1-2.8.8-5.3.3-7.5-14.2-69.2-53.4-117.9-120.3-142.3-34.1-12.5-69.5-14-105.4-8.5-81,12.5-139.9,69-154.8,149-.5,2.8,0,5.8,0,9.2Z"/>
  <path class="cls-1" d="M4258.2,915.1c-3.5,3-5.5,4.1-6.7,5.9-32.7,48.2-79.3,75.4-135,87.5-70.8,15.3-141.7,14.3-211.6-5.8-30.4-8.7-58.8-22.3-84.1-41.4-55.7-41.8-84.9-97.6-87.4-167.3-1-26.7,1.3-53.1,9.3-78.8,15.8-50.2,47.8-87.4,92.6-114.1,29.9-17.8,62.6-28.4,96.5-35.5,44-9.2,88.5-12,133.4-11.9,52.6.2,105.2,0,157.8,0,6.5,0,13.3,1,20.3-2.2.5-2.8,1.5-5.7,1.4-8.5-1-16.3-3.2-32.4-8.4-48-12.4-37.1-37-63.1-72.6-78.8-17.8-7.8-36.6-12.5-55.9-14.7-66.2-7.6-130.2,1.8-191.7,27.1-15,6.2-29.3,14.2-43.9,21.4-3.8,1.9-7.3,4.3-11.3,5.7-12.5,4.3-24.4.3-31.8-10.6-2-3-3.5-6.3-5.2-9.5-15.5-30.1-30.9-60.1-46.4-90.2-1.1-2.1-2.3-4.3-3.3-6.5-7.5-16.5-4.2-29.1,11.3-38.8,25.7-16.1,53.2-28.5,81.7-38.8,46.2-16.7,93.7-27.6,142.5-33.7,50.6-6.4,101.3-7.4,152-2.3,40.4,4,79.9,12.2,117.9,27.1,98.6,38.6,157.5,110.4,178.9,213.6,7.1,34.5,9.7,69.4,9.8,104.4.3,132.3.1,264.6,0,396.9,0,6,0,12.2-1.3,18-2.8,13.3-11.9,20.7-25.4,21.4-6,.3-12.1.1-18.1.1-41.7,0-83.4,0-125.2,0-4.8,0-9.7.2-14.5-.2-13.1-1.2-22.3-10.2-23.9-23.1-.5-4.2-.4-8.4-.4-12.7,0-14.5,0-29,0-43.5,0-3.4-.6-6.7-1.2-12.2ZM4244.3,684.2c-7.6-.4-13.5-.9-19.3-.9-45.9,0-91.8,0-137.6,0-9.1,0-18.1.2-27.1.8-21.2,1.5-41.8,5.5-61.3,14.4-17,7.7-30.8,18.9-39.5,35.7-19.5,37.6-8.2,85.1,26.1,110,10.8,7.9,22.8,13.9,35.6,17.3,53.5,14,105.2,9.9,154.5-16.3,25.8-13.7,45.2-33.7,59.2-59.3,7.1-13,11.5-26.2,10.6-41.4-.8-13.8-.1-27.7-.2-41.6,0-5.4-.4-10.7-.8-18.7Z"/>
</svg>