<?xml version="1.0" encoding="UTF-8"?>
<svg id="Layer_1" data-name="Layer 1" xmlns="http://www.w3.org/2000/svg" version="1.1" viewBox="0 0 229 42">
  <defs>
    <style>
      .cls-1 {
        fill-rule: evenodd;
      }

      .cls-1, .cls-2 {
        fill: #fff;
        stroke-width: 0px;
      }
    </style>
  </defs>
  <path class="cls-1" d="M34,36.3C42.1,16.6,64.9,3,91.8,3s49.7,13.5,57.7,33.2C142.8,15.4,119.5,0,91.8,0s-51,15.4-57.7,36.3Z"/>
  <path class="cls-2" d="M28.8,41.7h-5.1l12.1-23.7h4.5l12.7,23.7h-5.4l-9.4-18.5-9.4,18.5Z"/>
  <path class="cls-2" d="M135.7,41.7h-5.1l12.1-23.7h4.5l12.7,23.7h-5.4l-9.4-18.5-9.4,18.5Z"/>
  <path class="cls-2" d="M65.7,41.7h-4.6v-23.7h6.2l9.7,18.8,9.7-18.8h5.4l.2,23.7h-4.1v-18l-9.5,18h-3.7l-9.2-18v18Z"/>
  <path class="cls-2" d="M126,34.2h-4.5c0,3-2.5,3.7-3.8,3.7h-6c-3.3,0-4.7-3.8-4.9-5.7v-5.1c0-5.3,4.1-6.5,6.5-6.4h3.8c2.1,0,4.1,1.9,4.1,3.8h4.8c0-5.3-5-7.2-7.5-7.5h-4.6c-10,0-11.2,6.7-11.5,10v5.1c0,7.9,6.2,9.9,9.2,9.9h6c5.5,0,7.8-5.2,8.3-7.8Z"/>
  <path class="cls-2" d="M197.9,18.1h-6l11.3,13.5v10h4.5v-10l11.5-13.5h-5.9l-7.8,9.7-7.5-9.7Z"/>
  <path class="cls-1" d="M0,41.7h4.6v-10.3h10.2c2,.3,5.6-1.6,5.6-4.8v-3.5c0-2.7-1.7-5.1-5.6-5.1H0v23.7ZM4.5,21.6v6.4h9.1c.9-.1,2.7-.8,2.7-2.9.1-1.2-.3-3.5-2.7-3.5H4.5Z"/>
  <path class="cls-1" d="M167.2,41.7h4.3v-10h9.1c1,.2,2.1.5,2.4,2.7l1.3,7.3h4.6l-1.9-8c-.3-1.4-1.3-4.1-2.9-4.1,1.3-.3,3.8-1.8,3.8-5.2-.1-2.1-1.4-6.4-5.7-6.4h-15v23.7ZM171.7,21.6v6.4h9.1c.9-.1,2.7-.8,2.7-2.9.1-1.2-.3-3.5-2.7-3.5h-9.1Z"/>
  <path class="cls-2" d="M223.3,23.4v-3.4h1.7c.1,0,.3,0,.4.1.2,0,.3.2.4.4.1.2.2.4.2.6s0,.5-.2.6c-.1.2-.3.3-.4.4-.2,0-.3.1-.5.1h-1.2v-.5h1c.1,0,.2,0,.3-.2.1-.1.2-.3.2-.5s0-.3-.2-.4c-.1,0-.2-.1-.3-.1h-.7v2.8h-.7ZM225.4,21.9l.8,1.6h-.8l-.8-1.6h.8ZM224.6,25.5c-.5,0-1,0-1.4-.3-.4-.2-.8-.5-1.2-.8-.3-.3-.6-.7-.8-1.2-.2-.4-.3-.9-.3-1.4s0-1,.3-1.4c.2-.4.5-.8.8-1.2.3-.3.7-.6,1.2-.8.4-.2.9-.3,1.4-.3s1,0,1.4.3c.4.2.8.5,1.2.8.3.3.6.7.8,1.2.2.4.3.9.3,1.4s0,1-.3,1.4-.5.8-.8,1.2c-.3.3-.7.6-1.2.8-.4.2-.9.3-1.4.3ZM224.6,24.6c.5,0,1-.1,1.4-.4.4-.2.8-.6,1-1s.4-.9.4-1.4-.1-1-.4-1.4c-.2-.4-.6-.8-1-1-.4-.2-.9-.4-1.4-.4s-1,.1-1.4.4c-.4.2-.8.6-1,1-.2.4-.4.9-.4,1.4s.1,1,.4,1.4.6.8,1,1c.4.3.9.4,1.4.4Z"/>
</svg>