<?xml version="1.0" encoding="UTF-8"?>
<svg id="Layer_1" data-name="Layer 1" xmlns="http://www.w3.org/2000/svg" version="1.1" viewBox="0 0 149 30">
  <defs>
    <style>
      .cls-1 {
        fill: #fff;
        stroke-width: 0px;
      }
    </style>
  </defs>
  <path class="cls-1" d="M12.2,16.5l-2.5-7.8c0-.1-.1-.2-.3-.2h-.1c-.1,0-.2,0-.3.2L3.9,25.6c0,.1,0,.2-.2.3s-.2.1-.3.1H.4c-.2,0-.3,0-.4-.2,0-.2,0-.4,0-.5L6.1,6.4c.2-.7.6-1.4,1.1-1.9.4-.3.8-.5,1.3-.5h1.4c.5,0,1.1.2,1.5.5.5.5.9,1.2,1.2,1.9l4.6,13.6,4.6-13.6c.2-.7.6-1.4,1.2-1.9.4-.3.9-.5,1.5-.5h1.4c.5,0,.9.2,1.3.5.5.5.9,1.2,1.1,1.9l6,18.9c0,.2,0,.3,0,.5,0,.1-.2.2-.4.2h-3c-.1,0-.2,0-.3-.1s-.2-.2-.2-.3l-5.1-16.9c0-.1-.1-.2-.3-.2h-.1c-.1,0-.2,0-.3.2l-2.6,7.8-2.9,8.3c-.1.4-.4.7-.7.9-.3.2-.7.3-1.1.3-.4,0-.8,0-1.1-.3-.3-.2-.6-.5-.8-.9l-3-8.4Z"/>
  <path class="cls-1" d="M97.6,13.5l2.5,7.8c0,.1.1.2.3.2h.1c.1,0,.2,0,.3-.2l5.1-16.9c0-.1,0-.2.2-.3,0,0,.2-.1.3-.1h3c.2,0,.3,0,.4.2,0,.2,0,.4,0,.5l-6,18.9c-.2.7-.6,1.4-1.1,1.9-.4.3-.8.5-1.3.5h-1.4c-.5,0-1.1-.2-1.5-.5-.5-.5-.9-1.2-1.2-1.9l-4.6-13.6-4.6,13.6c-.2.7-.6,1.4-1.2,1.9-.4.3-.9.5-1.5.5h-1.4c-.5,0-.9-.2-1.3-.5-.5-.5-.9-1.2-1.1-1.9l-6-18.9c0-.2,0-.3,0-.5,0-.1.2-.2.4-.2h3c.1,0,.2,0,.3.1,0,0,.2.2.2.3l5.1,16.9c0,.1.1.2.3.2h.1c.1,0,.2,0,.3-.2l2.6-7.8,2.9-8.3c.1-.4.4-.7.7-.9.3-.2.7-.3,1.1-.3.4,0,.8,0,1.1.3.3.2.6.5.8.9l2.9,8.4Z"/>
  <path class="cls-1" d="M127.8,4c.4,0,.6.2.6.7v2.6c0,.5-.2.7-.6.7h-10.1c-.5,0-1.1,0-1.6.2-.4.1-.8.4-1,.7-.3.4-.5.8-.5,1.3-.1.8-.2,1.6-.2,2.5v.3h13.4c.4,0,.6.2.6.7v2.5c0,.5-.2.7-.6.7h-13.4v.5c0,.8,0,1.6.2,2.5,0,.5.3.9.5,1.3.3.3.6.6,1,.7.5.1,1.1.2,1.6.2h10.1c.4,0,.6.2.6.7v2.6c0,.5-.2.7-.6.7h-10.2c-1.1,0-2.2-.1-3.2-.4-.8-.3-1.6-.8-2.2-1.4-.6-.8-1-1.6-1.2-2.6-.3-1.3-.4-2.6-.4-3.9v-5.4c0-1.3.1-2.6.4-3.8.2-.9.6-1.8,1.2-2.6.6-.7,1.3-1.2,2.2-1.4,1-.3,2.1-.5,3.2-.5h10.2Z"/>
  <path class="cls-1" d="M148.4,4c.4,0,.6.2.6.7v2.6c0,.5-.2.7-.6.7h-10.1c-.5,0-1.1,0-1.6.2-.4.1-.8.4-1,.7-.3.4-.5.8-.5,1.3-.1.8-.2,1.6-.2,2.5v.3h13.4c.4,0,.6.2.6.7v2.5c0,.5-.2.7-.6.7h-13.4v.5c0,.8,0,1.6.2,2.5,0,.5.3.9.5,1.3.3.3.6.6,1,.7.5.1,1.1.2,1.6.2h10.1c.4,0,.6.2.6.7v2.6c0,.5-.2.7-.6.7h-10.2c-1.1,0-2.2-.1-3.2-.4-.8-.3-1.6-.8-2.2-1.4-.6-.7-1-1.6-1.2-2.6-.3-1.3-.4-2.6-.4-3.9v-5.4c0-1.3.1-2.6.4-3.8.2-.9.6-1.8,1.2-2.6.6-.7,1.3-1.2,2.2-1.4,1-.3,2.1-.5,3.2-.5h10.2Z"/>
  <path class="cls-1" d="M41.4,21.6l-1.6,4c0,.1-.1.2-.2.3,0,0-.2.1-.3.1h-3.1c-.2,0-.3,0-.4-.2,0-.2,0-.4,0-.5l7.8-18.9c.2-.7.6-1.4,1.2-1.9.4-.3.8-.5,1.3-.5h1.4c.5,0,1.1.2,1.5.5.5.5,1,1.2,1.2,1.9l7.9,18.9c0,.2,0,.3,0,.5,0,.1-.2.2-.3.2h-3c-.1,0-.2,0-.3-.1,0,0-.2-.2-.2-.3l-1.6-3.9-2.9-7-2.5-6c0-.1-.2-.2-.3-.2h-.1c-.1,0-.2,0-.3.2l-2.3,5.8-2.9,7.1Z"/>
  <path class="cls-1" d="M51.7,25.4l-3.2-7.8c-.1-.3-.3-.6-.6-.9-.2-.2-.5-.3-.8-.3h-.6c-.3,0-.5,0-.7.3-.2.2-.4.5-.5.9l-3.2,7.8c0,.1,0,.2,0,.4,0,0,0,.1.1.2,0,0,.2,0,.2,0h1.2c0,0,.2,0,.3,0,0,0,.1-.1.2-.2l.7-1.6,1.2-2.9.9-2.2.9,2.3,1.2,2.9.7,1.6c0,0,0,.2.2.2,0,0,.2,0,.3,0h1.2c0,0,.2,0,.2,0,0,0,.1-.1.1-.2,0-.1,0-.2,0-.4Z"/>
  <path class="cls-1" d="M62.8,4c.4,0,.6.2.6.7v13.1c0,.7,0,1.4.2,2.1,0,.5.3.9.5,1.3.3.3.6.6,1,.7.5.1,1.1.2,1.6.2h10.2c.4,0,.6.2.6.7v2.5c0,.5-.2.7-.6.7h-10.3c-1.1,0-2.2-.1-3.2-.4-.8-.3-1.6-.8-2.2-1.4-.6-.8-1-1.6-1.2-2.6-.3-1.3-.4-2.6-.4-3.9V4.7c0-.5.2-.7.6-.7h2.7Z"/>
</svg>