<?xml version="1.0" encoding="UTF-8"?>
<svg id="Camada_1" data-name="Camada 1" xmlns="http://www.w3.org/2000/svg" version="1.1" viewBox="0 0 853.8 209.9">
  <defs>
    <style>
      .cls-1 {
        fill: #fff;
        stroke-width: 0px;
      }
    </style>
  </defs>
  <path class="cls-1" d="M850.4,193.4h-27c1.1,5,4.6,7.6,9.5,7.6s6.4-1.2,9.4-4l6.3,5.6c-3.6,4.5-8.9,7.3-15.9,7.3-11.7,0-20.3-8.2-20.3-20.2h0c0-11.3,7.9-20.4,19.2-20.4s18.9,10.1,18.9,21.2h0c0,1.2,0,1.9-.1,2.9M808,180.9c-7.3,0-11.8,4.4-11.8,13.8v14.4h-11v-39h11v7.8c2.2-5.4,5.9-8.9,12.4-8.6v11.6h-.6ZM768.2,209.7c-6.7,0-11.3-2.7-11.3-11.7v-18.5h-4.6v-9.4h4.6v-10h11v10h9.1v9.4h-9.1v16.7c0,2.5,1.1,3.8,3.5,3.8s3.9-.5,5.5-1.4v8.9c-2.3,1.4-5,2.3-8.7,2.3M733.1,209.8c-5.4,0-11.5-1.8-16.7-5.9l4.7-7.3c4.2,3,8.6,4.6,12.3,4.6s4.6-1.2,4.6-2.9h0c0-2.5-3.8-3.3-8-4.7-5.4-1.6-11.6-4.1-11.6-11.7h0c0-8.1,6.4-12.5,14.2-12.5s10.3,1.7,14.5,4.5l-4.2,7.6c-3.8-2.3-7.7-3.6-10.5-3.6s-4,1.2-4,2.7h0c0,2.3,3.7,3.3,7.9,4.8,5.4,1.8,11.7,4.4,11.7,11.6v.2c0,8.6-6.5,12.6-14.9,12.6M711.1,193.4h-27c1.1,5,4.6,7.6,9.5,7.6s6.4-1.2,9.4-4l6.3,5.6c-3.6,4.5-8.9,7.3-15.9,7.3-11.7,0-20.3-8.2-20.3-20.2h0c0-11.3,7.9-20.4,19.2-20.4s18.9,10.1,18.9,21.2h0c0,1.2,0,1.9-.2,2.9M692.3,178.2c-4.5,0-7.5,3.3-8.4,8.3h16.6c-.7-5-3.6-8.3-8.2-8.3M654.4,209v-21.7c0-5.2-2.3-7.9-6.4-7.9s-6.7,2.7-6.7,7.9v21.7h-11v-21.7c0-5.2-2.3-7.9-6.4-7.9s-6.7,2.7-6.7,7.9v21.7h-11v-39h11v5.5c2.5-3.3,5.9-6.3,11.5-6.3s8.9,2.3,10.9,6.2c3.4-4,7.5-6.2,12.8-6.2,8.2,0,13.1,5,13.1,14.3v25.4h-11ZM564.1,209.9c-12,0-20.9-8.9-20.9-20.2h0c0-11.4,9-20.4,21.1-20.4s21,8.9,21,20.2h0c0,11.3-9,20.4-21.1,20.4M574.3,189.6c0-5.7-4.1-10.8-10.2-10.8s-10.1,4.9-10.1,10.6h0c0,5.9,4.1,10.9,10.2,10.9s10.1-4.9,10.1-10.6h0ZM524.2,209v-5.6c-2.7,3.7-6.4,6.3-12.1,6.3-9,0-17.7-7.1-17.7-20.2h0c0-13.2,8.5-20.3,17.7-20.3s9.5,2.7,12.1,5.8v-19.2h11v53.1h-11ZM524.3,189.5c0-6.5-4.3-10.8-9.4-10.8s-9.5,4.2-9.5,10.8h0c0,6.6,4.3,10.9,9.5,10.9s9.4-4.3,9.4-10.8h0ZM462.9,209v-4.2c-2.7,3-6.4,4.9-11.8,4.9s-13.4-4.2-13.4-11.9h0c0-8.7,6.5-12.6,15.7-12.6s6.8.7,9.5,1.6v-.6c0-4.6-2.8-7.1-8.3-7.1s-7.2.8-10.7,2.1l-2.7-8.4c4.3-1.9,8.5-3.1,15.1-3.1,12,0,17.3,6.3,17.3,16.8v22.6h-10.6ZM463.1,193.3c-1.9-.9-4.3-1.4-7-1.4-4.7,0-7.6,1.9-7.6,5.4h0c0,3.1,2.5,4.9,6,4.9,5.2,0,8.6-2.8,8.6-6.8v-2ZM417.4,209.8c-5.4,0-11.5-1.8-16.7-5.9l4.7-7.3c4.2,3,8.6,4.6,12.3,4.6s4.6-1.2,4.6-2.9h0c0-2.5-3.8-3.3-8.1-4.7-5.4-1.6-11.6-4.1-11.6-11.7h0c0-8.1,6.4-12.5,14.2-12.5s10.3,1.7,14.5,4.5l-4.2,7.6c-3.9-2.3-7.7-3.6-10.5-3.6s-4.1,1.2-4.1,2.7h0c0,2.3,3.7,3.3,7.9,4.8,5.4,1.8,11.8,4.4,11.8,11.6v.2c0,8.6-6.5,12.6-14.9,12.6M383.7,209v-4.2c-2.7,3-6.4,4.9-11.7,4.9s-13.3-4.2-13.3-11.9h0c0-8.7,6.5-12.6,15.7-12.6s6.7.7,9.5,1.6v-.6c0-4.6-2.8-7.1-8.3-7.1s-7.2.8-10.7,2.1l-2.8-8.4c4.3-1.9,8.5-3.1,15.1-3.1,12,0,17.3,6.3,17.3,16.8v22.6h-10.7ZM383.9,193.3c-1.9-.9-4.3-1.4-7-1.4-4.7,0-7.6,1.9-7.6,5.4h0c0,3.1,2.5,4.9,6,4.9,5.2,0,8.6-2.8,8.6-6.8v-2ZM337.9,209.9c-11.7,0-20.2-9-20.2-20.2h0c0-11.3,8.5-20.4,20.4-20.4s11.9,2.5,15.5,6.5l-6.8,7.3c-2.5-2.6-4.9-4.3-8.8-4.3s-9.4,4.9-9.4,10.6h0c0,6.1,3.9,10.9,9.9,10.9s6.2-1.6,8.9-4.2l6.5,6.5c-3.8,4.2-8.1,7.1-15.9,7.1M288.2,209l-4.6-11.4h-21.5l-4.6,11.4h-11.4l21.8-51.3h10.3l21.8,51.3h-11.7ZM272.8,171.2l-6.8,16.5h13.5l-6.8-16.5ZM831.7,178.2c-4.5,0-7.5,3.3-8.4,8.3h16.6c-.7-5-3.6-8.3-8.2-8.3"/>
  <g>
    <polygon class="cls-1" points="159.5 56.7 159.5 153.2 205.3 199.2 205.3 10.7 159.5 56.7"/>
    <polygon class="cls-1" points="45.8 56.7 0 10.7 0 199.2 45.8 153.2 45.8 56.7"/>
    <polygon class="cls-1" points="150.8 47.9 198.5 0 6.8 0 54.5 47.9 150.8 47.9"/>
    <polygon class="cls-1" points="54.5 162 6.8 209.9 198.6 209.9 150.8 162 54.5 162"/>
  </g>
  <path class="cls-1" d="M720.7,98V33.8h-37.6v107.3h37.6v-43.2h0ZM668.2,90.2c0-31.5-17-58.7-54-58.7s-54,24.8-54,56.1v.4c0,33.3,23.7,55.7,57.3,55.7s36.2-8.7,46.5-21.8l-20.8-17.3c-7.7,7.5-14.8,10.9-23.7,10.9s-18.9-5.2-22.3-15.3c-1.5-3.2-2.4-7.9-2.4-13.1s.6-8.1,1.6-11.1c2.5-10.2,8.9-16.8,18-16.8s17.2,7.5,18.6,19.5h-29v19.2h64c.2-2.6.2-5.4.2-7.7M489.9,107.8v-43.6h-12.7v-30.4h12.7V6.7h37.6v27.2h24.9v30.4h-24.9v36.3c0,7.5,3.4,10.7,10.3,10.7s9.7-1.4,14.2-3.6v29.6c-6.7,3.8-15.6,6.1-26.1,6.1-22.5,0-36-9.9-36-35.5M457.2,45.4c-8.5-8.5-21.6-13.1-40.7-13.1s-31.2,3.4-43.3,8.3l7.7,26.6c9.5-3.8,18.2-5.9,29.5-5.9s21.4,6.3,21.4,17.5l.4,23.6c0,10.7-7.7,17.6-18.6,17.6s-13.2-4.4-13.2-11.7v-.4c0-7.9,6.3-13.3,17.2-13.3s5.2.3,7.6.7v-16.7c-5.5-1.3-12.2-2.3-19-2.3-25.1,0-41.9,11.5-41.9,33.7v.4c0,21.4,15.6,33.1,36,33.1s24.1-5.4,31.5-13.5v11.1h37.2v-61.7c0-15.1-3.4-26.2-11.5-34.1M297.8,107.4l-39.4,33.7h99.1v-33.7h-59.8ZM290.5,101.1V2.3h-38.4v131.7l38.4-32.9ZM817.3,31.5c-15.6,0-26.5,6.7-35.8,17.5-5.8-11.1-16.6-17.5-30.8-17.5s-18.7,4.1-25,9.7v26.2c2.4-1.5,5.2-2.4,8.4-2.4,8.9,0,14.6,6.2,14.6,17.9v58.3h37.6v-58.3c0-11.7,6.5-17.9,15.4-17.9s14.6,6.2,14.6,17.9v58.3h37.6v-70.4c0-25-13.8-39.3-36.6-39.3"/>
</svg>