<?xml version="1.0" encoding="UTF-8"?>
<svg id="Layer_1" data-name="Layer 1" xmlns="http://www.w3.org/2000/svg" version="1.1" viewBox="0 0 152.8 206.3">
  <defs>
    <style>
      .cls-1 {
        fill: #fff;
        stroke-width: 0px;
      }
    </style>
  </defs>
  <g id="Layer_2" data-name="Layer 2">
    <g id="Layer_1-2" data-name="Layer 1-2">
      <path class="cls-1" d="M105,18h3.6v7h0c.3-.6.7-1.2,1.1-1.7l3.6-5.3h4.4l-5.3,6.7,5.5,9.1h-4.2l-3.9-6.8-1.4,1.7v5.1h-3.5v-15.8h.1Z"/>
      <path class="cls-1" d="M108.1,53.2l-1.1,4.1h-3.7l4.8-15.8h4.7l4.9,15.8h-3.9l-1.2-4.1h-4.5ZM112.1,50.5l-1-3.4c-.3-.9-.6-2.1-.8-3.1h0c-.2.9-.5,2.1-.7,3.1l-.9,3.4h3.5,0Z"/>
      <path class="cls-1" d="M104.3,80.8l-3.8-15.8h3.8l1.2,6.5c.4,1.9.7,3.9.9,5.5h0c.3-1.7.6-3.6,1-5.6l1.3-6.5h3.8l1.3,6.7c.4,1.8.6,3.6.8,5.3h0c.2-1.8.6-3.6.9-5.5l1.3-6.5h3.6l-4.1,15.8h-3.9l-1.3-6.8c-.3-1.6-.6-3.1-.8-4.9h0c-.3,1.8-.5,3.3-.9,4.9l-1.5,6.8h-4,.4Z"/>
      <path class="cls-1" d="M108.1,100.2l-1.1,4.1h-3.7l4.8-15.8h4.7l4.9,15.8h-3.9l-1.2-4.1h-4.5ZM112.1,97.5l-1-3.4c-.3-.9-.6-2.1-.8-3.1h0c-.2.9-.5,2.1-.7,3.1l-.9,3.4h3.5,0Z"/>
      <path class="cls-1" d="M107.7,111.9v6.1h5.9v-6.1h3.6v15.8h-3.6v-6.6h-5.9v6.6h-3.6v-15.8h3.6Z"/>
      <path class="cls-1" d="M108.1,147.2l-1.1,4.1h-3.7l4.8-15.9h4.7l4.9,15.9h-3.9l-1.2-4.1h-4.5ZM112.1,144.5l-1-3.4c-.3-.9-.6-2.1-.8-3.1h0c-.2.9-.5,2.1-.7,3.1l-.9,3.4h3.5,0Z"/>
      <path class="cls-1" d="M105.2,159.1c1.6-.2,3.2-.3,4.8-.3,2.3,0,4,.4,5.1,1.2,1,.8,1.5,2,1.4,3.3,0,1.8-1.1,3.3-2.8,3.9h0c1.1.5,1.7,1.6,2.1,3.1.5,1.8,1,3.9,1.3,4.5h-3.7c-.5-1.2-.9-2.4-1.1-3.7-.4-2-1.1-2.5-2.6-2.5h-1.1v6.2h-3.5v-15.7h0ZM108.7,165.9h1.4c1.8,0,2.8-.9,2.8-2.3s-1-2.2-2.6-2.2-1.1,0-1.6.1c0,0,0,4.4,0,4.4Z"/>
      <path class="cls-1" d="M108.1,194.1l-1.1,4.1h-3.7l4.8-15.9h4.7l4.9,15.9h-3.9l-1.2-4.1h-4.5ZM112.1,191.5l-1-3.4c-.3-.9-.6-2.1-.8-3h0c-.2.9-.5,2.1-.7,3l-.9,3.4h3.5,0Z"/>
      <path class="cls-1" d="M143,21h-4.3v-3h12.2v3h-4.3v12.8h-3.6v-12.8h0Z"/>
      <path class="cls-1" d="M142.3,53.2l-1.1,4.1h-3.7l4.8-15.8h4.7l4.9,15.8h-3.9l-1.2-4.1h-4.5ZM146.3,50.5l-1-3.4c-.3-.9-.6-2.1-.8-3.1h0c-.2.9-.5,2.1-.7,3.1l-.9,3.4h3.5-.1Z"/>
      <path class="cls-1" d="M139.1,64.9h3.6v7h0c.4-.6.7-1.2,1.1-1.7l3.6-5.3h4.4l-5.2,6.8,5.5,9.1h-4.2l-3.9-6.8-1.4,1.7v5.2h-3.6v-16Z"/>
      <path class="cls-1" d="M142.3,100.2l-1.1,4.1h-3.7l4.8-15.8h4.7l4.9,15.8h-3.9l-1.2-4.1h-4.5ZM146.3,97.5l-1-3.4c-.3-.9-.6-2.1-.8-3.1h0c-.2.9-.5,2.1-.7,3.1l-.9,3.4h3.5-.1Z"/>
      <path class="cls-1" d="M138.2,127.8v-15.8h4.2l3.3,5.8c1,1.8,1.8,3.6,2.6,5.4h0c-.2-2.2-.3-4.4-.3-6.6v-4.6h3.3v15.8h-3.8l-3.4-6.1c-1-1.8-1.9-3.7-2.8-5.6h0c0,2.1.1,4.3.1,6.9v4.8h-3.3,0Z"/>
      <path class="cls-1" d="M152.4,143.1c0,5.2-3.1,8.4-7.8,8.4s-7.4-3.6-7.4-8.1,3-8.3,7.7-8.3,7.5,3.7,7.5,8h0ZM141,143.4c0,3.1,1.5,5.3,3.9,5.3s3.8-2.3,3.8-5.4-1.4-5.3-3.8-5.3-3.8,2.3-3.8,5.4h0Z"/>
      <path class="cls-1" d="M81.6,92.6h0l-9.7-11.7h0l-23-27.9h0l-5-6,35-29.1h0L63.9,0h0L21.7,35.2h0l-13.4,11.1h0c-2.6,2.3-4.6,5.1-6,8.2h0c-.3.6-.5,1.3-.7,1.9h0c-.1.3-.2.6-.3,1h0c0,.4-.2.8-.2,1.1v.2c0,.3-.1.7-.2,1h0c0,.5-.1.9-.2,1.2h0c0,.9-.1,1.8-.1,2.6v5.5h0v38.5h0v1.3h23.2v-39.5h0v-5.5l2.3-1.9,31.6,38.2,1.4,1.7h0l5.8,7h0l1.2-1h0l16.7-13.8h0l-1.1-1.4h-.1ZM1.2,57.8h0ZM.9,58.9h0Z"/>
      <polygon class="cls-1" points="20.2 120.4 .4 120.4 .4 135.4 .4 135.4 .4 143.7 45.8 143.7 45.8 143.7 72.1 143.7 72.1 143.7 78.8 143.7 78.8 141 78.8 141 78.8 131.8 78.8 131.8 78.8 120.4 20.2 120.4 20.2 120.4"/>
      <polygon class="cls-1" points="42.5 155.4 28 155.4 28 158 28 158 28 173.5 28 173.5 28 188.8 28 188.8 28 206.3 28 206.3 38 206.3 38.1 206.3 38.1 206.3 38.1 206.3 45.3 206.3 45.3 206.3 51.2 206.3 51.2 203.9 51.2 203.9 51.2 202 51.2 202 51.2 197.1 51.2 197.1 51.2 165.4 51.2 165.4 51.2 155.4 42.5 155.4 42.5 155.4"/>
    </g>
  </g>
</svg>