<?xml version="1.0" encoding="UTF-8"?>
<svg id="Camada_1" data-name="Camada 1" xmlns="http://www.w3.org/2000/svg" version="1.1" viewBox="0 0 226.8 127.4">
  <defs>
    <style>
      .cls-1 {
        fill: #fff;
        stroke-width: 0px;
      }
    </style>
  </defs>
  <path class="cls-1" d="M37.9,2.1c5.7,0,6.9,3.8,10.2,24.8,1.7,11.1,2.6,25.3,2.6,42s-.8,18.6-2.5,22.1c-.8,1.7-2.9,2.4-4.6,1.5-2.3-1.2-3.7-3-4.2-5.3-.3-1.1-.3-2.3,0-3.5.4-2.9,1.9-9.4,1.9-15.9s0-10.2-.5-20.1h-1.6.6c-5.3,0-11.5.7-15.3,2.2-8.4,3.2-13.9,11.5-13.9,20.5v2.7c0,5.4,2.5,8.5,7.4,8.5s10.3-4.2,17-12.7l1-1.1c.5-.5,1.3-.4,1.7.2.3.6.4,1.2.1,1.8-4.7,13.5-11.6,20.3-20.9,20.3s-11-3.3-14.1-9.9c-2.6-5.6-3.2-12-1.9-18.1,2.9-13.7,15.1-23.1,26.4-23.9,7-.5,12.4,1.1,12.4,1.1-.5-16.1-4.7-30.8-4.7-30.8l-.2-2c-.2-2.1,1.3-4.1,3.4-4.4"/>
  <path class="cls-1" d="M66.3,43.8h0c1.1,0,2.1.5,2.8,1.3,1.5,1.6,2.1,4.5,1.9,8.6l-.8,11.9c-.2,3-.1,6.1.2,9.1.5,4.4,1.4,6.7,4.1,6.8l4.6.3h1c1,.1,1.8,1,1.7,2,0,1-.4,1.9-1.1,2.6-1.4,1.6-3.4,3.1-5.8,4.5-1.3.7-2.7,1.1-4.2,1-6.1-.4-8-6.1-10.1-17-.7-3.6-1-7.4-1.1-11.1v-10c.3-7.1,1.2-10.4,6.8-10"/>
  <path class="cls-1" d="M146.9,43.8h0c1.1,0,2.1.5,2.8,1.3,1.5,1.6,2.1,4.5,1.9,8.6l-.8,11.9c-.2,3-.1,6.1.2,9.1.5,4.4,1.4,6.7,4.1,6.8l4.6.3h1c1,.1,1.8,1,1.7,2,0,1-.4,1.9-1.1,2.6-1.4,1.6-3.4,3.1-5.8,4.5-1.3.7-2.7,1.1-4.2,1-6.1-.4-8-6.1-10.1-17-.7-3.6-1-7.4-1.1-11.1v-10c.3-7.1,1.2-10.4,6.8-10"/>
  <path class="cls-1" d="M97,71.5v.3c.3,2.6,2.5,4.6,5.1,4.7,6.1,0,15.9-8.8,18.1-19,.7-3.2.3-6-.7-8.3,0,0,0,0,0,0-.6-1.3-2.1-1.8-3.4-1.1-11.3,5.7-19.1,14.6-19.1,23.5M120,35.2c3.3-1.1,6.9.4,8.3,3.6,3,6.8,4.5,21.2,4.5,43v3.2c0,20.4-6.2,33.9-18.5,40.6-2.1,1.2-4.5,1.8-6.9,1.8-6.2,0-10.8-4.1-13.7-12.3-.7-2.1-1.2-4.3-1.3-6.5-.1-1.7,1.4-3,3-2.7.8.1,1.5.8,2,1.4,2.3,2.9,3.9,5.3,7.1,8,1.1.9,2.5,1.4,3.9,1.4,4.2,0,7.7-3.6,10.5-10.7,2.3-5.8,3.3-12,3.2-18.3l-.3-14.7s-10.8,14.5-23.9,14c-7.8-.3-13.3-7.3-10.5-19.9,2.3-10.6,7.3-17.9,17-24.5,4.5-3,9.5-5.4,14.7-7.1l1-.3Z"/>
  <path class="cls-1" d="M198.8,22h.5c1.6,0,3.1.7,4,2.1,0,.1.1.2.2.3,1.1,2.1,1.6,4.5,1.4,6.9l-.8,9.5-.4,6.1c0,.8.6,1.4,1.4,1.3,2.5-.2,8.2-.7,16.8-1.1,2.8-.1,5.1,2.1,5,4.9,0,2.4-1.7,4.5-3.9,5.2-3.1,1-8.3,1.6-15.9,2.7-1,.1-1.8,1-1.8,2v3.5c0,13.4-1.4,20.1-4.2,20.1h-.4c-1.3,0-2.6-.4-3.6-1.4-2.9-2.7-4.4-8-4.4-15.6v-5.2c-.1-.9-.9-1.6-1.8-1.5-.9,0-2.1.2-3.7.4-5.9.8-11.9,2-17,2-.5,0-1.1,0-1.6-.2h-.3c-2.1-.5-3.6-2.4-3.4-4.6l.2-2c0-.6.2-1.2.5-1.7.5-1,1.3-2.1,3.4-2.5,3.7-.7,4.8-.7,9.3-1.3l8.9-1c4.3-.5,5.5-.4,5.5-4.7v-18c0-3.5,2.8-6.4,6.4-6.4"/>
  <path class="cls-1" d="M74,10.9h-4.6v5.8h4.6c2,0,3.1-1.2,3.1-2.9s-1.1-2.9-3.1-2.9M73.8,2.8h-4.3v5.5h4.3c1.9,0,3.1-1,3.1-2.7s-1.3-2.7-3.1-2.7M74.3,19.3h-7.7V.2h7.5c3.6,0,5.8,2,5.8,5.2s-1.3,3.6-2.6,4.1c1.5.6,2.9,2,2.9,4.4,0,3.5-2.4,5.4-5.8,5.4"/>
  <path class="cls-1" d="M95.5,4.5l-3,8.5h5.9l-2.9-8.5ZM100.5,19.3l-1.3-3.8h-7.6l-1.3,3.8h-3.1L94.2.2h2.3l7,19.2h-3.1Z"/>
  <polygon class="cls-1" points="123.2 19.3 114.3 5.8 114.3 19.3 111.4 19.3 111.4 .2 114.1 .2 122.9 13.6 122.9 .2 125.8 .2 125.8 19.3 123.2 19.3"/>
  <path class="cls-1" d="M142.1,19.5c-2,0-3.7-.7-5-2-1.9-1.9-1.9-4-1.9-7.7s0-5.8,1.9-7.7c1.3-1.3,3-2,5-2,3.5,0,6.2,2.1,6.8,5.9h-3c-.5-1.9-1.7-3.3-3.9-3.3s-2.2.4-2.8,1.2c-.9,1-1.2,2.1-1.2,6s.2,5,1.2,6c.7.7,1.7,1.2,2.8,1.2,2.1,0,3.4-1.3,3.9-3.3h2.9c-.6,3.8-3.4,5.9-6.8,5.9"/>
  <path class="cls-1" d="M166.9,3.8c-.7-.7-1.7-1.2-2.9-1.2s-2.2.5-2.9,1.2c-.9,1-1.1,2.1-1.1,5.9s.2,4.9,1.1,5.9c.7.7,1.7,1.2,2.9,1.2s2.2-.5,2.9-1.2c.9-1,1.1-2.1,1.1-5.9s-.2-4.9-1.1-5.9M169.1,17.4c-1.3,1.3-3,2-5.1,2s-3.7-.7-5-2c-1.9-1.9-1.9-4-1.9-7.7s0-5.8,1.9-7.7c1.3-1.3,3-2,5-2s3.7.7,5.1,2c1.9,1.9,1.8,4,1.8,7.7s0,5.8-1.8,7.7"/>
</svg>